<svg width="150" height="150" viewBox="0 0 150 150" fill="none" xmlns="http://www.w3.org/2000/svg">
<path d="M108.69 52.9583C108.937 53.0251 109.156 53.1716 109.312 53.3751C109.468 53.5787 109.552 53.828 109.552 54.0844C109.552 54.3408 109.468 54.5901 109.312 54.7936C109.156 54.9972 108.937 55.1437 108.69 55.2105C105.949 55.9481 103.45 57.3927 101.443 59.3997C99.4357 61.4068 97.9911 63.9058 97.2535 66.6467C97.1867 66.8943 97.0402 67.1129 96.8366 67.2689C96.6331 67.4248 96.3838 67.5093 96.1274 67.5093C95.8709 67.5093 95.6217 67.4248 95.4181 67.2689C95.2146 67.1129 95.0681 66.8943 95.0013 66.6467C94.2637 63.9058 92.8191 61.4068 90.812 59.3997C88.805 57.3927 86.3059 55.9481 83.5651 55.2105C83.3175 55.1437 83.0988 54.9972 82.9429 54.7936C82.7869 54.5901 82.7024 54.3408 82.7024 54.0844C82.7024 53.828 82.7869 53.5787 82.9429 53.3751C83.0988 53.1716 83.3175 53.0251 83.5651 52.9583C86.3059 52.2207 88.805 50.7761 90.812 48.769C92.8191 46.762 94.2637 44.263 95.0013 41.5221C95.0681 41.2745 95.2146 41.0558 95.4181 40.8999C95.6217 40.7439 95.8709 40.6594 96.1274 40.6594C96.3838 40.6594 96.6331 40.7439 96.8366 40.8999C97.0402 41.0558 97.1867 41.2745 97.2535 41.5221C97.9911 44.263 99.4357 46.762 101.443 48.769C103.45 50.7761 105.949 52.2207 108.69 52.9583Z" fill="white"/>
<path d="M107.962 55.6016C106.744 55.2726 109.501 52.4647 107.457 52.7097C107.206 52.7676 106.961 52.8509 106.726 52.9583C106.097 53.1813 105.476 53.4409 104.873 53.7151C103.578 54.3193 102.36 55.074 101.242 55.9636C99.2412 57.514 97.5758 59.4543 96.3466 61.6671C95.747 62.7639 94.9353 64.1678 94.7672 65.4109C94.6392 66.3359 93.9848 65.9154 96.1418 65.9154C97.9187 65.9154 97.7981 66.281 97.4361 65.1623C97.1993 64.4439 96.9247 63.7385 96.6135 63.0491C95.5872 60.7302 94.0937 58.6479 92.2262 56.9324C90.2292 55.1153 87.8778 53.7311 85.3198 52.8669C85.0008 52.7218 84.664 52.6197 84.3181 52.5634V54.0807C83.8306 55.3189 83.9147 55.8064 84.5703 55.5431C85.0712 55.5431 85.8134 55.1373 86.2887 54.9472C87.6268 54.4296 88.9003 53.7585 90.0837 52.9473C93.2926 50.7631 95.7431 47.6355 97.0961 43.9972C97.2752 43.5365 97.6737 42.7834 97.6701 42.2679H94.6319L94.7745 42.7724C94.8697 43.1974 95.0145 43.6097 95.2059 44.0009C96.2868 46.7965 98.0039 49.3019 100.221 51.3187C102.438 53.3355 105.095 54.8081 107.98 55.6199C111.38 56.5924 112.832 51.3021 109.443 50.3332C106.309 49.4835 103.585 47.5375 101.765 44.8491C100.185 42.4397 99.9369 38.0926 96.3283 37.95C92.4602 37.8001 92.1969 42.3629 90.5663 44.8491C88.8289 47.3889 86.2824 49.2653 83.3419 50.1723C81.8356 50.6769 80.5706 51.3825 80.1136 53.0387C79.8884 53.8856 79.9532 54.7836 80.2978 55.5893C80.6424 56.3951 81.2468 57.0623 82.0147 57.4845C83.2761 58.1792 84.7312 58.4022 86.0035 59.1297C87.4221 59.9408 88.6859 60.9966 89.7364 62.2484C90.6389 63.3316 91.3622 64.5524 91.8788 65.8642C92.5296 67.5131 92.76 69.1218 94.599 69.8859C95.3506 70.208 96.1845 70.2852 96.9825 70.1067C97.7805 69.9282 98.502 69.5031 99.0448 68.8915C100.061 67.7179 100.226 65.9849 100.946 64.6285C102.675 61.3709 105.461 59.1663 108.913 57.9671C110.602 57.3785 111.973 56.5047 112.232 54.5779C112.359 53.6428 112.145 52.6932 111.627 51.9039C111.11 51.1146 110.325 50.5386 109.417 50.282C106.006 49.3936 104.551 54.6839 107.962 55.6016Z" fill="black"/>
<path d="M68.9291 81.2834C62.5516 74.9062 58.2253 66.7688 56.5055 57.9154C54.7856 49.0619 55.7506 39.8966 59.2767 31.5955C52.4654 34.4942 46.4694 39.0202 41.8148 44.7763C37.1603 50.5324 33.9894 57.3427 32.5803 64.6099C31.1712 71.8771 31.5669 79.379 33.7329 86.4576C35.8988 93.5362 39.7687 99.9751 45.0031 105.209C50.2375 110.444 56.6764 114.314 63.755 116.48C70.8335 118.646 78.3355 119.041 85.6026 117.632C92.8698 116.223 99.6802 113.052 105.436 108.398C111.192 103.743 115.718 97.7472 118.617 90.9358C110.316 94.4619 101.151 95.427 92.2972 93.7071C83.4438 91.9872 75.3063 87.6609 68.9291 81.2834Z" fill="#FFE297"/>
<path d="M70.8672 79.3457C58.5859 66.9146 55.2076 48.3996 61.9204 32.3269C62.9661 29.826 59.7669 28.4184 57.8986 29.2301C46.5536 34.1429 37.5443 43.2474 32.751 54.6434C27.9577 66.0393 27.7508 78.8462 32.1735 90.3911C36.5317 101.605 45.0287 111.078 55.895 116.35C61.7199 119.2 68.0623 120.839 74.5386 121.167C81.0149 121.496 87.4906 120.508 93.5741 118.262C99.6576 116.017 105.222 112.561 109.932 108.103C114.642 103.646 118.399 98.2796 120.976 92.3289C121.78 90.4679 120.372 87.2614 117.879 88.3071C101.791 95.0199 83.2946 91.6415 70.8598 79.3603C68.3444 76.8778 64.4651 80.7533 66.9806 83.2396C80.6731 96.7675 101.514 101.038 119.338 93.5976L116.241 89.5758C111.619 100.256 102.943 108.983 91.9635 113.045C82.2054 116.651 71.4746 116.62 61.7376 112.957C41.5626 105.378 30.3527 82.7752 35.9577 62.1103C39.3982 49.4196 48.6337 39.1896 60.6554 33.9904L56.6335 30.8936C49.1931 48.714 53.4673 69.558 66.9916 83.2505C69.4741 85.7368 73.3497 81.8575 70.8672 79.3457Z" fill="black"/>
</svg>
