<svg width="150" height="150" viewBox="0 0 150 150" fill="none" xmlns="http://www.w3.org/2000/svg">
<path d="M68.622 25.8666C67.763 27.9299 67.0532 30.0521 66.4979 32.2169C68.4612 30.9741 70.5184 29.8862 72.6508 28.9632L68.622 25.8666Z" fill="black"/>
<path d="M91.2906 80.8048C92.4338 82.5788 93.342 84.4936 93.9925 86.5012C94.0586 86.9971 94.2829 87.4584 94.6319 87.8167C94.981 88.175 95.4364 88.4112 95.9303 88.4902C97.9125 88.9193 99.8028 89.6967 101.513 90.7863C103.676 92.1288 105.486 93.9693 106.793 96.1542C108.099 98.339 108.864 100.805 109.023 103.345C109.067 104.151 109.05 104.959 108.972 105.762C108.737 108.273 107.933 110.698 106.621 112.852C104.796 115.88 102.017 118.217 98.72 119.495C95.7512 120.632 92.775 120.573 89.6819 120.573H47.4746C45.4673 120.573 43.4528 120.592 41.4565 120.573C37.7435 120.573 34.1038 119.539 30.9441 117.589C27.7843 115.639 25.229 112.849 23.5635 109.531C21.898 106.212 21.1879 102.496 21.5126 98.7973C21.8372 95.0985 23.1839 91.5629 25.4021 88.5853C29.4933 83.0753 36.0051 80.3039 42.6118 80.6476C44.3489 80.7404 46.068 81.0461 47.7305 81.558C48.0655 81.6597 48.4183 81.6883 48.7652 81.6421C49.1839 81.5744 49.5837 81.4197 49.9389 81.1879C50.294 80.9562 50.5967 80.6525 50.8273 80.2966C53.1909 76.8413 56.3989 74.0478 60.1464 72.1818C63.8938 70.3157 68.0563 69.4391 72.2381 69.6351C73.2939 69.6919 74.3445 69.8214 75.3824 70.0227C78.6224 70.6589 81.701 71.9416 84.4343 73.7941C87.1675 75.6467 89.4994 78.031 91.2906 80.8048Z" fill="white"/>
<path d="M132.975 87.3235C132.731 87.8914 132.475 88.452 132.207 89.0053L131.326 88.5812L128.229 84.5597L128.025 84.0186C128.642 83.7919 129.257 83.5543 129.853 83.2874C132.371 82.2674 133.779 85.4627 132.975 87.3235Z" fill="black"/>
<path d="M131.326 88.5817L132.196 89.0058C128.171 97.3141 121.857 104.3 113.996 109.14C114.394 107.412 114.571 105.64 114.522 103.868C114.522 103.33 114.471 102.797 114.416 102.266C118.603 99.0792 122.181 95.163 124.979 90.7058C127.143 90.1516 129.264 89.4417 131.326 88.5817Z" fill="black"/>
<path d="M128.24 84.5561L131.337 88.5776C129.275 89.4376 127.154 90.1475 124.99 90.7017C126.229 88.7395 127.316 86.6849 128.24 84.5561Z" fill="black"/>
<path d="M119.714 50.531C119.225 50.3723 118.798 50.0644 118.493 49.6507C118.189 49.2369 118.021 48.7381 118.014 48.2242C118.244 48.1328 118.475 48.0415 118.705 47.9574C118.94 47.8519 119.185 47.7699 119.436 47.7124C121.48 47.4675 118.723 50.2715 119.94 50.6042L119.714 50.531Z" fill="black"/>
<path d="M119.447 47.7121C119.196 47.7695 118.951 47.8516 118.716 47.957C118.486 48.0411 118.255 48.1325 118.025 48.2239C117.952 46.5496 119.312 44.7474 121.421 45.2994C124.81 46.2718 123.362 51.5615 119.959 50.5891C118.734 50.2747 121.491 47.4672 119.447 47.7121Z" fill="black"/>
<path d="M116.851 48.7179C117.217 48.5424 117.622 48.3816 118.014 48.2244C118.021 48.7382 118.188 49.237 118.493 49.6507C118.798 50.0643 119.225 50.3722 119.713 50.5309C118.48 50.1626 117.286 49.6729 116.149 49.0688C116.38 48.9482 116.61 48.8275 116.851 48.7179Z" fill="black"/>
<path d="M114.533 103.868C114.581 105.64 114.405 107.412 114.006 109.14C112.895 109.825 111.756 110.463 110.588 111.055C111.391 108.926 111.801 106.67 111.798 104.394C111.798 104.299 111.798 104.204 111.798 104.106C112.697 103.528 113.579 102.914 114.43 102.278C114.482 102.797 114.507 103.331 114.533 103.868Z" fill="black"/>
<path d="M114.427 102.267C113.575 102.914 112.694 103.528 111.794 104.095C111.73 99.5586 110.034 95.1974 107.016 91.8101C108.235 91.9636 109.453 92.0721 110.672 92.1355C112.76 95.141 114.052 98.6266 114.427 102.267Z" fill="black"/>
<path d="M124.989 90.7058C122.192 95.1628 118.614 99.0789 114.427 102.266C114.049 98.6266 112.755 95.1425 110.665 92.139C115.485 92.3895 120.315 91.9063 124.989 90.7058Z" fill="#FFE297"/>
<path d="M111.798 104.395C111.801 106.67 111.391 108.927 110.588 111.056C109.299 111.714 107.979 112.312 106.629 112.851C107.941 110.697 108.745 108.273 108.979 105.762C109.94 105.245 110.878 104.693 111.794 104.106C111.794 104.205 111.798 104.3 111.798 104.395Z" fill="black"/>
<path d="M107.016 91.8211C110.033 95.2082 111.73 99.5691 111.794 104.105C110.88 104.695 109.942 105.247 108.979 105.761C109.056 104.958 109.074 104.15 109.03 103.345C108.869 100.805 108.103 98.3402 106.795 96.1569C105.488 93.9735 103.677 92.1346 101.513 90.7937C103.326 91.242 105.163 91.585 107.016 91.8211Z" fill="black"/>
<path d="M109.637 37.2522C109.637 37.7712 109.242 38.5241 109.063 38.9846C108.785 39.6937 108.478 40.3918 108.131 41.0717C107.773 40.3945 107.453 39.6977 107.173 38.9846C106.984 38.593 106.841 38.1809 106.746 37.7565C106.698 37.5884 106.651 37.4203 106.599 37.2522H109.637Z" fill="black"/>
<path d="M107.173 38.9849C107.452 39.6982 107.772 40.3952 108.131 41.0725C107.904 41.5185 107.663 41.9573 107.399 42.3814C106.002 44.5667 104.187 46.4541 102.058 47.935C101.443 48.3633 100.799 48.7481 100.131 49.0866C99.2172 48.6101 98.2688 48.2031 97.2939 47.8691C96.9753 47.7264 96.6399 47.6244 96.2958 47.5657V49.0866C95.8095 50.3224 95.89 50.805 96.5444 50.5308C97.0489 50.5308 97.7911 50.125 98.2664 49.9348C98.9026 49.6789 99.5241 49.401 100.131 49.0866C101.599 49.8559 102.964 50.8079 104.193 51.9201C105.788 53.3833 107.114 55.1159 108.109 57.0386C107.546 58.0623 106.895 59.2907 106.745 60.3912C106.617 61.3162 105.962 60.8958 108.12 60.8958C109.893 60.8958 109.772 61.2614 109.414 60.1426C109.175 59.4255 108.899 58.7214 108.588 58.0331C108.441 57.6967 108.28 57.364 108.109 57.0386L108.324 56.6474C110.144 53.4113 112.861 50.7713 116.148 49.0464C117.285 49.6506 118.479 50.1405 119.713 50.5088L119.951 50.582C123.351 51.5545 124.799 46.2641 121.413 45.2916C122.321 45.5489 123.105 46.125 123.622 46.9142C124.14 47.7033 124.355 48.6525 124.228 49.5875C123.969 51.5179 122.598 52.3917 120.909 52.9767C117.454 54.1759 114.671 56.3842 112.942 59.6381C112.211 60.9981 112.057 62.7275 111.037 63.9047C110.494 64.5157 109.772 64.9402 108.974 65.118C108.176 65.2958 107.343 65.218 106.591 64.8955C104.763 64.1204 104.522 62.5118 103.875 60.8738C103.357 59.562 102.632 58.3413 101.729 57.258C100.679 56.0055 99.4151 54.9496 97.9959 54.1393C96.7236 53.4081 95.2684 53.1887 94.0071 52.4941C93.2358 52.0699 92.6294 51.3988 92.2853 50.5885C91.9412 49.7783 91.8793 48.876 92.1096 48.0264C92.5629 46.3702 93.8279 45.6645 95.3379 45.16C98.2659 44.2394 100.797 42.3573 102.522 39.8184C104.149 37.3323 104.416 32.7695 108.284 32.9194C111.904 33.062 112.145 37.4091 113.721 39.8184C115.54 42.5073 118.265 44.4534 121.398 45.3026C119.289 44.7359 117.929 46.5383 118.002 48.2274C117.611 48.3846 117.22 48.5455 116.839 48.721C116.598 48.8307 116.368 48.9513 116.137 49.0866C112.722 47.2873 109.928 44.501 108.12 41.0908C108.467 40.4107 108.774 39.7124 109.052 39.0031C109.231 38.5425 109.63 37.7893 109.626 37.2702H106.588C106.639 37.4383 106.686 37.6065 106.734 37.7747C106.834 38.1934 106.981 38.5994 107.173 38.9849Z" fill="black"/>
<path d="M109.414 60.1646C109.779 61.2867 109.892 60.9175 108.12 60.9175C105.963 60.9175 106.617 61.3379 106.745 60.4131C106.895 59.3166 107.546 58.0849 108.109 57.0615C108.28 57.3868 108.441 57.7194 108.588 58.0556C108.899 58.7438 109.175 59.4477 109.414 60.1646Z" fill="black"/>
<path d="M108.131 41.0728C109.939 44.4829 112.733 47.2691 116.148 49.0684C112.86 50.7942 110.143 53.4354 108.324 56.6728L108.109 57.064C107.114 55.1413 105.789 53.4088 104.193 51.9456C102.963 50.8279 101.596 49.8709 100.124 49.0976C100.792 48.7592 101.436 48.3743 102.051 47.946C104.18 46.4652 105.995 44.5778 107.392 42.3926C107.663 41.9575 107.904 41.5188 108.131 41.0728Z" fill="white"/>
<path d="M99.0491 84.3733C100.57 84.8915 102.119 85.3248 103.689 85.6713C106.457 87.2939 108.838 89.5012 110.665 92.139C109.446 92.0756 108.227 91.9672 107.009 91.8136C104.925 89.4756 102.297 87.6884 99.3562 86.6109C99.4833 86.1174 99.463 85.5975 99.2977 85.1155C99.2246 84.8706 99.1515 84.6219 99.0491 84.3733Z" fill="black"/>
<path d="M103.689 85.6713C111.796 87.4511 120.243 86.8764 128.035 84.015L128.239 84.5561C127.315 86.6863 126.229 88.7422 124.989 90.7057C120.314 91.9062 115.484 92.3894 110.665 92.1389C108.838 89.5011 106.457 87.2939 103.689 85.6713Z" fill="black"/>
<path d="M103.688 85.6708C102.119 85.3244 100.571 84.8912 99.0494 84.3731C98.9544 84.0989 98.8556 83.8284 98.7496 83.5542C100.478 84.0511 102.137 84.7622 103.688 85.6708Z" fill="black"/>
<path d="M97.2862 47.8697C98.2609 48.2036 99.209 48.6105 100.123 49.0868C99.5158 49.4012 98.8944 49.679 98.2584 49.9348C97.7833 50.1249 97.0413 50.5453 96.5369 50.5306C95.8826 50.8048 95.8058 50.3223 96.2883 49.0868V47.5663C96.6324 47.625 96.9676 47.7269 97.2862 47.8697Z" fill="black"/>
<path d="M75.613 64.5275C75.8543 64.5641 76.0956 64.597 76.3442 64.6408C86.6288 66.4506 95.0816 73.9273 98.7524 83.5537C98.3063 83.4258 97.853 83.3088 97.3923 83.2064C96.9547 83.1074 96.4998 83.1136 96.0651 83.2247C95.9079 83.1589 95.758 83.0858 95.6045 83.02C93.9527 79.2534 91.4623 75.914 88.3233 73.2566C85.1843 70.5992 81.4797 68.6939 77.4922 67.6864C76.8195 66.6553 76.1931 65.6024 75.613 64.5275Z" fill="black"/>
<path d="M96.0618 83.2251C96.4964 83.114 96.9512 83.1078 97.3887 83.2068C97.8493 83.3092 98.3026 83.4261 98.7486 83.5541C98.8546 83.8282 98.9533 84.0987 99.0483 84.3729C98.0394 84.0293 97.0439 83.6467 96.0618 83.2251Z" fill="black"/>
<path d="M95.7329 83.3349C95.8399 83.2907 95.9498 83.254 96.0619 83.2252C97.0365 83.6443 98.0319 84.0269 99.048 84.3729C99.1358 84.6214 99.2235 84.87 99.3039 85.1222C99.4691 85.6041 99.4894 86.1238 99.3624 86.6171C98.4813 86.2948 97.5771 86.0394 96.6576 85.8532C96.3937 84.9981 96.0851 84.1575 95.7329 83.3349Z" fill="black"/>
<path d="M95.6014 83.0204C95.7535 83.0856 95.902 83.1581 96.0577 83.2232C95.9466 83.2518 95.8377 83.2881 95.7318 83.3319C95.6883 83.2269 95.6485 83.1218 95.6014 83.0204Z" fill="black"/>
<path d="M93.9926 86.508C93.9034 85.8624 94.0244 85.2051 94.3378 84.6336C94.6512 84.0621 95.1403 83.6068 95.7327 83.3349C96.0849 84.1577 96.3937 84.9984 96.6576 85.8536C97.5773 86.0399 98.4816 86.2953 99.3628 86.6177C98.7486 88.8367 94.9102 89.3777 94.0146 86.5811L93.9926 86.508Z" fill="black"/>
<path d="M94.0328 86.5816C94.9286 89.3785 98.7675 88.8374 99.3818 86.6181C102.322 87.6957 104.951 89.4829 107.034 91.8209C105.182 91.5848 103.344 91.2417 101.532 90.7935C99.8165 89.6968 97.9198 88.9144 95.9303 88.4828C95.4364 88.4038 94.9811 88.1676 94.632 87.8093C94.2829 87.451 94.0587 86.9897 93.9926 86.4938L94.0328 86.5816Z" fill="black"/>
<path d="M95.6008 83.0202C95.6484 83.1226 95.6886 83.2286 95.7324 83.3346C95.1401 83.6064 94.651 84.0618 94.3376 84.6333C94.0242 85.2048 93.9031 85.8621 93.9924 86.5077C93.3425 84.4978 92.4344 82.5809 91.2908 80.8049C92.6841 81.6249 94.1231 82.3646 95.6008 83.0202Z" fill="black"/>
<path d="M77.4886 67.6862C81.4759 68.6938 85.1804 70.5989 88.3192 73.2563C91.4581 75.9136 93.9484 79.2529 95.6002 83.0193C94.1228 82.3708 92.6837 81.6384 91.2898 80.8258C88.6417 76.7199 84.8294 73.4969 80.3402 71.5689C79.3169 70.3297 78.3648 69.0334 77.4886 67.6862Z" fill="black"/>
<path d="M69.902 24.2287C71.7775 23.4208 74.9728 24.8246 73.9235 27.3253C73.6676 27.9358 73.43 28.55 73.1923 29.1532L72.6549 28.9522L68.6334 25.8556L68.2166 24.9855C68.7626 24.7247 69.3244 24.4724 69.902 24.2287Z" fill="black"/>
<path d="M72.6513 28.9671L73.1887 29.1682C71.0752 34.8992 70.1986 41.0126 70.6163 47.1066C71.0341 53.2006 72.7369 59.1372 75.6127 64.5262C73.5494 64.2128 71.459 64.1148 69.3754 64.2337C64.7979 54.202 63.7828 42.9081 66.4981 32.221C68.4614 30.978 70.5187 29.89 72.6513 28.9671Z" fill="black"/>
<path d="M70.911 66.8781C73.1297 66.875 75.3403 67.1464 77.4923 67.6862C78.3691 69.0285 79.3213 70.32 80.3442 71.5545C78.7506 70.8695 77.0886 70.356 75.3863 70.0225C74.3483 69.8213 73.2977 69.6918 72.2419 69.635C71.6861 68.7331 71.1608 67.8154 70.666 66.8818L70.911 66.8781Z" fill="black"/>
<path d="M48.4695 78.9142C50.903 75.2454 54.1996 72.2299 58.0702 70.132C61.9407 68.0342 66.2669 66.9182 70.6693 66.882C71.1567 67.8155 71.682 68.7332 72.245 69.635C68.0634 69.439 63.9011 70.3156 60.1537 72.1816C56.4064 74.0476 53.1985 76.841 50.835 80.2962C50.6044 80.6521 50.3017 80.9557 49.9466 81.1874C49.5914 81.4192 49.1916 81.5739 48.773 81.6416C48.4512 80.6874 48.1624 79.7185 47.9101 78.7423C48.0966 78.7972 48.2831 78.852 48.4695 78.9142Z" fill="black"/>
<path d="M69.3756 64.2349C71.4591 64.116 73.5494 64.214 75.6126 64.5274C76.1903 65.6022 76.8154 66.6551 77.4881 67.6861C75.3363 67.1464 73.1259 66.875 70.9075 66.8781H70.6662C70.2092 66.0117 69.7814 65.127 69.3756 64.2349Z" fill="black"/>
<path d="M69.3748 64.2349C69.7806 65.127 70.2084 66.0118 70.6691 66.8819C66.2667 66.9182 61.9405 68.0341 58.07 70.1319C54.1995 72.2298 50.9028 75.2453 48.4693 78.9141C48.2829 78.8519 48.1037 78.7971 47.9099 78.7423C47.7564 78.1524 47.615 77.5601 47.4858 76.9654L49.1969 76.2671C48.5936 76.0843 47.9904 75.9234 47.3688 75.7808C50.0059 72.4033 53.3326 69.6265 57.1272 67.6356C60.9217 65.6447 65.097 64.4854 69.3748 64.2349Z" fill="black"/>
<path d="M68.2052 25.0001L68.622 25.8703C67.7619 27.9333 67.052 30.0558 66.4978 32.2211C57.4211 37.8939 50.8034 46.7661 47.9535 57.0834C46.3181 63.1664 46.0744 69.5398 47.2405 75.73C45.3497 75.3029 43.4168 75.0895 41.4783 75.0939C40.0138 64.9828 41.8167 54.6683 46.6243 45.6536C51.4319 36.6389 58.9929 29.3952 68.2052 24.9782V25.0001Z" fill="black"/>
<path d="M69.3752 64.2349C65.0992 64.4869 60.9259 65.647 57.1332 67.6379C53.3405 69.6288 50.0155 72.4049 47.3795 75.7812L47.2405 75.752C46.0744 69.5618 46.3181 63.1884 47.9535 57.1053C50.8035 46.7881 57.4211 37.9159 66.4978 32.2431C63.7876 42.9237 64.8026 54.2093 69.3752 64.2349Z" fill="#FFE297"/>
<path d="M47.9092 78.7427C48.1615 79.7188 48.4503 80.6877 48.772 81.6418C48.4251 81.6881 48.0723 81.6594 47.7374 81.5578C46.075 81.0459 44.356 80.7402 42.6191 80.6474C42.3754 79.7115 42.1536 78.7683 41.9537 77.8177C43.9711 77.8606 45.9738 78.1716 47.9092 78.7427Z" fill="black"/>
<path d="M47.3795 75.7813C47.9899 75.9239 48.593 76.0847 49.207 76.2674L47.4965 76.9655C47.4197 76.6 47.3503 76.2711 47.2845 75.9239L47.3795 75.7813Z" fill="black"/>
<path d="M47.2714 75.9236C47.3371 76.2886 47.4065 76.6171 47.4831 76.9638L46.0999 77.5112C46.477 76.9687 46.8675 76.4395 47.2714 75.9236Z" fill="black"/>
<path d="M47.2731 75.9202L47.2408 75.752L47.3769 75.7806L47.2731 75.9202Z" fill="black"/>
<path d="M47.2732 75.9237C46.8662 76.4429 46.475 76.9779 46.0997 77.5287L47.4853 76.9657C47.612 77.5604 47.7534 78.1526 47.9093 78.7424C45.9716 78.1707 43.9664 77.8597 41.9465 77.8175C41.7674 76.9218 41.6102 76.0188 41.4786 75.1158C43.4145 75.112 45.3447 75.3254 47.233 75.7519L47.2732 75.9237Z" fill="black"/>
<path d="M18.715 100.548C18.7179 94.5176 21.1148 88.7349 25.3791 84.4707C29.6433 80.2064 35.4261 77.8095 41.4566 77.8066C41.6211 77.8066 41.782 77.8066 41.9465 77.8066C42.1391 78.7572 42.3609 79.7005 42.612 80.6365C36.0308 80.2928 29.4935 83.0642 25.4022 88.5741C23.184 91.5517 21.8374 95.0874 21.5127 98.7862C21.188 102.485 21.8981 106.201 23.5636 109.52C25.2291 112.838 27.7845 115.628 30.9442 117.578C34.1039 119.528 37.7436 120.561 41.4566 120.562C43.4639 120.581 45.4784 120.562 47.4747 120.562H89.6893C92.7825 120.562 95.7586 120.621 98.7275 119.484C102.025 118.206 104.804 115.869 106.629 112.84C107.979 112.304 109.299 111.706 110.588 111.045C109.233 114.647 106.812 117.751 103.648 119.941C100.483 122.131 96.7261 123.305 92.8775 123.304H41.4566C35.4235 123.302 29.6386 120.903 25.3739 116.635C21.1092 112.368 18.714 106.581 18.715 100.548Z" fill="black"/>
<path d="M18.715 100.548C18.715 103.537 19.3037 106.495 20.4473 109.256C21.591 112.017 23.2672 114.525 25.3804 116.638C27.4936 118.751 30.0022 120.427 32.7631 121.57C35.524 122.713 38.4831 123.301 41.4713 123.301H92.8776C96.7261 123.301 100.483 122.128 103.648 119.937C106.812 117.747 109.233 114.644 110.588 111.042C111.756 110.449 112.895 109.811 114.007 109.126C113.147 112.793 111.361 116.179 108.821 118.96C106.281 121.741 103.07 123.824 99.4953 125.012C96.0292 126.145 92.479 126.043 88.8923 126.043H43.7637C39.1313 126.043 34.7109 125.535 30.4368 123.535C26.7607 121.77 23.5613 119.149 21.107 115.893C18.6527 112.636 17.015 108.839 16.3312 104.819C14.9893 96.4789 17.7498 87.832 23.9434 82.0186C28.7022 77.5671 34.9769 75.0938 41.4932 75.1011C41.6248 76.0042 41.782 76.9073 41.9612 77.803C41.7967 77.803 41.6358 77.803 41.4713 77.803C35.4375 77.8021 29.6505 80.1978 25.383 84.4632C21.1155 88.7287 18.717 94.5146 18.715 100.548Z" fill="black"/>
</svg>
