<svg width="150" height="150" viewBox="0 0 150 150" fill="none" xmlns="http://www.w3.org/2000/svg">
<path d="M126.749 99.5103C126.928 104.819 123.67 109.835 118.603 111.601C116.387 112.373 114.168 112.3 111.872 112.3H78.7901C77.1119 112.3 75.4301 112.318 73.7482 112.3C70.9451 112.304 68.1948 111.537 65.7974 110.085C63.4001 108.632 61.4479 106.549 60.1539 104.062C58.8599 101.576 58.2737 98.7813 58.4595 95.9844C58.6453 93.1874 59.5959 90.4952 61.2074 88.2017C65.0574 82.5967 72.176 80.5237 78.5598 82.4834C79.7846 82.849 80.9802 82.2128 81.6566 81.222C85.7771 75.1966 93.2907 71.9279 100.512 73.3429C103.809 73.9883 106.875 75.5019 109.393 77.7276C111.91 79.9534 113.788 82.8105 114.833 86.0043C114.901 86.4977 115.126 86.9561 115.474 87.3122C115.822 87.6683 116.275 87.9032 116.767 87.9823C122.255 89.1962 126.555 93.7555 126.749 99.5103Z" fill="white"/>
<path d="M124.01 85.1122C125.64 86.1639 127.091 87.4711 128.306 88.9838C127.883 89.8735 127.407 90.7367 126.88 91.5685C125.809 90.0058 124.452 88.6599 122.88 87.6019C123.315 86.7997 123.693 85.9677 124.01 85.1122Z" fill="black"/>
<path d="M109.684 59.4706C117.896 61.2365 124.514 68.048 125.208 76.5853C125.445 79.4799 125.041 82.3912 124.024 85.1116C122.651 84.2231 121.16 83.5303 119.596 83.0531C116.543 75.3751 109.757 69.3752 101.476 67.9603C97.17 67.2125 92.7424 67.632 88.6536 69.1752C84.5648 70.7184 80.9641 73.3289 78.2261 76.7352C74.9748 76.0393 71.6049 76.1228 68.392 76.9788C65.1792 77.8347 62.2145 79.4389 59.7403 81.6601C57.5319 83.6868 55.7875 86.1666 54.6264 88.9299C53.4653 91.6933 52.9149 94.6749 53.0129 97.6706C50.735 97.6706 48.4609 97.6926 46.1867 97.6706C39.9492 97.6524 33.9696 95.1792 29.5415 90.7861C25.1134 86.393 22.5929 80.4333 22.5251 74.1961C22.4574 67.9589 24.8479 61.9458 29.1795 57.4575C33.5111 52.9693 39.4355 50.3668 45.6712 50.213C48.3661 50.176 51.0492 50.5761 53.6161 51.3977C54.8337 51.7633 56.0402 51.1271 56.7129 50.1363C63.0345 40.8129 74.5991 35.8112 85.725 37.9684C90.8039 38.956 95.5255 41.2866 99.3983 44.7177C103.271 48.1488 106.154 52.555 107.746 57.4779C107.809 57.9753 108.033 58.4387 108.382 58.7982C108.732 59.1576 109.189 59.3936 109.684 59.4706Z" fill="white"/>
<path d="M124.009 85.1117C123.692 85.967 123.314 86.7988 122.879 87.6008C122.035 87.0306 121.135 86.5469 120.193 86.157C120.336 85.6488 120.318 85.1087 120.142 84.611C119.974 84.0846 119.787 83.5656 119.583 83.0539C121.146 83.5309 122.636 84.2235 124.009 85.1117Z" fill="black"/>
<path d="M120.141 84.6107C120.317 85.1084 120.335 85.6485 120.192 86.1568C119.323 85.7974 118.421 85.5232 117.498 85.338C117.233 84.4816 116.913 83.6429 116.541 82.827C117.074 82.607 117.664 82.561 118.226 82.6954C118.686 82.7978 119.136 82.9147 119.582 83.0609C119.786 83.5678 119.973 84.0844 120.141 84.6107Z" fill="black"/>
<path d="M117.498 85.3385C118.42 85.5237 119.323 85.7979 120.192 86.1574C119.538 88.3325 115.751 88.8407 114.855 86.0697L114.833 86.0039C114.741 85.3614 114.857 84.7064 115.164 84.1347C115.471 83.5631 115.954 83.1048 116.54 82.8271C116.912 83.6431 117.232 84.4819 117.498 85.3385Z" fill="black"/>
<path d="M114.854 86.0691C115.75 88.8405 119.537 88.3323 120.192 86.1568C121.134 86.5468 122.034 87.0307 122.879 87.601C124.447 88.6602 125.8 90.0061 126.868 91.568C127.395 90.7361 127.872 89.8728 128.294 88.9831C130.706 91.9756 132.083 95.6685 132.221 99.5093C132.473 107.143 127.599 114.087 120.499 116.726C117.574 117.823 114.536 117.783 111.468 117.783H75.4802C71.5497 117.783 67.8021 117.286 64.2263 115.483C61.7718 114.216 59.5937 112.474 57.8186 110.357C56.0436 108.241 54.707 105.792 53.8866 103.155H56.7677C56.1297 101.393 55.7719 99.5425 55.7074 97.6702C55.7074 97.4472 55.7074 97.2242 55.7074 97.0012C55.7074 92.2167 57.608 87.6282 60.9911 84.2451C64.3742 80.862 68.9627 78.9614 73.7471 78.9614C75.6349 78.9658 77.5107 79.2618 79.3082 79.8389C81.4183 76.6633 84.3397 74.1102 87.7694 72.4445C91.199 70.7787 95.0118 70.061 98.8124 70.3658C102.613 70.6705 106.263 71.9867 109.383 74.1777C112.503 76.3687 114.981 79.3548 116.558 82.826C115.971 83.1038 115.489 83.5621 115.181 84.1339C114.874 84.7056 114.758 85.3608 114.85 86.0033C113.805 82.8095 111.927 79.9523 109.41 77.7266C106.892 75.5009 103.827 73.9872 100.529 73.3418C93.3078 71.9269 85.7943 75.1955 81.6738 81.221C80.9974 82.2118 79.8018 82.8553 78.577 82.4824C72.2042 80.5372 65.0746 82.5957 61.2246 88.2007C59.613 90.4942 58.6625 93.1864 58.4767 95.9834C58.2909 98.7803 58.877 101.575 60.1711 104.061C61.4651 106.548 63.4173 108.631 65.8146 110.084C68.212 111.536 70.9623 112.303 73.7654 112.299C75.4472 112.317 77.1291 112.299 78.8073 112.299H111.878C114.174 112.299 116.393 112.372 118.609 111.6C123.676 109.834 126.934 104.818 126.755 99.5093C126.561 93.7544 122.261 89.1951 116.773 87.9813C116.282 87.9022 115.828 87.6673 115.48 87.3112C115.132 86.9551 114.907 86.4966 114.839 86.0033L114.854 86.0691Z" fill="black"/>
<path d="M113.041 56.1002C114.115 59.4743 108.822 60.9073 107.755 57.5624C107.755 57.5368 107.736 57.5112 107.729 57.4856C107.488 55.7748 108.888 53.7093 111.129 54.1955C111.586 54.2943 112.043 54.4076 112.496 54.5319C112.69 55.0437 112.872 55.5664 113.041 56.1002Z" fill="black"/>
<path d="M109.685 59.4711C109.189 59.3949 108.731 59.1592 108.381 58.7997C108.031 58.4402 107.807 57.9764 107.744 57.4785C107.744 57.5041 107.762 57.5297 107.769 57.5553C108.837 60.9079 114.131 59.4747 113.056 56.0929C112.888 55.5591 112.69 55.0363 112.511 54.5134C114.36 55.0181 116.146 55.7307 117.834 56.6376C126.477 61.3028 131.728 71.1486 130.631 80.925C130.32 83.7169 129.54 86.4363 128.324 88.9684C127.109 87.4556 125.658 86.1483 124.028 85.0966C125.045 82.3763 125.449 79.4651 125.212 76.5706C124.5 68.0483 117.882 61.237 109.685 59.4711Z" fill="black"/>
<path d="M80.0186 77.1931C79.419 77.0103 78.8158 76.8567 78.2125 76.7251C80.9505 73.3188 84.5512 70.7083 88.64 69.1651C92.7288 67.6219 97.1564 67.2024 101.462 67.9502C109.744 69.3651 116.53 75.365 119.582 83.043C119.136 82.9041 118.687 82.7871 118.226 82.6774C117.664 82.5429 117.075 82.5889 116.541 82.809C114.963 79.3377 112.486 76.3517 109.366 74.1607C106.246 71.9697 102.596 70.6535 98.7952 70.3487C94.9947 70.044 91.1818 70.7617 87.7522 72.4274C84.3226 74.0932 81.4012 76.6463 79.2911 79.8219C78.4715 79.555 77.6331 79.3497 76.7829 79.2076L76.9218 78.4362L80.0186 77.1931Z" fill="black"/>
<path d="M80.0179 77.1929L76.9218 78.454C77.3312 77.8545 77.7613 77.2782 78.2121 76.725C78.8153 76.8566 79.4184 77.0101 80.0179 77.1929Z" fill="black"/>
<path d="M56.7682 103.155H53.8875C53.5913 102.208 53.3689 101.24 53.2222 100.26C53.094 99.4022 53.0183 98.5379 52.9955 97.6713H55.708C55.7726 99.5433 56.1303 101.394 56.7682 103.155Z" fill="black"/>
<path d="M55.0558 46.1109L51.9597 47.3684C52.3666 46.7689 52.7895 46.1816 53.2281 45.6064C53.8422 45.7527 54.449 45.9208 55.0558 46.1109Z" fill="black"/>
<path d="M107.729 57.4787C106.137 52.5552 103.255 48.1482 99.3818 44.7164C95.5089 41.2846 90.7871 38.9535 85.7077 37.9656C74.5819 35.8084 63.0173 40.8101 56.6957 50.1334C56.023 51.1243 54.8164 51.7751 53.5989 51.3948C51.032 50.5732 48.3489 50.1732 45.654 50.2102C39.4183 50.364 33.4939 52.9664 29.1622 57.4547C24.8306 61.9429 22.4401 67.9561 22.5079 74.1932C22.5757 80.4304 25.0962 86.3902 29.5243 90.7833C33.9524 95.1764 39.932 97.6495 46.1695 97.6678C48.4437 97.6897 50.7178 97.6678 52.9956 97.6678C53.0184 98.5345 53.0941 99.399 53.2223 100.256C53.369 101.237 53.5915 102.206 53.8877 103.152H49.025C43.7893 103.152 38.7876 102.655 33.9248 100.454C25.2669 96.5344 18.821 88.1141 17.3586 78.714C15.8559 69.0653 19.1172 59.0838 26.3748 52.4515C29.9502 49.2017 34.2679 46.8782 38.9497 45.6843C43.6315 44.4904 48.5346 44.4626 53.2296 45.6034C52.7909 46.1786 52.368 46.7661 51.9609 47.3657L55.0577 46.1079C54.4508 45.9178 53.8439 45.7423 53.2296 45.6034C57.8876 39.3917 64.531 34.9612 72.0558 33.0482C79.5806 31.1353 87.5334 31.8551 94.5923 35.0881C102.943 38.8175 109.341 46.0129 112.508 54.5172C112.054 54.3929 111.597 54.2796 111.14 54.1809C108.888 53.6873 107.491 55.7676 107.729 57.4787Z" fill="black"/>
<path d="M53.0139 97.6705C52.9148 94.6728 53.4649 91.689 54.6267 88.9238C55.7885 86.1585 57.5344 83.6771 59.7447 81.6496C62.2165 79.4306 65.1779 77.8275 68.3872 76.971C71.5965 76.1145 74.9629 76.0289 78.2116 76.7212C77.7631 77.2721 77.3329 77.8485 76.921 78.4505L76.7821 79.222C75.7741 79.0451 74.7526 78.957 73.7292 78.9587C68.945 78.9587 64.3567 80.8593 60.9737 84.2423C57.5907 87.6252 55.6901 92.2136 55.6901 96.9978C55.6901 97.2209 55.6901 97.4439 55.6901 97.6669H53.0139V97.6705Z" fill="black"/>
<path d="M53.2297 45.6066C48.5346 44.4659 43.6315 44.4937 38.9497 45.6875C34.2679 46.8814 29.9502 49.205 26.3748 52.4547C19.1172 59.0871 15.8559 69.0685 17.3586 78.7173C18.8211 88.1174 25.267 96.5376 33.9249 100.457C38.7803 102.651 43.7966 103.155 49.025 103.155H53.8878" stroke="black" stroke-width="0.365621" stroke-miterlimit="10"/>
<path d="M53.2281 45.6064C53.8422 45.7527 54.449 45.9208 55.0558 46.1109L51.9597 47.3684C52.3666 46.7689 52.7895 46.1816 53.2281 45.6064Z" stroke="black" stroke-width="0.365621" stroke-miterlimit="10"/>
<path d="M112.495 54.5208C109.34 46.0165 102.942 38.8211 94.58 35.0917C87.5223 31.8616 79.5719 31.1433 72.0495 33.0561C64.5272 34.969 57.8856 39.3978 53.2282 45.607" stroke="black" stroke-width="0.365621" stroke-miterlimit="10"/>
<path d="M53.0129 97.6706C50.735 97.6706 48.4609 97.6926 46.1867 97.6706C39.9492 97.6524 33.9696 95.1792 29.5415 90.7861C25.1134 86.393 22.5929 80.4333 22.5251 74.1961C22.4574 67.9589 24.8479 61.9458 29.1795 57.4575C33.5111 52.9693 39.4355 50.3668 45.6712 50.213C48.3661 50.176 51.0492 50.5761 53.6161 51.3977C54.8337 51.7633 56.0402 51.1271 56.7129 50.1363C63.0345 40.8129 74.5991 35.8112 85.725 37.9684C90.8039 38.956 95.5254 41.2866 99.3983 44.7177C103.271 48.1488 106.154 52.555 107.746 57.4779" stroke="black" stroke-width="0.365621" stroke-miterlimit="10"/>
<path d="M107.729 57.4788C107.792 57.9767 108.016 58.4405 108.366 58.8C108.717 59.1595 109.174 59.3952 109.67 59.4714C117.882 61.2373 124.5 68.0486 125.194 76.5855C125.431 79.48 125.027 82.3912 124.01 85.1115" stroke="black" stroke-width="0.365621" stroke-miterlimit="10"/>
<path d="M128.306 88.9829C129.522 86.4509 130.302 83.7315 130.613 80.9396C131.709 71.1632 126.463 61.3174 117.816 56.6522C116.128 55.7453 114.342 55.0327 112.493 54.528" stroke="black" stroke-width="0.365621" stroke-miterlimit="10"/>
<path d="M107.729 57.4782C107.729 57.5038 107.747 57.5294 107.754 57.555C108.822 60.9073 114.115 59.4742 113.04 56.0927C112.872 55.559 112.675 55.0363 112.496 54.5135C112.042 54.3892 111.586 54.2759 111.129 54.1772C108.888 53.6873 107.491 55.7674 107.729 57.4782Z" stroke="black" stroke-width="0.365621" stroke-miterlimit="10"/>
<path d="M114.832 86.003L114.854 86.0688C115.75 88.8403 119.537 88.332 120.192 86.1566C120.335 85.6481 120.317 85.1079 120.141 84.61C119.973 84.0835 119.786 83.5643 119.581 83.0525C116.528 75.3744 109.742 69.3746 101.461 67.9596C97.1552 67.2118 92.7276 67.6314 88.6388 69.1746C84.55 70.7177 80.9493 73.3282 78.2113 76.7345C77.7628 77.2854 77.3326 77.8619 76.9207 78.4639L80.0175 77.2025C79.4178 77.0197 78.8146 76.8662 78.2113 76.7345C74.96 76.0387 71.5901 76.1222 68.3773 76.9781C65.1644 77.8341 62.1997 79.4383 59.7255 81.6595C57.5198 83.6875 55.7781 86.1679 54.6195 88.9312C53.461 91.6944 52.9129 94.6753 53.0127 97.67C53.0354 98.5367 53.1111 99.4012 53.2394 100.259C53.3861 101.24 53.6086 102.208 53.9048 103.154C54.7239 105.789 56.0581 108.235 57.8299 110.35C59.6017 112.465 61.7759 114.207 64.2263 115.476C67.7984 117.278 71.5387 117.775 75.4801 117.775H111.479C114.547 117.775 117.574 117.812 120.51 116.719C127.61 114.079 132.484 107.136 132.232 99.5018C132.094 95.661 130.717 91.968 128.305 88.9755C127.09 87.4627 125.639 86.1554 124.009 85.1036C122.636 84.2151 121.146 83.5223 119.581 83.0452C119.135 82.9062 118.686 82.7892 118.225 82.6795C117.663 82.545 117.073 82.5911 116.539 82.8112C115.953 83.0889 115.47 83.5472 115.163 84.119C114.856 84.6908 114.74 85.3459 114.832 85.9884" stroke="black" stroke-width="0.365621" stroke-miterlimit="10"/>
<path d="M114.833 86.0043C114.901 86.4977 115.126 86.9561 115.474 87.3122C115.822 87.6683 116.275 87.9032 116.767 87.9823C122.251 89.1962 126.555 93.7555 126.749 99.5103C126.928 104.819 123.67 109.835 118.603 111.601C116.387 112.373 114.168 112.3 111.872 112.3H78.7901C77.1119 112.3 75.4301 112.318 73.7482 112.3C70.9451 112.304 68.1948 111.537 65.7974 110.085C63.4001 108.632 61.4479 106.549 60.1539 104.062C58.8599 101.576 58.2737 98.7813 58.4595 95.9844C58.6453 93.1874 59.5959 90.4952 61.2074 88.2017C65.0574 82.5967 72.176 80.5237 78.5598 82.4834C79.7846 82.849 80.9802 82.2128 81.6566 81.222C85.7771 75.1966 93.2907 71.9279 100.512 73.3429C103.809 73.9883 106.875 75.5019 109.393 77.7276C111.91 79.9534 113.788 82.8105 114.833 86.0043V86.0043Z" stroke="black" stroke-width="0.365621" stroke-miterlimit="10"/>
</svg>
