<svg width="150" height="150" viewBox="0 0 150 150" fill="none" xmlns="http://www.w3.org/2000/svg">
<path d="M131.556 69.8628C135.092 69.8628 135.084 75.3468 131.556 75.3468H119.254C115.719 75.3468 115.726 69.8628 119.254 69.8628H131.556Z" fill="black"/>
<path d="M108.64 77.2336C108.789 76.1733 108.889 75.1033 108.94 74.0235C114.05 77.4589 117.832 82.5378 119.66 88.418C124.265 89.3459 128.36 91.9533 131.149 95.7332C133.938 99.5131 135.222 104.195 134.751 108.869C134.279 113.543 132.086 117.874 128.598 121.021C125.11 124.168 120.577 125.905 115.879 125.894H113.251C113.251 124.534 114.15 123.174 115.898 123.152C123.941 123.042 130.965 117.079 131.985 108.999C133.042 100.487 127.203 92.8603 118.965 91.0834C118.508 90.9566 118.092 90.714 117.756 90.379C117.42 90.044 117.177 89.6279 117.049 89.1712C115.528 84.4282 112.594 80.2631 108.64 77.2336Z" fill="black"/>
<path d="M122.408 41.2563C125.472 39.4868 128.232 44.2286 125.176 46.0091L114.522 52.1584C111.455 53.9279 108.699 49.1898 111.755 47.4239L122.408 41.2563Z" fill="black"/>
<path d="M134.8 106.962C134.8 102.6 133.293 98.3717 130.534 94.9926C127.775 91.6135 123.934 89.291 119.659 88.418C117.832 82.5379 114.05 77.459 108.939 74.0236C108.961 73.6214 108.976 73.2192 108.98 72.8133V72.7841C108.98 72.7329 108.98 72.6817 108.98 72.6305V72.6049C108.98 72.5428 108.98 72.4806 108.98 72.4185C108.98 71.87 108.947 71.3216 108.918 70.7841C114.796 74.3191 119.316 79.7273 121.751 86.1402C121.301 86.0123 120.851 85.8916 120.387 85.7929L122.303 87.7087C122.135 87.1786 121.937 86.6594 121.751 86.1402C131.78 89.025 138.668 98.9918 137.374 109.507C136.706 114.755 134.162 119.584 130.211 123.102C126.26 126.619 121.169 128.588 115.879 128.644C114.095 128.666 113.214 127.284 113.232 125.901H115.879C118.365 125.901 120.827 125.411 123.124 124.459C125.421 123.507 127.507 122.112 129.264 120.353C131.022 118.594 132.415 116.506 133.365 114.209C134.315 111.911 134.802 109.449 134.8 106.962Z" fill="black"/>
<path d="M121.751 86.1219C121.948 86.641 122.116 87.16 122.302 87.69L120.387 85.7747C120.851 85.8734 121.294 85.994 121.751 86.1219Z" fill="black"/>
<path d="M108.702 73.8646C108.866 73.537 108.961 73.179 108.98 72.8131C108.98 73.2184 108.961 73.62 108.939 74.0216L108.702 73.8646Z" fill="black"/>
<path d="M108.7 73.8656C108.104 75.0499 106.653 75.4739 105.436 75.1376C105.071 74.9512 104.738 74.7721 104.38 74.5966C104.095 74.3498 103.869 74.0433 103.717 73.699C103.565 73.3547 103.49 72.981 103.499 72.6046C103.495 72.1583 103.601 71.7178 103.806 71.3216C105.52 71.9996 107.16 72.8521 108.7 73.8656Z" fill="black"/>
<path d="M108.982 72.6297C108.982 72.6809 108.982 72.732 108.982 72.7832V72.8124C108.963 73.1787 108.869 73.5371 108.704 73.8651C107.165 72.8465 105.525 71.9891 103.81 71.3065C104.943 69.1719 108.84 69.5374 108.982 72.4031C108.982 72.4652 108.982 72.5273 108.982 72.5895V72.6297Z" fill="black"/>
<path d="M108.939 74.0234C108.888 75.1005 108.788 76.1703 108.639 77.2328C107.628 76.4522 106.558 75.7519 105.437 75.1383C106.654 75.4746 108.106 75.0505 108.701 73.8662L108.939 74.0234Z" fill="black"/>
<path d="M105.437 75.1385C110.946 78.1572 115.089 83.1707 117.016 89.1491C117.144 89.6059 117.387 90.0219 117.723 90.357C118.059 90.692 118.475 90.9346 118.932 91.0613C127.17 92.8492 133.008 100.476 131.952 108.977C130.946 117.057 123.908 123.02 115.865 123.13C114.117 123.152 113.232 124.512 113.217 125.872H67.1016C67.1016 124.508 66.2095 123.148 64.4545 123.13C55.4968 123.028 47.5044 117.061 45.1351 108.359C44.307 105.2 44.2552 101.888 44.9842 98.7044C45.7132 95.5212 47.2012 92.5615 49.3215 90.0778C50.786 88.3548 52.5361 86.8967 54.495 85.7671C59.4602 82.9043 65.2955 82.4437 70.7396 84.1255C71.9607 84.4911 73.1636 83.8549 73.8364 82.8641C79.1891 74.9886 88.9804 70.7474 98.3878 72.5902C100.124 72.931 101.818 73.4594 103.441 74.166C103.759 74.3013 104.073 74.4475 104.38 74.5974C104.687 74.7473 105.09 74.9521 105.437 75.1385Z" fill="#ECECEC"/>
<path d="M100.212 21.0303C101.978 17.9703 106.716 20.7342 104.947 23.7979L98.7973 34.4513C97.0315 37.5114 92.2934 34.7475 94.0446 31.6838L100.212 21.0303Z" fill="black"/>
<path d="M103.452 71.1824C103.395 70.1684 103.287 69.1581 103.126 68.1553C105.149 68.8123 107.091 69.694 108.917 70.7839C108.947 71.325 108.972 71.8807 108.979 72.4181C108.837 69.5518 104.94 69.1863 103.806 71.3213L103.452 71.1824Z" fill="black"/>
<path d="M103.452 71.1826L103.817 71.3213C103.612 71.7169 103.507 72.1566 103.511 72.6021C103.496 72.1241 103.478 71.6533 103.452 71.1826Z" fill="black"/>
<path d="M103.441 74.1654C103.474 73.6464 103.496 73.1238 103.499 72.6049C103.491 72.9812 103.565 73.3549 103.717 73.6992C103.869 74.0435 104.096 74.3499 104.38 74.5966C104.073 74.4468 103.744 74.3006 103.441 74.1654Z" fill="black"/>
<path d="M93.9126 69.4423C97.1715 69.4395 100.404 70.0292 103.452 71.1827C103.477 71.6543 103.496 72.126 103.499 72.6049C103.503 73.0839 103.474 73.647 103.441 74.1661C101.818 73.4595 100.124 72.9311 98.3879 72.5903C88.9804 70.7622 79.1891 74.9888 73.8364 82.8643C73.1637 83.8551 71.9608 84.5022 70.7396 84.1257C65.2955 82.4438 59.4602 82.9045 54.4951 85.7673C52.5372 86.8924 50.7873 88.3456 49.3215 90.0633C48.757 89.2931 48.2335 88.4938 47.753 87.6685C50.4017 84.8011 53.7439 82.6639 57.458 81.4626C61.1721 80.2613 65.1328 80.0364 68.959 80.8095C69.8079 80.9802 70.6466 81.1987 71.4708 81.4639C73.9293 77.7641 77.2651 74.7302 81.1809 72.6326C85.0966 70.535 89.4705 69.439 93.9126 69.4423Z" fill="black"/>
<path d="M103.451 71.1824C97.7414 69.0255 91.4691 68.8693 85.6594 70.7395C79.8497 72.6096 74.8464 76.3954 71.4674 81.478C70.6431 81.2127 69.8045 80.9943 68.9556 80.8235L69.1019 80.0923L72.1986 78.831C71.5953 78.6445 70.9884 78.4873 70.3705 78.3484C73.7312 74.0301 78.2064 70.7106 83.3141 68.7475C88.4217 66.7845 93.9682 66.2523 99.356 67.2083C100.639 67.4332 101.905 67.7496 103.144 68.1552C103.298 69.1584 103.4 70.1688 103.451 71.1824Z" fill="black"/>
<path d="M46.4295 85.1201C44.4237 80.6653 43.5222 75.7924 43.8016 70.9148C44.081 66.0373 45.5331 61.2991 48.0346 57.1026C54.4476 46.5179 67.2224 40.7959 79.3902 43.2602C85.4088 44.5038 90.9051 47.553 95.146 52.001C99.3869 56.449 102.171 62.0843 103.126 68.1553C101.894 67.7506 100.634 67.4341 99.3568 67.2083C93.9686 66.2553 88.4226 66.7905 83.3161 68.7562C78.2095 70.7219 73.7361 74.0436 70.3777 78.3634C66.1394 77.3958 61.726 77.5074 57.542 78.6878C53.3579 79.8683 49.5371 82.0799 46.4295 85.1201Z" fill="#F5C54A"/>
<path d="M76.3443 14.6501V26.9524C76.3443 30.4877 70.8604 30.4804 70.8604 26.9524V14.6501C70.8604 11.1148 76.3443 11.1185 76.3443 14.6501Z" fill="black"/>
<path d="M72.1979 78.8351L69.1017 80.0962C69.5075 79.4967 69.9352 78.9155 70.3775 78.3525C70.9879 78.4914 71.5947 78.6486 72.1979 78.8351Z" fill="black"/>
<path d="M70.3771 78.3635C69.9347 78.9265 69.507 79.5078 69.1011 80.1074L68.9549 80.8386C65.1289 80.0655 61.1682 80.2905 57.4543 81.4917C53.7403 82.693 50.3982 84.8301 47.7496 87.6974C47.2634 86.8639 46.8246 86.0047 46.4261 85.1382C49.5322 82.0943 53.3527 79.879 57.5373 78.6953C61.722 77.5117 66.1369 77.3976 70.3771 78.3635Z" fill="black"/>
<path d="M53.1456 31.6837C54.915 34.7511 50.1733 37.5077 48.3928 34.4513L42.2398 23.7978C40.4704 20.7305 45.2121 17.9739 46.9743 21.0303L53.1456 31.6837Z" fill="black"/>
<path d="M41.702 103.126C41.7005 106.115 42.2879 109.075 43.4306 111.837C44.5733 114.599 46.2489 117.109 48.3617 119.223C50.4745 121.337 52.9831 123.014 55.7442 124.159C58.5053 125.303 61.4649 125.892 64.4538 125.893H67.1008C67.1008 127.271 66.2306 128.653 64.4538 128.635C58.0312 128.591 51.8534 126.165 47.1166 121.827C38.6053 113.996 36.5798 100.94 42.1224 90.8274C42.3052 90.4947 42.488 90.162 42.6964 89.8403C42.8914 90.1913 43.0925 90.5386 43.2997 90.8822C43.6324 91.4343 43.9834 91.9791 44.3453 92.4946C42.607 95.7687 41.6993 99.4195 41.702 103.126Z" fill="black"/>
<path d="M44.3457 92.4833C45.268 90.7419 46.4134 89.1282 47.753 87.683C48.2334 88.5082 48.7569 89.3076 49.3214 90.0777C48.0581 91.5553 47.0152 93.2078 46.2248 94.9839C45.5716 94.1845 44.9452 93.3509 44.3457 92.4833Z" fill="black"/>
<path d="M46.4298 85.1199C44.9952 86.5318 43.738 88.1132 42.6858 89.8291C35.6403 77.2152 37.2015 61.2485 46.342 50.0642C55.6178 38.7117 71.7819 34.2547 85.5622 39.3076C92.0904 41.7198 97.7749 45.981 101.921 51.5707C106.068 57.1604 108.496 63.8366 108.911 70.7839C107.085 69.694 105.142 68.8122 103.119 68.1551C102.164 62.0858 99.3805 56.452 95.141 52.0048C90.9016 47.5576 85.4072 44.5084 79.3905 43.2636C67.2226 40.7994 54.4478 46.5213 48.0348 57.1061C45.534 61.3022 44.0822 66.0396 43.8028 70.9165C43.5234 75.7933 44.4245 80.6656 46.4298 85.1199Z" fill="black"/>
<path d="M46.4294 85.12C46.8279 85.9901 47.2666 86.8492 47.7529 87.6791C46.4133 89.1243 45.2678 90.738 44.3455 92.4793C43.9799 91.9529 43.6326 91.4191 43.2999 90.8671C43.0928 90.5234 42.8917 90.1761 42.6967 89.8252C43.7456 88.1113 44.9991 86.5313 46.4294 85.12Z" fill="black"/>
<path d="M44.3457 92.4837C44.938 93.3514 45.5644 94.185 46.2249 94.9845C44.3259 99.1859 43.9384 103.915 45.1281 108.369C47.4972 117.071 55.4894 123.038 64.4468 123.14C66.2017 123.158 67.0829 124.518 67.0938 125.882H64.4468C60.524 125.881 56.668 124.866 53.253 122.936C49.8381 121.005 46.9803 118.225 44.9568 114.864C42.9334 111.503 41.8132 107.677 41.7048 103.755C41.5964 99.8338 42.5036 95.9511 44.3384 92.4837H44.3457Z" fill="black"/>
<path d="M35.4527 47.4095C38.5127 49.1753 35.7451 53.9134 32.6851 52.1439L22.028 45.9946C18.9716 44.2288 21.7355 39.4907 24.7955 41.2419L35.4527 47.4095Z" fill="black"/>
<path d="M32.685 93.0614C35.7486 91.2919 38.5089 96.0301 35.4525 97.7959L24.7954 103.956C21.7317 105.726 18.9751 100.984 22.0278 99.2034L32.685 93.0614Z" fill="black"/>
<path d="M27.9537 69.8628C31.4854 69.8628 31.4817 75.3468 27.9537 75.3468H15.6478C12.1125 75.3468 12.1198 69.8628 15.6478 69.8628H27.9537Z" fill="black"/>
<path d="M68.4436 118.281C71.9713 118.281 71.9786 112.798 68.4436 112.798C64.9086 112.798 64.9086 118.281 68.4436 118.281Z" fill="black"/>
<path d="M78.6258 118.281C82.1535 118.281 82.1608 112.798 78.6258 112.798C75.0907 112.798 75.0907 118.281 78.6258 118.281Z" fill="black"/>
<path d="M88.8082 118.281C92.3359 118.281 92.3432 112.798 88.8082 112.798C85.2732 112.798 85.2732 118.281 88.8082 118.281Z" fill="black"/>
<path d="M98.9908 118.281C102.519 118.281 102.526 112.798 98.9908 112.798C95.4558 112.798 95.4558 118.281 98.9908 118.281Z" fill="black"/>
<path d="M109.17 118.281C112.697 118.281 112.705 112.798 109.17 112.798C105.635 112.798 105.635 118.281 109.17 118.281Z" fill="black"/>
<path d="M80.5085 138.968C84.0363 138.968 84.0436 133.485 80.5085 133.485C76.9735 133.485 76.9735 138.968 80.5085 138.968Z" fill="black"/>
<path d="M90.6915 138.968C94.2192 138.968 94.2265 133.485 90.6915 133.485C87.1564 133.485 87.1564 138.968 90.6915 138.968Z" fill="black"/>
<path d="M100.874 138.968C104.402 138.968 104.409 133.485 100.874 133.485C97.3391 133.485 97.3391 138.968 100.874 138.968Z" fill="black"/>
<path d="M111.057 138.968C114.584 138.968 114.592 133.485 111.057 133.485C107.521 133.485 107.521 138.968 111.057 138.968Z" fill="black"/>
<path d="M121.235 138.968C124.763 138.968 124.77 133.485 121.235 133.485C117.7 133.485 117.7 138.968 121.235 138.968Z" fill="black"/>
<path d="M74.0226 128.624C77.5504 128.624 77.5577 123.141 74.0226 123.141C70.4876 123.141 70.4876 128.624 74.0226 128.624Z" fill="black"/>
<path d="M84.8998 128.624C88.4275 128.624 88.4348 123.141 84.8998 123.141C81.3647 123.141 81.3647 128.624 84.8998 128.624Z" fill="black"/>
<path d="M95.7804 128.624C99.3081 128.624 99.3154 123.141 95.7804 123.141C92.2454 123.141 92.2454 128.624 95.7804 128.624Z" fill="black"/>
<path d="M106.669 128.624C110.196 128.624 110.204 123.141 106.669 123.141C103.134 123.141 103.134 128.624 106.669 128.624Z" fill="black"/>
</svg>
