<svg width="150" height="150" viewBox="0 0 150 150" fill="none" xmlns="http://www.w3.org/2000/svg">
<path d="M123.3 85.7072C119.817 86.6057 116.243 87.105 112.646 87.1953C114.195 89.4328 115.311 91.9401 115.937 94.5881C118.768 91.9619 121.244 88.9762 123.3 85.7072Z" fill="#FFE297"/>
<path d="M117.758 42.7139C117.506 42.7719 117.261 42.8552 117.027 42.9625C116.793 43.0466 116.562 43.138 116.332 43.2293C116.341 43.7858 116.538 44.323 116.889 44.7546C117.24 45.1862 117.727 45.4872 118.27 45.6093C117.045 45.2766 119.801 42.4689 117.758 42.7139Z" fill="black"/>
<path d="M116.324 43.2258C115.933 43.383 115.546 43.5438 115.162 43.7192C114.921 43.8289 114.69 43.9495 114.46 44.0847C115.671 44.7266 116.944 45.2411 118.261 45.6198C117.716 45.4972 117.228 45.1941 116.876 44.7596C116.525 44.3251 116.33 43.7847 116.324 43.2258Z" fill="black"/>
<path d="M116.324 43.2253C116.555 43.134 116.785 43.0426 117.019 42.9585C117.254 42.8512 117.499 42.7679 117.75 42.7099C119.794 42.465 117.019 45.2689 118.255 45.6015C121.654 46.5739 123.106 41.2842 119.717 40.3154C117.615 39.7488 116.255 41.551 116.324 43.2253Z" fill="black"/>
<path d="M66.9327 20.8717C66.0733 22.9386 65.3635 25.0645 64.8086 27.233C66.772 25.9903 68.8292 24.9024 70.9615 23.9792L66.9327 20.8717Z" fill="black"/>
<path d="M126.551 79.5574C125.629 81.6876 124.543 83.7435 123.305 85.7067C125.463 85.1506 127.58 84.4407 129.637 83.5826L126.551 79.5574Z" fill="black"/>
<path d="M115.937 94.5883C115.169 95.2975 114.378 95.9775 113.564 96.6282C113.905 98.9186 113.821 101.252 113.316 103.512C114.374 102.825 115.403 102.094 116.405 101.319C116.615 99.0646 116.457 96.7915 115.937 94.5883Z" fill="black"/>
<path d="M128.174 78.2923C130.664 77.254 132.075 80.4604 131.271 82.314C128.003 89.8115 122.881 96.354 116.387 101.326C116.598 99.0693 116.441 96.7936 115.923 94.5875C118.754 91.9631 121.23 88.9786 123.286 85.7105C125.451 85.1526 127.573 84.4415 129.637 83.5827C128.606 82.2421 127.573 80.9015 126.54 79.561L126.339 79.0199C126.963 78.7932 127.574 78.5507 128.174 78.2923Z" fill="black"/>
<path d="M126.345 79.0126L126.546 79.5537C125.625 81.6856 124.54 83.7428 123.3 85.7067C119.815 86.6034 116.24 87.1026 112.643 87.1947C111.094 84.9437 109.141 82.9988 106.885 81.4585C113.473 82.1328 120.128 81.2963 126.345 79.0126Z" fill="black"/>
<path d="M119.717 40.315C120.626 40.5709 121.411 41.1466 121.929 41.936C122.447 42.7254 122.663 43.6753 122.536 44.6109C122.276 46.5377 120.905 47.4115 119.216 48.0001C115.761 49.1993 112.979 51.4039 111.249 54.6615C110.518 56.0216 110.361 57.7509 109.344 58.9245C108.802 59.5365 108.08 59.9621 107.282 60.1406C106.484 60.3191 105.65 60.2416 104.899 59.9189C103.071 59.1402 102.829 57.5352 102.179 55.8973C101.663 54.585 100.939 53.3641 100.036 52.2814C98.9849 51.0324 97.7211 49.9791 96.3032 49.1701C95.0309 48.4388 93.5758 48.2195 92.3144 47.5212C91.5432 47.0977 90.9366 46.4274 90.5918 45.6179C90.2471 44.8084 90.1842 43.9066 90.4132 43.0571C90.8702 41.3972 92.1352 40.6916 93.6416 40.1907C96.5714 39.2699 99.1043 37.3864 100.829 34.8455C102.456 32.3594 102.723 27.7966 106.591 27.9502C110.211 28.0891 110.452 32.4362 112.028 34.8455C113.848 37.5344 116.572 39.4805 119.706 40.3297C117.6 39.763 116.24 41.5618 116.313 43.2545C115.922 43.4081 115.531 43.5726 115.15 43.7444C114.909 43.8541 114.679 43.9748 114.445 44.11C111.03 42.3116 108.237 39.525 106.431 36.1142C106.777 35.4347 107.088 34.738 107.363 34.0266C107.542 33.5659 107.94 32.8128 107.937 32.2972H104.899C104.946 32.4654 104.997 32.6336 105.045 32.8018C105.14 33.2252 105.283 33.6363 105.473 34.0266C105.75 34.7408 106.07 35.4379 106.431 36.1142C106.2 36.5602 105.959 36.999 105.699 37.4267C104.302 39.6109 102.487 41.4971 100.358 42.9767C99.7441 43.4075 99.1002 43.7936 98.431 44.132C97.518 43.654 96.5695 43.2469 95.5939 42.9145C95.2755 42.7679 94.9384 42.6658 94.5921 42.6111V44.1283C94.1047 45.3665 94.1887 45.854 94.8444 45.5908C95.3489 45.5908 96.0875 45.1849 96.5664 44.9948C97.1989 44.7389 97.8241 44.4574 98.431 44.1466C99.9033 44.9186 101.271 45.8757 102.5 46.9947C104.097 48.4571 105.422 50.1899 106.416 52.1132C105.853 53.1333 105.202 54.3654 105.052 55.4658C104.924 56.3872 104.27 55.9667 106.427 55.9667C108.2 55.9667 108.079 56.3323 107.721 55.2355C107.483 54.5172 107.207 53.8119 106.895 53.1223C106.749 52.7859 106.584 52.4569 106.416 52.1315L106.632 51.7366C107.86 49.5233 109.526 47.5829 111.527 46.0331C112.442 45.3126 113.421 44.6775 114.452 44.1356C115.664 44.7787 116.939 45.2933 118.258 45.6712C121.658 46.5779 123.11 41.2875 119.717 40.315Z" fill="black"/>
<path d="M116.401 101.323C116.379 101.524 116.364 101.721 116.342 101.919C115.675 107.167 113.13 111.996 109.178 115.514C105.227 119.032 100.135 121 94.8447 121.055C93.0642 121.08 92.1831 119.698 92.1977 118.313H94.8447C99.1467 118.312 103.32 116.846 106.677 114.156C110.034 111.465 112.374 107.711 113.312 103.513C114.369 102.823 115.399 102.093 116.401 101.323Z" fill="black"/>
<path d="M112.643 87.1955C114.192 89.4328 115.308 91.9404 115.934 94.5885C115.166 95.2978 114.374 95.9791 113.557 96.6324C113.046 93.1344 111.559 89.8513 109.268 87.1589C110.395 87.1955 111.521 87.2211 112.643 87.1955Z" fill="black"/>
<path d="M113.55 96.6284C113.687 97.5446 113.755 98.4698 113.754 99.3962C113.753 100.781 113.601 102.161 113.301 103.513C112.16 104.244 110.99 104.946 109.791 105.586C110.352 104.256 110.728 102.855 110.906 101.422C111.026 100.452 111.057 99.4725 110.998 98.4968C111.88 97.9093 112.731 97.2865 113.55 96.6284Z" fill="black"/>
<path d="M109.272 87.1552C111.559 89.8488 113.041 93.1317 113.549 96.6283C112.723 97.2864 111.87 97.9129 110.99 98.5076C110.846 96.2189 110.217 93.9869 109.145 91.9593C108.074 89.9317 106.584 88.1546 104.775 86.7457C106.274 86.9505 107.773 87.087 109.272 87.1552Z" fill="black"/>
<path d="M112.642 87.1948C111.52 87.224 110.394 87.1948 109.271 87.1582C106.529 83.9238 102.78 81.7041 98.625 80.8554C98.5007 80.4496 98.3655 80.0511 98.2192 79.6562C101.038 80.5517 103.942 81.1556 106.884 81.4586C109.141 82.999 111.093 84.9438 112.642 87.1948Z" fill="black"/>
<path d="M114.455 44.0516C113.424 44.5934 112.445 45.2285 111.53 45.949C109.529 47.4987 107.863 49.4391 106.635 51.6523L106.419 52.0471C105.425 50.1239 104.1 48.3912 102.504 46.9288C101.274 45.8099 99.9068 44.8528 98.4346 44.0808C99.1037 43.7425 99.7476 43.3564 100.361 42.9255C102.49 41.446 104.306 39.5599 105.703 37.3758C105.969 36.948 106.211 36.5093 106.434 36.0633C108.243 39.4723 111.039 42.2563 114.455 44.0516Z" fill="white"/>
<path d="M111.009 98.5076C111.068 99.4833 111.037 100.462 110.917 101.433C110.738 102.865 110.363 104.267 109.802 105.597C108.541 108.529 106.457 111.033 103.802 112.805C101.148 114.577 98.0361 115.542 94.8444 115.582C93.0968 115.608 92.2156 116.968 92.1973 118.324H46.0669C46.0669 116.964 45.1748 115.604 43.4199 115.582C34.4621 115.483 26.4697 109.516 24.1041 100.811C22.9745 96.5358 23.2799 92.0079 24.9736 87.9231C26.6672 83.8383 29.6553 80.4227 33.4786 78.201C35.7793 76.8773 38.3261 76.0374 40.9629 75.7331C42.9221 75.504 44.9039 75.5533 46.8494 75.8793C47.8215 76.0414 48.7815 76.2686 49.7232 76.5594C50.9443 76.925 52.1472 76.2888 52.82 75.298C54.8416 72.3481 57.4812 69.8735 60.5554 68.0463C63.6296 66.2191 67.0646 65.083 70.622 64.7169C72.8747 64.487 75.1489 64.5905 77.3714 65.024L77.4774 65.046C81.1799 65.7881 84.661 67.3753 87.6493 69.6837C90.6376 71.9922 93.0524 74.9596 94.7055 78.3546C95.2142 79.3969 95.6468 80.4746 95.9998 81.5794C96.1265 82.037 96.3696 82.4539 96.7054 82.7897C97.0411 83.1254 97.4581 83.3685 97.9156 83.4952C100.433 84.0399 102.792 85.1515 104.815 86.7456C106.62 88.1566 108.106 89.9346 109.174 91.9621C110.241 93.9896 110.867 96.2206 111.009 98.5076Z" fill="white"/>
<path d="M109.802 105.586C111.001 104.946 112.171 104.252 113.311 103.513C112.374 107.712 110.034 111.465 106.677 114.156C103.32 116.846 99.1465 118.312 94.8445 118.313H92.1975C92.2158 116.956 93.0969 115.596 94.8445 115.571C98.036 115.531 101.147 114.566 103.802 112.794C106.457 111.022 108.541 108.518 109.802 105.586Z" fill="black"/>
<path d="M107.948 32.2534C107.948 32.7688 107.553 33.5217 107.374 33.9823C107.099 34.6934 106.788 35.39 106.442 36.0693C106.082 35.3932 105.762 34.6963 105.484 33.9823C105.295 33.5921 105.151 33.1812 105.057 32.7578C105.009 32.5897 104.958 32.4215 104.911 32.2534H107.948Z" fill="black"/>
<path d="M107.724 55.1659C108.09 56.2844 108.203 55.8969 106.43 55.8969C104.274 55.8969 104.928 56.3173 105.056 55.3962C105.206 54.2997 105.857 53.0643 106.42 52.0445C106.588 52.3698 106.752 52.6988 106.898 53.035C107.211 53.7304 107.486 54.4417 107.724 55.1659Z" fill="black"/>
<path d="M109.271 87.1544C107.772 87.0886 106.28 86.9521 104.796 86.7449C102.773 85.151 100.414 84.0394 97.8972 83.4948C97.4396 83.368 97.0227 83.125 96.687 82.7893C96.3512 82.4535 96.1082 82.0366 95.9815 81.579C95.6285 80.4744 95.1959 79.3967 94.6873 78.3545C95.8462 78.8407 97.0271 79.2721 98.2189 79.6524C98.3651 80.0472 98.5004 80.4457 98.6247 80.8515C102.779 81.7003 106.529 83.9199 109.271 87.1544Z" fill="black"/>
<path d="M100.715 78.5551C102.912 79.189 104.993 80.1676 106.883 81.4544C103.941 81.1514 101.037 80.5474 98.2181 79.6519C96.4753 74.8422 93.3998 70.6276 89.351 67.5007C85.3021 64.3737 80.447 62.4635 75.3529 61.9931C74.7777 61.0766 74.2403 60.1431 73.7406 59.1925C75.272 59.2252 76.7987 59.3756 78.307 59.6422C88.5916 61.4483 97.0445 68.9286 100.715 78.5551C100.269 78.4272 99.8158 78.3065 99.3551 78.2078L101.271 80.1236C101.117 79.5934 100.913 79.0743 100.715 78.5551Z" fill="black"/>
<path d="M101.272 80.1237L99.3567 78.2085C99.8172 78.3072 100.27 78.4278 100.716 78.5557C100.914 79.0747 101.118 79.5938 101.272 80.1237Z" fill="black"/>
<path d="M98.4338 44.0882C97.8271 44.3989 97.202 44.6804 96.5697 44.9362C96.0909 45.1263 95.3525 45.5466 94.8481 45.532C94.1926 45.8074 94.1086 45.32 94.5959 44.0699V42.5531C94.9421 42.6078 95.2791 42.7098 95.5974 42.8564C96.5732 43.1935 97.5214 43.6053 98.4338 44.0882Z" fill="black"/>
<path d="M98.2184 79.6517C97.0265 79.2861 95.8456 78.8401 94.6866 78.3538C93.0335 74.9589 90.6188 71.9916 87.6306 69.6833C84.6424 67.3749 81.1614 65.7878 77.4591 65.0457C76.7096 64.0512 75.9967 63.0348 75.3532 61.9929C80.4473 62.4633 85.3024 64.3735 89.3512 67.5005C93.4001 70.6274 96.4756 74.842 98.2184 79.6517Z" fill="black"/>
<path d="M77.458 65.0456L77.352 65.0237C75.1298 64.5902 72.8558 64.4867 70.6034 64.7166C70.0806 63.8721 69.5907 63.013 69.1228 62.1576C70.3667 61.9829 71.6212 61.895 72.8773 61.8943C73.7108 61.8943 74.537 61.9382 75.3523 62.0113C76.003 63.035 76.7086 64.0513 77.458 65.0456Z" fill="black"/>
<path d="M73.7402 59.1923C74.2423 60.1428 74.7797 61.0763 75.3524 61.9927C74.5372 61.9196 73.7109 61.8757 72.8774 61.8757C71.6213 61.8763 70.3667 61.9643 69.1228 62.139C68.6816 61.3176 68.2648 60.484 67.8724 59.6383C69.8087 59.2949 71.7743 59.1455 73.7402 59.1923Z" fill="black"/>
<path d="M73.7401 59.1911C71.7802 59.1455 69.8206 59.2949 67.8903 59.6372C63.1554 49.5149 62.0665 38.0667 64.8082 27.2333C66.7719 25.991 68.8292 24.903 70.9614 23.9794L71.4989 24.1805C69.4097 29.8497 68.5299 35.8933 68.9158 41.9229C69.3018 47.9525 70.9451 53.8346 73.7401 59.1911Z" fill="black"/>
<path d="M68.1905 19.23C70.0696 18.4184 73.2649 19.826 72.212 22.3266C71.9561 22.9371 71.7185 23.5477 71.4808 24.1546L70.9434 23.9535L66.9219 20.8569L66.5051 19.9868C67.0681 19.7272 67.6275 19.475 68.1905 19.23Z" fill="black"/>
<path d="M69.1221 62.1394C69.5901 63.0132 70.08 63.8724 70.6028 64.6987C67.0455 65.0648 63.6105 66.2008 60.5365 68.028C57.4624 69.8551 54.8229 72.3296 52.8013 75.2794C52.1286 76.2702 50.9258 76.9137 49.7046 76.5407C48.763 76.25 47.803 76.0228 46.8309 75.8607C46.5275 74.8992 46.2569 73.923 46.0229 72.9358C47.5217 73.1081 48.9998 73.4277 50.4358 73.8901C52.5442 70.7231 55.2995 68.0385 58.5203 66.0132C61.7411 63.9878 65.3543 62.6676 69.1221 62.1394Z" fill="black"/>
<path d="M67.8717 59.6383C68.2617 60.4841 68.6785 61.3177 69.1221 62.1391C65.3524 62.6699 61.7381 63.9934 58.5172 66.0226C55.2963 68.0519 52.542 70.7406 50.4358 73.9117C48.9998 73.4493 47.5217 73.1297 46.0229 72.9574C45.8036 72.0471 45.6134 71.1294 45.4526 70.2008C46.7623 70.2963 48.0628 70.4919 49.3426 70.7857C48.9003 71.3488 48.4725 71.9301 48.0667 72.5297L51.1634 71.2683C50.5601 71.0819 49.9532 70.9247 49.3353 70.7857C53.927 64.91 60.5291 60.9397 67.8717 59.6383Z" fill="black"/>
<path d="M66.5162 19.9978L66.933 20.868C66.0722 22.9357 65.3623 25.0631 64.8087 27.2334C55.7374 32.9096 49.1243 41.781 46.2754 52.0956C44.6854 58.0016 44.4084 64.1841 45.4637 70.2085C43.5885 70.0745 41.7043 70.1443 39.8442 70.4169C38.3107 60.2639 40.0761 49.8868 44.8806 40.812C49.6852 31.7373 57.2754 24.444 66.5345 20.0051L66.5162 19.9978Z" fill="black"/>
<path d="M64.8085 27.2335C62.0574 38.0698 63.1399 49.5241 67.8724 59.6531C60.5322 60.9562 53.9327 64.9265 49.3427 70.8009C48.0628 70.5071 46.7622 70.3115 45.4525 70.2159C44.3996 64.1883 44.6804 58.0032 46.2751 52.0957C49.124 41.7811 55.7371 32.9097 64.8085 27.2335Z" fill="#FFE297"/>
<path d="M51.1632 71.2689L48.067 72.53C48.4728 71.9305 48.9005 71.3493 49.3428 70.7864C49.9532 70.9253 50.56 71.0825 51.1632 71.2689Z" fill="black"/>
<path d="M46.0222 72.9581C46.2562 73.9415 46.5267 74.9176 46.8302 75.8828C44.8849 75.5567 42.9032 75.5075 40.9442 75.7366C40.7004 74.8396 40.4847 73.9366 40.2971 73.0275C41.3317 72.8854 42.3748 72.8134 43.4192 72.8118C44.289 72.8106 45.1581 72.8594 46.0222 72.9581Z" fill="black"/>
<path d="M46.067 118.313C46.067 119.695 45.2005 121.077 43.4199 121.055C36.9982 121.014 30.8207 118.589 26.0858 114.251C17.5705 106.42 15.5633 93.3632 21.0878 83.2501C23.0066 79.806 25.698 76.8538 28.9507 74.6258C32.2033 72.3977 35.9285 70.9545 39.8332 70.4095C39.9648 71.2834 40.1184 72.1572 40.2975 73.0237C34.5893 73.8154 29.3941 76.7437 25.7611 81.2173C22.1281 85.6908 20.3281 91.3763 20.7245 97.1255C21.1208 102.875 23.6841 108.259 27.8966 112.192C32.1091 116.125 37.657 118.312 43.4199 118.313H46.067Z" fill="black"/>
<path d="M46.0671 118.313H43.42C37.6571 118.312 32.1092 116.125 27.8967 112.192C23.6841 108.26 21.1209 102.875 20.7245 97.1256C20.3281 91.3763 22.1282 85.6909 25.7612 81.2173C29.3941 76.7438 34.5893 73.8155 40.2976 73.0238C40.4877 73.9354 40.7034 74.8385 40.9447 75.7331C38.3142 76.0398 35.7739 76.8796 33.4787 78.201C29.6609 80.4248 26.6781 83.8398 24.988 87.9221C23.2979 92.0043 22.9939 96.5283 24.1225 100.8C26.4881 109.505 34.4805 115.472 43.4383 115.571C45.1786 115.593 46.0561 116.953 46.0671 118.313Z" fill="black"/>
<path d="M45.4521 70.2013C45.6129 71.1262 45.8177 72.0475 46.0224 72.9578C45.1583 72.858 44.2892 72.8079 43.4194 72.8079C42.375 72.8095 41.3319 72.8816 40.2972 73.0236C40.1181 72.1572 39.9646 71.2834 39.8329 70.4096C41.6929 70.1371 43.577 70.0672 45.4521 70.2013Z" fill="black"/>
<path d="M47.4087 110.715C50.9364 110.715 50.9437 105.231 47.4087 105.231C43.8736 105.231 43.8736 110.715 47.4087 110.715Z" fill="black"/>
<path d="M57.6092 110.715C61.1369 110.715 61.1442 105.231 57.6092 105.231C54.0742 105.231 54.0742 110.715 57.6092 110.715Z" fill="black"/>
<path d="M67.7735 110.715C71.3012 110.715 71.3085 105.231 67.7735 105.231C64.2384 105.231 64.2384 110.715 67.7735 110.715Z" fill="black"/>
<path d="M77.9558 110.715C81.4836 110.715 81.4909 105.231 77.9558 105.231C74.4208 105.231 74.4208 110.715 77.9558 110.715Z" fill="black"/>
<path d="M88.1388 110.715C91.6665 110.715 91.6738 105.231 88.1388 105.231C84.6037 105.231 84.6037 110.715 88.1388 110.715Z" fill="black"/>
<path d="M59.4773 131.402C63.005 131.402 63.0123 125.918 59.4773 125.918C55.9423 125.918 55.9423 131.402 59.4773 131.402Z" fill="black"/>
<path d="M69.6746 131.402C73.2024 131.402 73.2097 125.918 69.6746 125.918C66.1396 125.918 66.1396 131.402 69.6746 131.402Z" fill="black"/>
<path d="M79.8386 131.402C83.3664 131.402 83.3737 125.918 79.8386 125.918C76.3036 125.918 76.3036 131.402 79.8386 131.402Z" fill="black"/>
<path d="M90.0213 131.402C93.549 131.402 93.5563 125.918 90.0213 125.918C86.4862 125.918 86.4862 131.402 90.0213 131.402Z" fill="black"/>
<path d="M100.204 131.402C103.732 131.402 103.739 125.918 100.204 125.918C96.6692 125.918 96.6692 131.402 100.204 131.402Z" fill="black"/>
<path d="M52.9876 121.058C56.5154 121.058 56.5227 115.575 52.9876 115.575C49.4526 115.575 49.4526 121.058 52.9876 121.058Z" fill="black"/>
<path d="M63.8686 121.058C67.3963 121.058 67.4036 115.575 63.8686 115.575C60.3335 115.575 60.3335 121.058 63.8686 121.058Z" fill="black"/>
<path d="M74.7459 121.058C78.2737 121.058 78.281 115.575 74.7459 115.575C71.2109 115.575 71.2109 121.058 74.7459 121.058Z" fill="black"/>
<path d="M85.6268 121.058C89.1545 121.058 89.1618 115.575 85.6268 115.575C82.0918 115.575 82.0918 121.058 85.6268 121.058Z" fill="black"/>
</svg>
