<svg width="150" height="150" viewBox="0 0 150 150" fill="none" xmlns="http://www.w3.org/2000/svg">
<path d="M118.931 90.0638C127.169 91.8481 133.008 99.4749 131.951 107.979C130.946 116.056 123.907 122.023 115.864 122.129C114.116 122.151 113.231 123.511 113.217 124.871H67.1009C67.1009 123.511 66.2087 122.147 64.4538 122.129C55.4961 122.03 47.5036 116.059 45.1344 107.358C43.9449 102.903 44.3325 98.174 46.2312 93.9723C47.0234 92.197 48.0663 90.5446 49.328 89.0657C50.7935 87.3437 52.5434 85.8857 54.5016 84.755C59.4667 81.8922 65.302 81.4352 70.7461 83.1134C71.9673 83.479 73.1702 82.8428 73.8429 81.852C79.1956 73.9802 88.9869 69.739 98.3943 71.578C100.131 71.9188 101.825 72.4472 103.447 73.1539C103.765 73.2928 104.08 73.4354 104.387 73.5853C104.694 73.7352 105.096 73.9509 105.444 74.1301C110.955 77.1437 115.099 82.1573 117.023 88.137C117.148 88.5954 117.389 89.0137 117.724 89.3513C118.058 89.6889 118.474 89.9344 118.931 90.0638ZM103.21 123.518C104.529 123.153 105.659 121.536 105.125 120.147L102.416 113.127C101.886 111.745 100.588 110.791 99.0452 111.211C97.7216 111.577 96.5955 113.193 97.1293 114.582L99.8239 121.602C100.354 122.999 101.67 123.939 103.199 123.518H103.21ZM89.316 123.518C90.6359 123.153 91.7656 121.536 91.2318 120.147L88.5372 113.127C88.0071 111.745 86.7091 110.791 85.1662 111.211C83.8426 111.577 82.7165 113.193 83.2503 114.582L85.945 121.602C86.4751 122.999 87.7913 123.939 89.3196 123.518H89.316ZM75.4224 123.518C76.7423 123.153 77.8684 121.536 77.3346 120.147C76.44 117.807 75.5418 115.467 74.64 113.127C74.1098 111.745 72.8119 110.791 71.2653 111.211C69.9454 111.577 68.8193 113.193 69.3531 114.582C70.2476 116.922 71.1458 119.262 72.0477 121.602C72.5961 122.999 73.9124 123.939 75.4407 123.518H75.4224Z" fill="#ECECEC"/>
<path d="M131.555 68.8614C135.09 68.8614 135.083 74.3453 131.555 74.3453H119.253C115.717 74.3453 115.725 68.8614 119.253 68.8614H131.555Z" fill="black"/>
<path d="M108.939 73.0259C114.05 76.4596 117.833 81.5391 119.659 87.4204C124.255 88.356 128.34 90.9653 131.121 94.7421C133.902 98.519 135.181 103.194 134.71 107.861C134.239 112.527 132.051 116.853 128.572 119.998C125.092 123.143 120.569 124.883 115.878 124.882H113.249C113.249 123.522 114.149 122.162 115.896 122.14C123.94 122.034 130.964 116.067 131.984 107.99C133.04 99.4749 127.201 91.848 118.964 90.0748C118.507 89.9474 118.09 89.7041 117.755 89.3685C117.419 89.0328 117.176 88.6162 117.048 88.1589C115.532 83.4282 112.61 79.2718 108.672 76.2433C108.799 75.1757 108.888 74.1032 108.939 73.0259Z" fill="black"/>
<path d="M122.407 40.2588C125.471 38.4894 128.231 43.2311 125.175 45.0116L114.522 51.1646C111.454 52.9341 108.698 48.1923 111.754 46.4301L122.407 40.2588Z" fill="black"/>
<path d="M121.75 85.1241C131.779 88.0052 138.667 97.9721 137.373 108.487C136.706 113.735 134.161 118.564 130.21 122.082C126.259 125.6 121.168 127.568 115.878 127.624C114.094 127.646 113.213 126.264 113.231 124.882H115.878C120.568 124.883 125.092 123.143 128.572 119.998C132.051 116.853 134.239 112.527 134.71 107.861C135.181 103.194 133.901 98.5189 131.12 94.742C128.339 90.9651 124.255 88.3558 119.659 87.4202C117.833 81.539 114.05 76.4595 108.939 73.0257C108.96 72.6236 108.975 72.2177 108.979 71.8119V71.7826C108.979 71.7314 108.979 71.6803 108.979 71.6291V71.6035C108.979 71.5413 108.979 71.4792 108.979 71.417C108.979 70.8686 108.946 70.3201 108.917 69.7827C114.795 73.318 119.315 78.7262 121.75 85.1388C121.3 85.0071 120.85 84.8901 120.386 84.7731L122.302 86.689C122.134 86.1625 121.947 85.6397 121.75 85.1241Z" fill="black"/>
<path d="M121.75 85.124C121.947 85.6394 122.115 86.162 122.302 86.6884L120.386 84.7731C120.85 84.8755 121.293 84.9924 121.75 85.124Z" fill="black"/>
<path d="M111.133 135.825C111.666 137.214 110.54 138.834 109.22 139.196C107.692 139.616 106.376 138.666 105.846 137.283C104.946 134.944 104.048 132.602 103.151 130.26C102.617 128.871 103.743 127.251 105.063 126.889C106.592 126.469 107.908 127.423 108.438 128.805C109.337 131.145 110.236 133.485 111.133 135.825Z" fill="#2DB0FC"/>
<path d="M108.979 71.7797C108.979 71.7295 108.979 71.6792 108.979 71.6289C108.982 71.6792 108.982 71.7295 108.979 71.7797Z" fill="black"/>
<path d="M108.701 72.8669C108.865 72.5378 108.959 72.1787 108.978 71.8118C108.978 72.217 108.96 72.6223 108.938 73.0239C108.862 72.9691 108.781 72.9071 108.701 72.8669Z" fill="black"/>
<path d="M108.699 72.8679C108.104 74.0485 106.653 74.4725 105.435 74.1398C105.07 73.9498 104.737 73.7743 104.379 73.5952C104.093 73.3496 103.866 73.0433 103.714 72.6987C103.561 72.3541 103.488 71.9798 103.498 71.6032C103.494 71.158 103.6 70.7188 103.805 70.3239C105.521 70.9989 107.161 71.8515 108.699 72.8679Z" fill="black"/>
<path d="M103.805 70.3234C104.939 68.1887 108.835 68.5543 108.978 71.4199C108.978 71.482 108.978 71.5442 108.978 71.6063V71.6319C108.978 71.6831 108.978 71.7343 108.978 71.7854V71.811C108.958 72.1784 108.863 72.5379 108.7 72.8674C107.161 71.851 105.521 70.9984 103.805 70.3234Z" fill="black"/>
<path d="M105.436 74.1405C106.653 74.4732 108.104 74.0492 108.7 72.8685C108.781 72.9196 108.861 72.9708 108.938 73.0256C108.887 74.1052 108.787 75.1738 108.638 76.2314C107.627 75.4519 106.556 74.7528 105.436 74.1405Z" fill="black"/>
<path d="M105.114 120.147C105.648 121.536 104.518 123.156 103.198 123.518C101.67 123.938 100.354 122.984 99.8237 121.602L97.1291 114.59C96.5953 113.2 97.7214 111.581 99.0449 111.219C100.573 110.798 101.886 111.752 102.416 113.134L105.114 120.147Z" fill="#2DB0FC"/>
<path d="M100.211 20.0287C101.977 16.9687 106.715 19.7363 104.946 22.7963L98.7964 33.4534C97.0306 36.5098 92.2925 33.7459 94.0437 30.6859L100.211 20.0287Z" fill="black"/>
<path d="M103.451 70.181C103.394 69.1671 103.285 68.1568 103.125 67.1539C105.147 67.8125 107.089 68.6942 108.916 69.7826C108.945 70.3236 108.971 70.8793 108.978 71.4167C108.836 68.5542 104.939 68.1886 103.805 70.32L103.451 70.181Z" fill="black"/>
<path d="M103.805 70.3235C103.6 70.7177 103.495 71.1563 103.498 71.6006C103.498 71.1263 103.477 70.6519 103.451 70.1812L103.805 70.3235Z" fill="black"/>
<path d="M103.498 71.6035C103.488 71.9801 103.561 72.3543 103.714 72.6989C103.866 73.0435 104.094 73.3497 104.379 73.5953C104.072 73.4455 103.758 73.3029 103.44 73.1641C103.473 72.6451 103.495 72.1261 103.498 71.6035Z" fill="black"/>
<path d="M64.4537 79.373C65.9626 79.3722 67.4679 79.5216 68.9472 79.8191C69.7991 79.9889 70.6402 80.2086 71.4663 80.4772C74.8463 75.3954 79.8496 71.6099 85.659 69.7392C91.4685 67.8684 97.7406 68.023 103.451 70.1777C103.476 70.6493 103.495 71.1246 103.498 71.5999C103.502 72.0752 103.473 72.642 103.44 73.1611C101.818 72.4545 100.123 71.9261 98.387 71.5853C88.9795 69.7572 79.1882 73.9874 73.8355 81.8593C73.1628 82.8501 71.9599 83.4972 70.7387 83.1206C65.2946 81.4424 59.4593 81.8995 54.4942 84.7623C52.536 85.893 50.7861 87.351 49.3206 89.073C48.7553 88.3033 48.2317 87.5039 47.7521 86.6781C49.8788 84.3709 52.4613 82.5302 55.3362 81.2728C58.2112 80.0153 61.3158 79.3684 64.4537 79.373Z" fill="black"/>
<path d="M93.9107 68.4445C89.4668 68.4422 85.0914 69.5401 81.175 71.6402C77.2587 73.7404 73.9231 76.7774 71.4661 80.4803C70.64 80.2117 69.7989 79.992 68.947 79.8222L69.1006 79.091L72.1973 77.8333C71.594 77.6468 70.9871 77.4896 70.3692 77.347C73.7307 73.0297 78.206 69.7109 83.3134 67.7479C88.4209 65.7849 93.967 65.2522 99.3547 66.2069C100.638 66.4336 101.903 66.75 103.142 67.1539C103.303 68.1567 103.411 69.1671 103.468 70.1811C100.414 69.0267 97.1754 68.4382 93.9107 68.4445Z" fill="black"/>
<path d="M97.2535 135.825C97.7873 137.214 96.6612 138.834 95.3413 139.196C93.813 139.616 92.4968 138.666 91.9667 137.283L89.2684 130.26C88.7346 128.871 89.8644 127.251 91.1843 126.889C92.7125 126.469 94.0288 127.423 94.5589 128.805C95.4583 131.145 96.3565 133.485 97.2535 135.825Z" fill="#2DB0FC"/>
<path d="M79.389 42.2624C85.4075 43.5049 90.904 46.5532 95.145 51.0007C99.386 55.4481 102.17 61.0832 103.125 67.1539C101.892 66.7509 100.633 66.4344 99.3555 66.207C93.9712 65.2575 88.43 65.7933 83.3274 67.7568C78.2247 69.7202 73.7537 73.0372 70.3947 77.3511C66.1555 76.3859 61.7418 76.4997 57.5579 77.682C53.374 78.8644 49.5536 81.0775 46.4465 84.1187C44.4361 79.6639 43.5305 74.7897 43.8068 69.9101C44.083 65.0305 45.5329 60.2896 48.0333 56.0902C54.4463 45.5165 67.2211 39.7945 79.389 42.2624Z" fill="#F5C54A"/>
<path d="M91.2354 120.147C91.7692 121.536 90.6395 123.156 89.3196 123.518C87.7913 123.938 86.4751 122.984 85.945 121.602L83.2686 114.59C82.7348 113.2 83.8609 111.581 85.1845 111.219C86.7127 110.798 88.0253 111.752 88.5554 113.134L91.2354 120.147Z" fill="#2DB0FC"/>
<path d="M83.3743 135.825C83.9081 137.214 82.782 138.834 81.4585 139.196C79.9302 139.616 78.6177 138.666 78.0875 137.283L75.3893 130.264C74.8555 128.871 75.9852 127.251 77.3051 126.889C78.8334 126.469 80.1496 127.423 80.6798 128.805L83.3743 135.825Z" fill="#2DB0FC"/>
<path d="M77.3527 120.147C77.8865 121.536 76.7604 123.156 75.4405 123.518C73.9123 123.939 72.5961 122.984 72.0659 121.602C71.1665 119.262 70.2683 116.922 69.3713 114.582C68.8375 113.193 69.9636 111.573 71.2835 111.211C72.8118 110.791 74.128 111.745 74.6581 113.127C75.5575 115.467 76.4557 117.807 77.3527 120.147Z" fill="#2DB0FC"/>
<path d="M76.3434 13.6488V25.9511C76.3434 29.4864 70.8595 29.4827 70.8595 25.9511V13.6488C70.8595 10.1135 76.3434 10.1208 76.3434 13.6488Z" fill="black"/>
<path d="M72.197 77.8371L69.1008 79.0946C69.5066 78.4951 69.9343 77.9139 70.3766 77.3509C70.987 77.4935 71.5938 77.6617 72.197 77.8371Z" fill="black"/>
<path d="M46.4285 84.1186C49.5354 81.0775 53.3557 78.8644 57.5394 77.6821C61.7232 76.4998 66.1367 76.386 70.3758 77.3512C69.9334 77.9142 69.5057 78.4955 69.0998 79.0951L68.9463 79.8263C65.1199 79.0559 61.1597 79.2824 57.4461 80.4842C53.7325 81.686 50.3905 83.8226 47.741 86.6888C47.2608 85.8546 46.8227 84.9967 46.4285 84.1186Z" fill="black"/>
<path d="M53.1442 30.6861C54.9137 33.7498 50.1719 36.5064 48.3915 33.4536L42.2385 22.7965C40.4909 19.7328 45.2437 16.9689 46.9912 20.029L53.1442 30.6861Z" fill="black"/>
<path d="M41.7008 102.129C41.7008 108.163 44.0979 113.95 48.3646 118.217C52.6314 122.484 58.4185 124.881 64.4526 124.881H67.0996C67.0996 126.263 66.2295 127.641 64.4526 127.623C58.0285 127.575 51.8506 125.146 47.1155 120.804C38.6041 112.976 36.5786 99.9169 42.1213 89.8078C42.3041 89.4714 42.4869 89.1424 42.6953 88.817C42.889 89.1826 43.0901 89.5153 43.2985 89.8626C43.6312 90.411 43.9822 90.9594 44.3441 91.4713C42.6019 94.7531 41.6941 98.4132 41.7008 102.129Z" fill="black"/>
<path d="M47.7519 86.6817C48.2314 87.5074 48.755 88.3068 49.3202 89.0763C48.0586 90.5551 47.0158 92.2074 46.2237 93.9826C45.5607 93.1831 44.9344 92.3496 44.3445 91.4819C45.2668 89.7405 46.4123 88.1269 47.7519 86.6817Z" fill="black"/>
<path d="M108.917 69.7827C107.09 68.6943 105.148 67.8126 103.126 67.1539C102.171 61.0832 99.3866 55.4482 95.1456 51.0007C90.9046 46.5532 85.4081 43.5049 79.3896 42.2625C67.2218 39.7945 54.447 45.5165 48.034 56.1012C45.5325 60.2978 44.0804 65.0359 43.801 69.9135C43.5216 74.791 44.423 79.664 46.4289 84.1187C44.9943 85.5307 43.7371 87.112 42.6849 88.8279C35.6394 76.214 37.2006 60.2473 46.3411 49.0667C55.6169 37.7324 71.781 33.2536 85.5613 38.3064C92.0909 40.7175 97.7769 44.9782 101.925 50.5679C106.072 56.1577 108.502 62.8346 108.917 69.7827Z" fill="black"/>
<path d="M47.7517 86.6816C46.4121 88.1267 45.2667 89.7404 44.3444 91.4818C43.9788 90.9553 43.6315 90.4216 43.2988 89.8732C43.0904 89.5259 42.8893 89.1786 42.6956 88.8276C43.7442 87.1124 44.9977 85.5312 46.4283 84.1188C46.8263 84.9946 47.268 85.85 47.7517 86.6816Z" fill="black"/>
<path d="M64.4529 122.138C66.2079 122.157 67.089 123.52 67.0999 124.881H64.4529C60.5301 124.88 56.6741 123.865 53.2592 121.934C49.8442 120.004 46.9864 117.223 44.9629 113.862C42.9395 110.502 41.8193 106.675 41.7109 102.754C41.6025 98.8323 42.5097 94.9496 44.3445 91.4822C44.9368 92.3499 45.5632 93.1835 46.2237 93.983C44.325 98.1845 43.9375 102.913 45.1269 107.368C47.5033 116.069 55.4809 122.04 64.4529 122.138Z" fill="black"/>
<path d="M35.4515 46.4118C38.5116 48.1776 35.744 52.9121 32.684 51.1462L22.0269 44.9933C18.9705 43.2274 21.7344 38.4893 24.7944 40.2405L35.4515 46.4118Z" fill="black"/>
<path d="M32.6843 92.0599C35.748 90.2904 38.5082 95.0321 35.4518 96.7943L24.7947 102.947C21.731 104.717 18.9744 99.975 22.0272 98.1946L32.6843 92.0599Z" fill="black"/>
<path d="M27.9528 68.8614C31.4845 68.8614 31.4808 74.3453 27.9528 74.3453H15.6468C12.1115 74.3453 12.1189 68.8614 15.6468 68.8614H27.9528Z" fill="black"/>
</svg>
