<svg width="150" height="150" viewBox="0 0 150 150" fill="none" xmlns="http://www.w3.org/2000/svg">
<path d="M94.6872 77.3546C95.1959 78.3981 95.6284 79.4771 95.9815 80.583C96.1095 81.04 96.353 81.4562 96.6886 81.7918C97.0241 82.1273 97.4404 82.3709 97.8973 82.4989C100.416 83.0477 102.775 84.1644 104.797 85.7639C106.606 87.1731 108.095 88.9502 109.167 90.9778C110.238 93.0054 110.867 95.2372 111.012 97.5259C111.162 99.9481 110.749 102.372 109.806 104.608C108.544 107.539 106.459 110.042 103.805 111.814C101.15 113.586 98.0394 114.552 94.848 114.593C93.1004 114.615 92.2192 115.975 92.2009 117.335H46.0706C46.0706 115.971 45.1748 114.611 43.4235 114.593C34.4621 114.494 26.4696 108.524 24.1041 99.822C22.9724 95.5452 23.2769 91.0151 24.9706 86.9281C26.6643 82.8412 29.6535 79.4237 33.4786 77.201C35.7802 75.8794 38.3266 75.0398 40.9628 74.7331C42.9234 74.5034 44.9067 74.5539 46.853 74.883C47.8237 75.0442 48.7826 75.2702 49.7231 75.5594C50.9443 75.925 52.1472 75.2888 52.8199 74.298C54.8421 71.3486 57.4818 68.8744 60.5559 67.0473C63.63 65.2202 67.0648 64.0838 70.622 63.7169C72.8759 63.489 75.1511 63.5925 77.375 64.0241L77.4774 64.046C81.1762 64.7915 84.6533 66.3801 87.6381 68.6884C90.623 70.9966 93.0352 73.9622 94.6872 77.3546ZM82.1647 115.953C83.4882 115.588 84.6143 113.972 84.0805 112.582C83.7514 111.719 83.4212 110.859 83.0897 110.001L81.3749 105.559C81.1682 105.011 80.823 104.526 80.3731 104.151C80.0494 103.879 79.6636 103.69 79.2497 103.602C78.8359 103.514 78.4068 103.529 78.0002 103.646L77.9052 103.676C76.6255 104.092 75.5652 105.661 76.0771 107.017L76.8558 109.043L78.7754 114.037C79.3238 115.419 80.6437 116.374 82.1647 115.953ZM68.2711 115.953C69.5946 115.588 70.7207 113.972 70.1869 112.582L67.6714 106.03L67.4923 105.559C66.9621 104.18 65.6642 103.226 64.1176 103.646C63.8949 103.709 63.682 103.803 63.4851 103.924C62.4687 104.542 61.7557 105.858 62.2018 107.017L64.9 114.037C65.4448 115.419 66.7501 116.374 68.2857 115.953H68.2711ZM54.3775 115.953C55.701 115.588 56.8271 113.972 56.2933 112.582C55.3939 110.242 54.4957 107.901 53.5987 105.559C53.0649 104.18 51.7523 103.226 50.224 103.646C48.9005 104.012 47.7744 105.628 48.3082 107.017C49.2076 109.357 50.1058 111.697 51.0028 114.037C51.5658 115.419 52.8784 116.374 54.4067 115.953H54.3775Z" fill="#ECECEC"/>
<path d="M129.637 82.5829C128.601 81.2399 127.568 79.8993 126.54 78.5612L126.346 78.0128C126.964 77.7897 127.574 77.5521 128.174 77.2815C130.668 76.2396 132.075 79.4496 131.271 81.3032C128.002 88.8001 122.88 95.3424 116.387 100.315C116.598 98.0585 116.441 95.7828 115.923 93.5767C118.755 90.951 121.23 87.9653 123.286 84.6961C125.451 84.1456 127.573 83.4394 129.637 82.5829Z" fill="black"/>
<path d="M126.551 78.5539C127.582 79.8992 128.614 81.2397 129.648 82.5754C127.586 83.4354 125.465 84.1453 123.301 84.6995C124.541 82.7376 125.628 80.683 126.551 78.5539Z" fill="black"/>
<path d="M126.345 78.0127L126.546 78.5538C125.623 80.6854 124.536 82.7425 123.296 84.7067C119.813 85.604 116.239 86.102 112.643 86.1911C111.091 83.9408 109.138 81.9962 106.881 80.4549C113.47 81.1306 120.127 80.2954 126.345 78.0127Z" fill="black"/>
<path d="M117.757 41.7139C119.801 41.469 117.045 44.273 118.262 44.6056L118.024 44.5325C117.536 44.3737 117.109 44.0659 116.804 43.6521C116.499 43.2384 116.331 42.7396 116.324 42.2257C116.555 42.1343 116.785 42.0429 117.015 41.9589C117.253 41.8511 117.502 41.769 117.757 41.7139Z" fill="black"/>
<path d="M119.721 39.3301C123.11 40.3025 121.659 45.5922 118.259 44.6198C117.041 44.2908 119.798 41.4833 117.754 41.7282C117.503 41.784 117.258 41.8661 117.023 41.9731C116.793 42.0572 116.563 42.1486 116.332 42.24C116.252 40.5511 117.612 38.7488 119.721 39.3301Z" fill="black"/>
<path d="M112.647 86.1917C116.243 86.1027 119.817 85.6047 123.301 84.7073C121.245 87.9767 118.769 90.9624 115.937 93.5882C115.31 90.9395 114.194 88.4311 112.647 86.1917Z" fill="#FFE297"/>
<path d="M116.342 100.923C115.674 106.171 113.129 110.999 109.177 114.517C105.225 118.034 100.134 120.003 94.8442 120.059C93.0637 120.08 92.1826 118.698 92.1972 117.316H94.8442C99.1467 117.316 103.32 115.849 106.677 113.158C110.034 110.467 112.374 106.712 113.311 102.513C114.366 101.826 115.396 101.094 116.4 100.319C116.382 100.524 116.364 100.722 116.342 100.923Z" fill="black"/>
<path d="M115.162 42.7193C115.528 42.5438 115.933 42.383 116.325 42.2258C116.332 42.7396 116.499 43.2384 116.804 43.6521C117.109 44.0658 117.536 44.3736 118.024 44.5324C116.791 44.1641 115.597 43.6743 114.46 43.0702C114.691 42.9496 114.921 42.829 115.162 42.7193Z" fill="black"/>
<path d="M113.55 95.6357C114.369 94.9848 115.159 94.3011 115.926 93.5955C116.445 95.8017 116.602 98.0775 116.391 100.334C115.389 101.102 114.359 101.833 113.301 102.528C113.807 100.265 113.891 97.9288 113.55 95.6357Z" fill="black"/>
<path d="M113.55 95.6359C113.038 92.138 111.552 88.8549 109.261 86.1625C110.383 86.2137 111.51 86.2283 112.636 86.199C114.183 88.4384 115.299 90.9469 115.926 93.5957C115.169 94.2941 114.38 94.9778 113.55 95.6359Z" fill="black"/>
<path d="M113.766 98.3962C113.766 99.781 113.614 101.162 113.312 102.513C112.175 103.244 111.001 103.946 109.802 104.59C110.746 102.354 111.159 99.93 111.009 97.5077C111.886 96.913 112.739 96.2866 113.568 95.6284C113.702 96.5449 113.768 97.47 113.766 98.3962Z" fill="black"/>
<path d="M113.311 102.513C112.374 106.712 110.035 110.467 106.678 113.158C103.321 115.849 99.1467 117.316 94.8443 117.317H92.1973C92.1973 115.957 93.0967 114.597 94.8443 114.575C98.0355 114.533 101.146 113.568 103.801 111.796C106.455 110.024 108.539 107.521 109.801 104.59C110.99 103.946 112.174 103.255 113.311 102.513Z" fill="black"/>
<path d="M113.55 95.6357C112.723 96.2938 111.87 96.9203 110.99 97.515C110.845 95.2264 110.216 92.9945 109.145 90.967C108.074 88.9394 106.584 87.1623 104.775 85.7531C106.259 85.9579 107.751 86.0944 109.25 86.1626C111.545 88.8536 113.035 92.1368 113.55 95.6357Z" fill="black"/>
<path d="M109.271 86.1545C106.529 82.9201 102.78 80.7004 98.625 79.8516C98.5007 79.4495 98.3655 79.051 98.2192 78.6525C101.037 79.5514 103.941 80.1555 106.884 80.4549C109.141 81.9962 111.094 83.9408 112.646 86.1911C111.52 86.2203 110.394 86.2057 109.271 86.1545Z" fill="black"/>
<path d="M107.373 32.9859C107.098 33.6956 106.787 34.3909 106.441 35.0692C106.082 34.3937 105.763 33.6981 105.484 32.9859C105.295 32.5942 105.151 32.1821 105.056 31.7578C105.008 31.5896 104.961 31.4215 104.91 31.2534H107.947C107.951 31.7724 107.552 32.5253 107.373 32.9859Z" fill="black"/>
<path d="M98.4347 43.0881C99.9062 43.8613 101.274 44.8184 102.504 45.9362C104.099 47.3994 105.425 49.132 106.42 51.0547C105.857 52.0784 105.206 53.3068 105.056 54.4073C104.928 55.3323 104.273 54.9118 106.431 54.9118C108.204 54.9118 108.083 55.2774 107.725 54.1587C107.486 53.4406 107.21 52.7353 106.899 52.0455C106.752 51.7128 106.588 51.3801 106.42 51.0547L106.635 50.6635C108.454 47.4274 111.172 44.7874 114.459 43.0625C115.596 43.6667 116.79 44.1565 118.024 44.5249L118.262 44.598C121.658 45.5705 123.11 40.2802 119.724 39.3077C120.632 39.565 121.416 40.1411 121.933 40.9302C122.451 41.7194 122.666 42.6686 122.539 43.6036C122.28 45.534 120.909 46.4078 119.22 46.9928C115.765 48.192 112.982 50.3966 111.253 53.6541C110.522 55.0142 110.368 56.7435 109.348 57.9208C108.805 58.5318 108.083 58.9562 107.285 59.1341C106.487 59.3119 105.654 59.2341 104.902 58.9116C103.074 58.1365 102.833 56.5278 102.186 54.8899C101.667 53.5781 100.943 52.3574 100.04 51.274C98.9891 50.0224 97.7254 48.9666 96.3068 48.1554C95.0345 47.4242 93.5794 47.2048 92.3181 46.5102C91.5468 46.0859 90.9404 45.4148 90.5963 44.6046C90.2522 43.7944 90.1903 42.892 90.4205 42.0424C90.8739 40.3862 92.1389 39.6806 93.6489 39.1761C96.5739 38.2576 99.1037 36.3795 100.829 33.8455C102.456 31.3594 102.723 26.7966 106.591 26.9465C110.211 27.089 110.452 31.4361 112.028 33.8455C113.848 36.5343 116.572 38.4805 119.706 39.3296C117.596 38.7629 116.236 40.5654 116.309 42.2545C115.918 42.4117 115.527 42.5726 115.147 42.7481C114.905 42.8577 114.675 42.9784 114.445 43.1137C111.029 41.3139 108.234 38.5261 106.427 35.1142C106.773 34.4356 107.084 33.7401 107.359 33.0302C107.538 32.5695 107.937 31.8164 107.933 31.2972H104.895C104.946 31.4654 104.994 31.6336 105.041 31.8017C105.136 32.2262 105.28 32.6384 105.469 33.0302C105.748 33.7426 106.068 34.4384 106.427 35.1142C106.197 35.5638 105.959 36.0026 105.696 36.4267C104.298 38.6112 102.483 40.4984 100.354 41.9803C99.7395 42.4086 99.0957 42.7935 98.4274 43.1319C97.5174 42.6455 96.5714 42.2299 95.5976 41.8889C95.279 41.7461 94.9436 41.6441 94.5995 41.5854V43.1027C94.112 44.3409 94.1949 44.8284 94.8481 44.5651C95.3526 44.5651 96.0911 44.1593 96.5701 43.9692C97.2062 43.6913 97.8278 43.3976 98.4347 43.0881Z" fill="black"/>
<path d="M106.898 52.0534C107.21 52.743 107.485 53.4482 107.724 54.166C108.09 55.2881 108.203 54.9189 106.431 54.9189C104.274 54.9189 104.928 55.3393 105.056 54.4145C105.206 53.318 105.857 52.0863 106.42 51.0629C106.602 51.3955 106.752 51.7208 106.898 52.0534Z" fill="black"/>
<path d="M111.531 44.9636C109.531 46.5134 107.866 48.4522 106.635 50.6632L106.42 51.0544C105.425 49.1318 104.1 47.3992 102.504 45.936C101.274 44.8183 99.9066 43.8613 98.4351 43.0881C99.1034 42.7496 99.7472 42.3648 100.362 41.9364C102.49 40.4546 104.305 38.5674 105.703 36.383C105.974 35.9589 106.211 35.5202 106.434 35.0705C108.242 38.4824 111.036 41.2701 114.452 43.0698C113.422 43.6098 112.444 44.2437 111.531 44.9636Z" fill="white"/>
<path d="M98.625 79.8516C102.78 80.7004 106.529 82.92 109.271 86.1545C107.772 86.0887 106.281 85.9522 104.796 85.745C102.774 84.1522 100.414 83.0418 97.8974 82.4985C97.4405 82.3705 97.0243 82.127 96.6887 81.7915C96.3532 81.456 96.1097 81.0397 95.9817 80.5828C95.6287 79.4769 95.1962 78.398 94.6875 77.3546C95.8464 77.8408 97.0273 78.2722 98.2192 78.6524C98.3654 79.0509 98.5007 79.4494 98.625 79.8516Z" fill="black"/>
<path d="M101.271 79.1236L99.356 77.2084C99.8165 77.3107 100.27 77.4277 100.719 77.5739C100.913 78.0856 101.118 78.5973 101.271 79.1236Z" fill="black"/>
<path d="M95.5973 41.8893C96.5726 42.2217 97.5208 42.6286 98.4337 43.1065C97.8269 43.4184 97.2055 43.7011 96.5695 43.9545C96.0907 44.1446 95.3524 44.5649 94.848 44.5503C94.1925 44.8256 94.1096 44.3383 94.5994 43.0882V41.5713C94.9441 41.6347 95.2794 41.7416 95.5973 41.8893Z" fill="black"/>
<path d="M90.1021 128.26C90.6359 129.649 89.5098 131.269 88.1862 131.631C86.658 132.051 85.3454 131.097 84.8153 129.719L82.106 122.691C81.5722 121.302 82.6983 119.682 84.0219 119.32C85.5501 118.9 86.8627 119.854 87.3929 121.236L90.1021 128.26Z" fill="#2DB0FC"/>
<path d="M98.2181 78.6518C97.0262 78.2862 95.8453 77.8402 94.6863 77.3539C93.0326 73.9595 90.6177 70.9926 87.6296 68.6844C84.6415 66.3761 81.1609 64.7887 77.4589 64.0458C76.7094 63.055 75.9964 62.0386 75.353 60.993C80.4469 61.4638 85.3018 63.3742 89.3506 66.5011C93.3994 69.628 96.4749 73.8423 98.2181 78.6518Z" fill="black"/>
<path d="M80.3838 104.151C80.8337 104.526 81.1788 105.011 81.3855 105.559L83.0892 110C82.0655 109.909 81.0419 109.785 80.0255 109.635C79.0092 109.485 77.9161 109.269 76.8741 109.046L76.0954 107.021C75.5763 105.665 76.6365 104.096 77.9234 103.679C78.735 103.859 79.5466 104.019 80.3838 104.151Z" fill="#2DB0FC"/>
<path d="M76.8743 109.043C77.9162 109.273 78.9691 109.471 80.0257 109.631C81.0822 109.792 82.0657 109.909 83.0893 109.997C83.4232 110.855 83.7535 111.715 84.0801 112.578C84.6138 113.967 83.4878 115.587 82.1644 115.949C80.6362 116.369 79.3237 115.415 78.7936 114.033L76.8743 109.043Z" fill="#2DB0FC"/>
<path d="M78.0113 103.646C78.4177 103.529 78.8467 103.514 79.2604 103.602C79.6741 103.69 80.0598 103.878 80.3834 104.151C79.5574 104.019 78.735 103.858 77.9163 103.676L78.0113 103.646Z" fill="#2DB0FC"/>
<path d="M76.2232 128.26C76.757 129.649 75.6272 131.269 74.3074 131.631C72.7791 132.051 71.4629 131.097 70.9327 129.719C70.0382 127.379 69.14 125.038 68.2381 122.695C67.7043 121.306 68.8304 119.686 70.1539 119.324C71.6822 118.904 72.9948 119.858 73.5249 121.24L76.2232 128.26Z" fill="#2DB0FC"/>
<path d="M75.3527 60.9931C76.0035 62.0386 76.709 63.0549 77.4585 64.0457L77.3561 64.0237C75.1324 63.5922 72.8575 63.4888 70.6039 63.7166C70.0811 62.8721 69.5912 62.013 69.1415 61.1576C70.3854 60.9829 71.64 60.895 72.896 60.8944C73.7149 60.8797 74.5375 60.92 75.3527 60.9931Z" fill="black"/>
<path d="M73.7407 58.1924C75.272 58.2269 76.7985 58.3772 78.3071 58.6421C88.5917 60.4701 97.0445 67.9285 100.719 77.5586C100.269 77.427 99.8158 77.31 99.3552 77.193L101.271 79.1088C101.099 78.5823 100.905 78.0595 100.719 77.544C102.914 78.1758 104.995 79.1533 106.883 80.4396C103.94 80.1402 101.036 79.5361 98.2181 78.6372C96.475 73.8277 93.3994 69.6134 89.3506 66.4865C85.3018 63.3596 80.447 61.4491 75.353 60.9783C74.7802 60.074 74.2428 59.1454 73.7407 58.1924Z" fill="black"/>
<path d="M73.7407 58.1923C74.2428 59.1429 74.7802 60.0763 75.353 60.9928C74.5377 60.9196 73.7151 60.8794 72.8779 60.8794C71.6218 60.88 70.3672 60.968 69.1233 61.1427C68.6822 60.3164 68.2654 59.4817 67.873 58.6384C69.8094 58.2967 71.7749 58.1473 73.7407 58.1923Z" fill="black"/>
<path d="M73.7407 58.1912C71.7748 58.1461 69.8092 58.2955 67.8727 58.6372C63.1401 48.5099 62.0576 37.057 64.8089 26.2224C66.7718 24.9786 68.8291 23.8906 70.9621 22.9685L71.4995 23.1695C69.4081 28.8402 68.527 34.8859 68.913 40.9176C69.299 46.9493 70.9435 52.8333 73.7407 58.1912Z" fill="black"/>
<path d="M68.2125 18.2301C70.088 17.4185 73.2832 18.826 72.234 21.3266C71.9781 21.936 71.7343 22.5453 71.5028 23.1546L70.9654 22.9535L66.9439 19.857L66.5271 18.9868C67.073 18.7261 67.6348 18.4738 68.2125 18.2301Z" fill="black"/>
<path d="M66.9328 19.8717L70.9543 22.9683C68.8215 23.8904 66.7642 24.9783 64.8014 26.222C65.3579 24.0567 66.0703 21.9344 66.9328 19.8717Z" fill="black"/>
<path d="M69.1227 61.143C69.5906 62.0132 70.0806 62.8723 70.5851 63.7023C67.028 64.0691 63.5933 65.2054 60.5193 67.0325C57.4454 68.8596 54.8057 71.3336 52.7836 74.283C52.1109 75.2738 50.9081 75.9209 49.6869 75.5443C48.7464 75.2551 47.7876 75.0292 46.8169 74.8679C46.5098 73.893 46.2392 72.918 46.0052 71.9431C47.5045 72.1144 48.9828 72.4353 50.4181 72.901C52.5276 69.7303 55.2854 67.043 58.5095 65.0162C61.7337 62.9895 65.3509 61.6694 69.1227 61.143Z" fill="black"/>
<path d="M67.506 105.558L67.6851 106.029C67.1843 105.81 66.6872 105.583 66.1974 105.346C65.28 104.904 64.3699 104.425 63.4999 103.924C63.6968 103.802 63.9096 103.709 64.1323 103.646C65.6528 103.226 66.976 104.18 67.506 105.558Z" fill="#2DB0FC"/>
<path d="M63.5 103.924C64.3811 104.425 65.2805 104.904 66.1982 105.347C66.6881 105.584 67.1854 105.811 67.6863 106.03L70.2017 112.582C70.7355 113.971 69.6094 115.591 68.2859 115.953C66.7576 116.374 65.445 115.419 64.9149 114.037L62.2167 107.017C61.7706 105.873 62.4836 104.542 63.5 103.924Z" fill="#2DB0FC"/>
<path d="M66.5162 19.0014L66.933 19.8716C66.0729 21.9346 65.363 24.0571 64.8088 26.2224C55.732 31.8952 49.1144 40.7674 46.2645 51.0846C44.6746 56.9906 44.3976 63.173 45.4528 69.1975C43.5776 69.0634 41.6933 69.1333 39.8332 69.4059C38.2993 59.2534 40.0646 48.8766 44.8693 39.8023C49.674 30.7281 57.2643 23.4356 66.5235 18.9978L66.5162 19.0014Z" fill="black"/>
<path d="M64.8086 26.2226C62.0573 37.0577 63.1398 48.5109 67.8725 58.6386C60.5323 59.9417 53.9329 63.912 49.3429 69.7864C48.0629 69.4925 46.7624 69.297 45.4527 69.2014C44.401 63.1761 44.6818 56.9936 46.2753 51.0885C49.1217 40.7717 55.7353 31.8983 64.8086 26.2226Z" fill="#FFE297"/>
<path d="M62.3625 128.26C62.8963 129.649 61.7665 131.269 60.4466 131.631C58.9184 132.051 57.6021 131.097 57.072 129.719C56.1726 127.379 55.2744 125.038 54.3774 122.695C53.8436 121.306 54.9697 119.686 56.2932 119.324C57.8215 118.904 59.1341 119.858 59.6642 121.24L62.3625 128.26Z" fill="#2DB0FC"/>
<path d="M56.3225 112.582C56.8563 113.971 55.7303 115.591 54.4067 115.953C52.8784 116.373 51.5659 115.419 51.0321 114.037C50.1375 111.697 49.2393 109.357 48.3375 107.017C47.8037 105.628 48.9298 104.008 50.2533 103.646C51.7816 103.226 53.0942 104.18 53.628 105.558C54.5249 107.898 55.4231 110.24 56.3225 112.582Z" fill="#2DB0FC"/>
<path d="M51.1632 70.2687L48.067 71.5299C48.4764 70.9304 48.9017 70.3492 49.3428 69.7862C49.9544 69.9251 50.5612 70.086 51.1632 70.2687Z" fill="black"/>
<path d="M67.872 58.6384C68.262 59.4842 68.6788 60.319 69.1224 61.1428C65.3527 61.6734 61.7382 62.9969 58.5173 65.0261C55.2964 67.0553 52.5421 69.7442 50.4361 72.9154C49.0008 72.4498 47.5225 72.1289 46.0232 71.9575C45.8039 71.046 45.6137 70.1271 45.4529 69.2008C46.7626 69.2964 48.0631 69.492 49.343 69.7858C48.9018 70.3489 48.4765 70.9302 48.067 71.5298L51.1637 70.2684C50.5592 70.0856 49.9499 69.9248 49.3356 69.7858C53.9273 63.9101 60.5294 59.9398 67.872 58.6384Z" fill="black"/>
<path d="M43.4235 71.8083C44.2921 71.8084 45.16 71.8585 46.0228 71.9582C46.2666 72.9331 46.5371 73.908 46.8345 74.8829C44.8883 74.5538 42.9052 74.5034 40.9448 74.733C40.701 73.8385 40.4866 72.9367 40.3013 72.0276C41.3357 71.8823 42.3789 71.809 43.4235 71.8083Z" fill="black"/>
<path d="M39.8332 69.4097C41.6932 69.1371 43.5773 69.0672 45.4523 69.2013C45.6132 70.1299 45.8033 71.0488 46.0227 71.9579C44.1203 71.737 42.1976 71.7603 40.3011 72.0273C40.1184 71.1609 39.9648 70.2871 39.8332 69.4097Z" fill="black"/>
<path d="M43.4238 114.575C45.1751 114.593 46.0562 115.953 46.0709 117.317H43.4238C37.6609 117.316 32.113 115.128 27.9004 111.196C23.6879 107.263 21.1247 101.878 20.7283 96.1292C20.3319 90.3799 22.132 84.6944 25.7649 80.2209C29.3979 75.7473 34.5931 72.8191 40.3014 72.0274C40.4866 72.9341 40.7011 73.836 40.9448 74.733C38.3149 75.0421 35.7749 75.8817 33.4789 77.2009C29.6607 79.4254 26.6778 82.841 24.9878 86.9239C23.2977 91.0068 22.9938 95.5314 24.1226 99.8036C26.4699 108.505 34.4624 114.476 43.4238 114.575Z" fill="black"/>
<path d="M46.0708 117.317C46.0708 118.699 45.2007 120.077 43.4237 120.059C37.0008 120.015 30.8226 117.589 26.086 113.251C17.5707 105.423 15.5634 92.3632 21.0916 82.2538C23.0091 78.809 25.6997 75.8561 28.9518 73.6274C32.2039 71.3987 35.9287 69.9549 39.8333 69.4095C39.965 70.287 40.1185 71.1609 40.3013 72.0274C34.5931 72.8191 29.3979 75.7474 25.7649 80.2209C22.132 84.6945 20.3319 90.3799 20.7283 96.1292C21.1246 101.878 23.6879 107.263 27.9004 111.196C32.1129 115.128 37.6608 117.316 43.4237 117.317H46.0708Z" fill="black"/>
</svg>
