<svg width="150" height="150" viewBox="0 0 150 150" fill="none" xmlns="http://www.w3.org/2000/svg">
<path d="M105.435 66.1397C106.555 66.7534 107.626 67.4526 108.638 68.231C112.575 71.2603 115.497 75.4164 117.014 80.1466C117.141 80.6042 117.384 81.0212 117.72 81.3569C118.056 81.6926 118.473 81.9357 118.93 82.0625C127.168 83.8503 133.007 91.4772 131.946 99.9779C130.945 108.054 123.903 114.021 115.877 114.127C114.13 114.153 113.245 115.509 113.23 116.87H103.984L105.731 115.107L110.097 110.72C111.768 109.038 110.539 106.04 108.155 106.04H101.574L105.984 99.4587C107.165 97.6964 105.596 95.3308 103.614 95.3308C98.8833 95.3308 94.1302 95.1919 89.3917 95.2723C88.5618 95.2723 87.7282 95.3016 86.8982 95.3308C85.2054 95.3893 84.3169 96.3619 83.582 97.5648C83.2164 98.1425 82.902 98.775 82.5437 99.3929L77.0996 108.683L73.1472 115.429C72.8854 115.87 72.7583 116.379 72.7816 116.891H67.0998C67.0998 115.531 66.2077 114.171 64.4527 114.149C55.495 114.051 47.5026 108.08 45.1333 99.3783C43.9439 94.9235 44.3314 90.1946 46.2302 85.9929C47.0224 84.2176 48.0653 82.5652 49.327 81.0862C50.7921 79.3663 52.5406 77.9096 54.4969 76.7792C59.4657 73.9164 65.301 73.4557 70.7451 75.1339C71.9662 75.4996 73.1655 74.867 73.8419 73.8762C79.1946 66.0007 88.9859 61.7595 98.3933 63.6023C100.129 63.9435 101.823 64.4706 103.446 65.1744C103.764 65.3134 104.079 65.456 104.386 65.6095C104.693 65.7631 105.088 65.9495 105.435 66.1397Z" fill="#ECECEC"/>
<path d="M70.3755 69.3528C73.7344 65.035 78.2075 61.7153 83.313 59.751C88.4186 57.7867 93.9633 57.2524 99.35 58.2054C100.633 58.4338 101.898 58.7502 103.138 59.1524C103.298 60.1564 103.407 61.168 103.463 62.1833C98.1459 60.1742 92.3298 59.8972 86.8458 61.3916C81.3617 62.8861 76.4903 66.0756 72.9275 70.5045L72.1963 69.8354C71.593 69.649 70.9825 69.4918 70.3755 69.3528Z" fill="black"/>
<path d="M122.406 32.2575C125.47 30.4844 128.234 35.2371 125.174 36.992L114.52 43.145C111.453 44.9145 108.696 40.1727 111.749 38.3922L122.406 32.2575Z" fill="black"/>
<path d="M49.3194 81.075C48.0578 82.5539 47.0149 84.2061 46.2228 85.9813C45.5599 85.1794 44.9335 84.3459 44.3437 83.4806C45.266 81.7402 46.4101 80.1267 47.7473 78.6804C48.2294 79.5054 48.7542 80.3047 49.3194 81.075V81.075Z" fill="black"/>
<path d="M35.4505 38.4105C38.5105 40.1763 35.743 44.9144 32.6829 43.1632L22.0258 36.992C18.9694 35.2262 21.7333 30.4917 24.7934 32.2575L35.4505 38.4105Z" fill="black"/>
<path d="M108.7 64.8512C108.864 64.5221 108.958 64.163 108.977 63.7961C108.977 64.2013 108.956 64.6066 108.937 65.0082L108.7 64.8512Z" fill="black"/>
<path d="M131.554 60.86C135.09 60.86 135.082 66.3439 131.554 66.3439H119.252C115.717 66.3439 115.724 60.86 119.252 60.86H131.554Z" fill="black"/>
<path d="M27.9518 60.86C31.4834 60.86 31.4798 66.3439 27.9518 66.3439H15.6458C12.1105 66.3439 12.1178 60.86 15.6458 60.86H27.9518Z" fill="black"/>
<path d="M108.638 68.231C108.788 67.1743 108.887 66.1031 108.938 65.0245C114.047 68.461 117.829 73.5395 119.658 79.419C124.254 80.3546 128.339 82.9639 131.12 86.7408C133.901 90.5176 135.18 95.1928 134.709 99.8594C134.238 104.526 132.051 108.851 128.571 111.996C125.091 115.142 120.568 116.882 115.877 116.88H113.245C113.245 115.52 114.144 114.164 115.892 114.138C123.936 114.032 130.959 108.065 131.961 99.9888C133.021 91.4772 127.182 83.8503 118.945 82.0734C118.487 81.9467 118.07 81.7036 117.735 81.3678C117.399 81.0321 117.156 80.6151 117.029 80.1575C115.51 75.4214 112.583 71.261 108.638 68.231V68.231Z" fill="black"/>
<path d="M103.805 62.3222C104.938 60.1949 108.82 60.5531 108.977 63.3968C108.977 63.4626 108.977 63.5321 108.977 63.6015V63.6271C108.977 63.6783 108.977 63.7295 108.977 63.7806V63.8099C108.957 64.1773 108.863 64.5368 108.699 64.8662C107.16 63.8514 105.52 62.9989 103.805 62.3222V62.3222Z" fill="black"/>
<path d="M103.45 62.1836L103.815 62.3223C103.61 62.7167 103.505 63.1551 103.508 63.5994C103.494 63.1251 103.475 62.658 103.45 62.1836Z" fill="black"/>
<path d="M108.978 63.7786C108.978 63.7283 108.978 63.6781 108.978 63.6278C108.981 63.6781 108.981 63.7283 108.978 63.7786Z" fill="black"/>
<path d="M53.1431 22.6847C54.9126 25.7484 50.1708 28.5086 48.3904 25.4522L42.2557 14.7951C40.4862 11.7314 45.239 8.97485 46.9902 12.0276L53.1431 22.6847Z" fill="black"/>
<path d="M108.978 63.3898C108.821 60.5455 104.938 60.1873 103.805 62.315L103.439 62.1761C103.383 61.1609 103.274 60.1493 103.114 59.1453C105.136 59.8052 107.078 60.688 108.905 61.7776C108.945 62.3187 108.967 62.8597 108.978 63.3898Z" fill="black"/>
<path d="M85.5674 30.3088C92.0972 32.7185 97.7832 36.9791 101.93 42.5693C106.077 48.1594 108.504 54.837 108.916 61.7851C107.089 60.6954 105.147 59.8125 103.125 59.1526C102.168 53.0825 99.3835 47.4482 95.1427 43.001C90.902 38.5538 85.4063 35.505 79.3884 34.2611C67.2206 31.7932 54.4458 37.5188 48.0328 48.1035C45.5302 52.299 44.0774 57.0366 43.798 61.9138C43.5185 66.791 44.4207 71.6635 46.4277 76.1174C44.9936 77.5306 43.7353 79.1118 42.6801 80.8266C35.6346 68.2163 37.1958 52.2497 46.3363 41.0653C55.6231 29.7128 71.7872 25.2559 85.5674 30.3088Z" fill="black"/>
<path d="M134.798 97.9594C134.797 93.5977 133.289 89.3703 130.531 85.9919C127.772 82.6136 123.931 80.2916 119.657 79.4188C117.829 73.5393 114.047 68.4608 108.937 65.0243C108.956 64.6221 108.974 64.2163 108.978 63.8104V63.7812C108.978 63.73 108.978 63.6788 108.978 63.6276V63.602C108.978 63.5326 108.978 63.4631 108.978 63.3973C108.978 62.8598 108.945 62.3187 108.916 61.7849C114.795 65.3189 119.315 70.7275 121.749 77.141C121.299 77.013 120.846 76.8924 120.385 76.7754L122.301 78.6912C122.133 78.1611 121.935 77.6382 121.749 77.1227C131.778 80.0038 138.666 89.9743 137.372 100.486C136.704 105.734 134.16 110.563 130.209 114.08C126.258 117.598 121.167 119.567 115.877 119.622C114.093 119.648 113.212 118.266 113.23 116.88H115.877C120.895 116.88 125.708 114.887 129.256 111.339C132.804 107.79 134.798 102.978 134.798 97.9594V97.9594Z" fill="black"/>
<path d="M79.3884 34.2609C85.4063 35.5048 90.9019 38.5536 95.1427 43.0008C99.3835 47.448 102.168 53.0822 103.125 59.1524C101.89 58.7508 100.629 58.4344 99.3513 58.2054C93.9667 57.2551 88.4248 57.7909 83.3219 59.7551C78.219 61.7194 73.7482 65.0377 70.3905 69.3532C66.1515 68.3872 61.738 68.5002 57.554 69.6819C53.3701 70.8637 49.5495 73.0763 46.4423 76.1172C44.4353 71.6633 43.5331 66.7908 43.8126 61.9136C44.092 57.0364 45.5448 52.2988 48.0474 48.1033C54.4458 37.5186 67.2206 31.7929 79.3884 34.2609Z" fill="#F5C54A"/>
<path d="M121.749 77.1228C121.946 77.6382 122.114 78.1608 122.3 78.6908L120.385 76.7756C120.846 76.8743 121.288 76.9949 121.749 77.1228Z" fill="black"/>
<path d="M103.804 62.3226C105.52 63.0039 107.16 63.8613 108.699 64.8812C108.103 66.0618 106.652 66.4858 105.435 66.1532C105.069 65.9631 104.736 65.7877 104.378 65.6122C104.093 65.3651 103.867 65.058 103.714 64.713C103.562 64.3679 103.488 63.9935 103.497 63.6165C103.492 63.1665 103.597 62.7221 103.804 62.3226V62.3226Z" fill="black"/>
<path d="M105.435 66.1394C106.653 66.472 108.104 66.048 108.7 64.8673L108.937 65.0245C108.886 66.1028 108.787 67.1739 108.638 68.2303C107.626 67.4521 106.555 66.753 105.435 66.1394V66.1394Z" fill="black"/>
<path d="M103.497 63.6022C103.488 63.9792 103.562 64.3536 103.714 64.6985C103.867 65.0435 104.093 65.3505 104.378 65.5977C104.071 65.4442 103.757 65.3017 103.439 65.1628C103.468 64.6438 103.494 64.1212 103.497 63.6022Z" fill="black"/>
<path d="M70.3754 69.3534C70.9822 69.4923 71.5927 69.6495 72.2031 69.8359L69.107 71.097C69.5054 70.4976 69.9331 69.9163 70.3754 69.3534Z" fill="black"/>
<path d="M46.4277 76.1172C49.5348 73.0764 53.3552 70.8639 57.539 69.6822C61.7228 68.5005 66.1362 68.3875 70.375 69.3534C69.9326 69.9165 69.5049 70.4978 69.099 71.0974L68.9455 71.8286C65.1191 71.0588 61.1591 71.2857 57.4456 72.4874C53.7322 73.6892 50.3901 75.8254 47.7402 78.6911C47.2625 77.8502 46.825 76.9922 46.4277 76.1172Z" fill="black"/>
<path d="M100.21 12.0276C101.976 8.97122 106.714 11.7351 104.944 14.7952L98.7951 25.4523C97.0293 28.5123 92.2912 25.7448 94.0424 22.6847L100.21 12.0276Z" fill="black"/>
<path d="M43.298 81.8721C43.6307 82.4205 43.9816 82.9689 44.3436 83.4808C42.5089 86.9481 41.6016 90.8309 41.71 94.7522C41.8184 98.6735 42.9386 102.5 44.9621 105.861C46.9855 109.222 49.8433 112.002 53.2583 113.933C56.6732 115.863 60.5292 116.878 64.4521 116.879H67.0991C67.0991 118.261 66.2289 119.643 64.4521 119.621C58.0295 119.58 51.8511 117.155 47.1149 112.817C38.5999 104.986 36.5781 91.9263 42.1207 81.8172C42.3035 81.4809 42.4863 81.1518 42.6947 80.8264C42.8885 81.1774 43.0896 81.5284 43.298 81.8721Z" fill="black"/>
<path d="M44.343 83.4809C44.9353 84.3486 45.5617 85.1821 46.2222 85.9816C44.3235 90.1831 43.936 94.9119 45.1254 99.3665C47.4945 108.068 55.4867 114.038 64.4441 114.137C66.1991 114.159 67.0802 115.519 67.0912 116.879H64.4441C60.5213 116.878 56.6653 115.863 53.2504 113.933C49.8354 112.002 46.9776 109.222 44.9541 105.861C42.9307 102.5 41.8105 98.6736 41.7021 94.7523C41.5937 90.8309 42.501 86.9482 44.3357 83.4809H44.343Z" fill="black"/>
<path d="M54.4896 76.7682C52.5333 77.8986 50.7848 79.3553 49.3197 81.0752C48.7545 80.3048 48.2297 79.5054 47.7476 78.6804C50.3975 75.8147 53.7398 73.6783 57.4533 72.4765C61.1669 71.2748 65.1271 71.0479 68.9536 71.8177V71.8177C69.8055 71.9874 70.6466 72.2072 71.4727 72.4758C71.9261 71.7957 72.4136 71.1376 72.9352 70.5014C76.4981 66.0724 81.3697 62.8828 86.8539 61.3882C92.3382 59.8937 98.1545 60.1708 103.472 62.1799C103.497 62.6516 103.516 63.1232 103.519 63.5985C103.523 64.0738 103.49 64.6405 103.461 65.1597C101.838 64.4559 100.144 63.9288 98.408 63.5876C89.0006 61.7594 79.2092 65.986 73.8565 73.8615C73.1801 74.8523 71.9809 75.4958 70.7597 75.1192C65.2937 73.4447 59.4584 73.9054 54.4896 76.7682Z" fill="black"/>
<path d="M76.3421 5.64737V17.9533C76.3421 21.4886 70.8582 21.4813 70.8582 17.9533V5.64737C70.8582 2.11572 76.3421 2.11937 76.3421 5.64737Z" fill="black"/>
<path d="M32.6833 84.0624C35.7469 82.2893 38.5072 87.0311 35.4508 88.8152L24.7937 94.9645C21.73 96.734 18.9734 91.9959 22.0261 90.23L32.6833 84.0624Z" fill="black"/>
<path d="M46.4275 76.1174C46.8272 76.9899 47.2671 77.843 47.7472 78.6765C46.41 80.1228 45.2659 81.7363 44.3436 83.4767C43.978 82.9503 43.6307 82.4165 43.298 81.8681C43.0896 81.5245 42.8885 81.1735 42.6948 80.8225C43.7455 79.1099 44.9988 77.5302 46.4275 76.1174V76.1174Z" fill="black"/>
<path d="M72.1956 69.8361L72.9266 70.505C72.4149 71.141 71.9275 71.7989 71.4645 72.4787C70.6387 72.2102 69.7978 71.9905 68.9462 71.8208V71.8208L69.0997 71.0898L72.1956 69.8361Z" fill="black"/>
<path d="M96.2578 116.881L83.2858 129.959L89.0844 118.189C89.284 117.782 89.3901 117.334 89.3952 116.881H96.2578Z" fill="#FFE297"/>
<path d="M103.982 116.881L75.633 145.464C75.387 145.889 75.009 146.222 74.5563 146.413C74.1036 146.604 73.601 146.641 73.125 146.52C71.3737 146.228 69.9515 144.096 71.0849 142.352L82.3164 119.549H75.5124C74.8024 119.539 74.1236 119.256 73.6161 118.759C73.1086 118.263 72.8111 117.59 72.7849 116.881H89.3945C89.3894 117.334 89.2833 117.782 89.0838 118.189L83.2852 129.958L96.257 116.881H103.982Z" fill="black"/>
<path d="M101.573 111.52C99.8039 113.307 98.0319 115.093 96.2575 116.88H89.395C89.415 116.516 89.3604 116.153 89.2345 115.811C89.1087 115.469 88.9142 115.157 88.6632 114.893C88.4122 114.63 88.1099 114.42 87.7748 114.278C87.4398 114.135 87.0792 114.063 86.7151 114.065H80.2987L88.0642 100.811H98.4841L94.0712 107.392C92.8939 109.155 94.4587 111.52 96.4403 111.52H101.573Z" fill="#FFE297"/>
<path d="M108.154 106.036C110.537 106.036 111.766 109.034 110.095 110.716L105.73 115.103L103.982 116.865H96.2568C98.0312 115.076 99.8032 113.289 101.573 111.505H96.425C94.4434 111.505 92.8786 109.14 94.0558 107.378L98.4687 100.797H88.0489L80.298 114.065H86.7144C87.0785 114.063 87.4391 114.135 87.7742 114.277C88.1092 114.42 88.4115 114.63 88.6625 114.893C88.9135 115.157 89.108 115.469 89.2338 115.811C89.3597 116.152 89.4143 116.516 89.3943 116.88H72.7848C72.7615 116.367 72.8885 115.859 73.1504 115.417L77.1026 108.672L82.5319 99.3854C82.8975 98.7712 83.2119 98.1387 83.5702 97.5574C84.3014 96.3545 85.1935 95.382 86.8863 95.3235C87.7162 95.2942 88.5498 95.2759 89.3797 95.265C94.1326 95.1845 98.8855 95.3235 103.602 95.3235C105.583 95.3235 107.152 97.689 105.971 99.4512L101.562 106.032L108.154 106.036Z" fill="black"/>
<path d="M108.916 61.7851C108.504 54.837 106.077 48.1594 101.93 42.5693C97.7832 36.9791 92.0972 32.7185 85.5674 30.3088C71.7872 25.2559 55.6231 29.7128 46.3473 41.0653C37.2068 52.2497 35.6492 68.2163 42.6911 80.8266" stroke="black" stroke-width="0.365621" stroke-miterlimit="10"/>
<path d="M46.4276 76.1174C44.4206 71.6636 43.5184 66.791 43.7979 61.9138C44.0773 57.0366 45.5301 52.299 48.0327 48.1035C54.4457 37.5005 67.2205 31.7932 79.3883 34.2611C85.4062 35.505 90.9019 38.5538 95.1426 43.001C99.3834 47.4482 102.168 53.0825 103.124 59.1526" stroke="black" stroke-width="0.365621" stroke-miterlimit="10"/>
<path d="M76.3421 17.9533V5.64737C76.3421 2.11937 70.8582 2.11572 70.8582 5.64737V17.9533C70.8582 21.4813 76.3421 21.4886 76.3421 17.9533Z" stroke="black" stroke-width="0.365621" stroke-miterlimit="10"/>
<path d="M73.6005 5.64768V17.9543" stroke="black" stroke-width="0.365621" stroke-miterlimit="10"/>
<path d="M48.4088 25.4522C50.171 28.5086 54.9128 25.7484 53.1616 22.6847L46.9903 12.0276C45.2282 8.97485 40.4864 11.7314 42.2559 14.7951L48.4088 25.4522Z" stroke="black" stroke-width="0.365621" stroke-miterlimit="10"/>
<path d="M50.7748 24.0673L44.6251 13.4132" stroke="black" stroke-width="0.365621" stroke-miterlimit="10"/>
<path d="M22.0258 36.9918L32.6829 43.1448C35.743 44.9143 38.5105 40.1761 35.4505 38.392L24.7934 32.2391C21.7333 30.4842 18.9694 35.2369 22.0258 36.9918Z" stroke="black" stroke-width="0.365621" stroke-miterlimit="10"/>
<path d="M23.412 34.6268L34.0661 40.7765" stroke="black" stroke-width="0.365621" stroke-miterlimit="10"/>
<path d="M27.9518 66.3439C31.4798 66.3439 31.4834 60.86 27.9518 60.86H15.6458C12.1178 60.86 12.1105 66.3439 15.6458 66.3439H27.9518Z" stroke="black" stroke-width="0.365621" stroke-miterlimit="10"/>
<path d="M15.6461 63.6022H27.9528" stroke="black" stroke-width="0.365621" stroke-miterlimit="10"/>
<path d="M24.7937 94.946L35.4508 88.7966C38.5072 87.0308 35.7469 82.289 32.6833 84.0439L22.0261 90.1932C18.9734 91.9773 21.73 96.7154 24.7937 94.946Z" stroke="black" stroke-width="0.365621" stroke-miterlimit="10"/>
<path d="M23.412 92.5812L34.0661 86.4279" stroke="black" stroke-width="0.365621" stroke-miterlimit="10"/>
<path d="M119.252 66.3439H131.554C135.082 66.3439 135.09 60.86 131.554 60.86H119.252C115.724 60.86 115.717 66.3439 119.252 66.3439Z" stroke="black" stroke-width="0.365621" stroke-miterlimit="10"/>
<path d="M131.555 63.6022H119.252" stroke="black" stroke-width="0.365621" stroke-miterlimit="10"/>
<path d="M114.52 43.145L125.174 36.992C128.23 35.2298 125.47 30.488 122.406 32.2575L111.749 38.4105C108.696 40.1727 111.453 44.9144 114.52 43.145Z" stroke="black" stroke-width="0.365621" stroke-miterlimit="10"/>
<path d="M113.135 40.7765L123.793 34.6268" stroke="black" stroke-width="0.365621" stroke-miterlimit="10"/>
<path d="M98.795 25.4523L104.944 14.7952C106.714 11.7351 101.976 8.97122 100.21 12.0276L94.0568 22.6847C92.291 25.7301 97.0291 28.5123 98.795 25.4523Z" stroke="black" stroke-width="0.365621" stroke-miterlimit="10"/>
<path d="M96.4261 24.0673L102.579 13.4132" stroke="black" stroke-width="0.365621" stroke-miterlimit="10"/>
<path d="M42.6797 80.8264C42.4823 81.1518 42.2885 81.4809 42.1057 81.8172C36.5631 91.9263 38.5849 104.986 47.1 112.817C51.8362 117.155 58.0146 119.58 64.4371 119.621C66.214 119.643 67.0951 118.261 67.0841 116.879" stroke="black" stroke-width="0.365621" stroke-miterlimit="10"/>
<path d="M70.375 69.3534C66.1362 68.3875 61.7228 68.5005 57.539 69.6822C53.3552 70.8639 49.5348 73.0764 46.4277 76.1172" stroke="black" stroke-width="0.365621" stroke-miterlimit="10"/>
<path d="M103.123 59.1525C101.889 58.7509 100.628 58.4346 99.3501 58.2055C93.9656 57.2553 88.4239 57.791 83.3212 59.7552C78.2185 61.7194 73.7479 65.0376 70.3903 69.3529" stroke="black" stroke-width="0.365621" stroke-miterlimit="10"/>
<path d="M113.245 116.88C113.226 118.266 114.108 119.648 115.892 119.623C121.18 119.564 126.268 117.594 130.217 114.077C134.166 110.56 136.709 105.732 137.376 100.486C138.67 89.9744 131.782 80.0112 121.753 77.1228" stroke="black" stroke-width="0.365621" stroke-miterlimit="10"/>
<path d="M121.748 77.1217C119.314 70.7087 114.794 65.3005 108.916 61.7667" stroke="black" stroke-width="0.365621" stroke-miterlimit="10"/>
<path d="M121.749 77.1228C121.946 77.6382 122.114 78.1608 122.3 78.6908L120.385 76.7756C120.846 76.8743 121.288 76.9949 121.749 77.1228Z" stroke="black" stroke-width="0.365621" stroke-miterlimit="10"/>
<path d="M72.1962 69.8359C71.5931 69.6495 70.9826 69.4923 70.3685 69.3534C69.9262 69.9163 69.4985 70.4976 69.0928 71.097L72.1962 69.8359Z" stroke="black" stroke-width="0.365621" stroke-miterlimit="10"/>
<path d="M108.978 63.3898C108.978 62.8524 108.945 62.3113 108.916 61.7776C107.089 60.688 105.147 59.8052 103.125 59.1453C103.285 60.1493 103.394 61.1609 103.45 62.1761" stroke="black" stroke-width="0.365621" stroke-miterlimit="10"/>
<path d="M103.805 62.3222C104.938 60.1949 108.82 60.5531 108.977 63.3968" stroke="black" stroke-width="0.365621" stroke-miterlimit="10"/>
<path d="M47.7472 78.6803C47.2597 77.8467 46.8198 76.9937 46.4274 76.1211C44.9936 77.5331 43.7354 79.1129 42.6801 80.8263C42.8738 81.1919 43.0749 81.5282 43.2833 81.8719C43.616 82.4203 43.9669 82.9686 44.3289 83.4805" stroke="black" stroke-width="0.365621" stroke-miterlimit="10"/>
<path d="M108.977 63.8106C108.958 64.1771 108.863 64.5357 108.7 64.8643" stroke="black" stroke-width="0.365621" stroke-miterlimit="10"/>
<path d="M108.978 63.3902C108.978 63.4552 108.978 63.5238 108.978 63.5924V63.6176C108.978 63.6682 108.978 63.7187 108.978 63.7693" stroke="black" stroke-width="0.365621" stroke-miterlimit="10"/>
<path d="M108.978 63.7786C108.978 63.7283 108.978 63.6781 108.978 63.6278" stroke="black" stroke-width="0.365621" stroke-miterlimit="10"/>
<path d="M108.978 63.7812V63.8072" stroke="black" stroke-width="0.365621" stroke-miterlimit="10"/>
<path d="M108.938 65.0227C108.956 64.6211 108.974 64.2159 108.978 63.8106" stroke="black" stroke-width="0.365621" stroke-miterlimit="10"/>
<path d="M108.638 68.231C112.575 71.2603 115.497 75.4164 117.014 80.1466C117.141 80.6042 117.384 81.0211 117.72 81.3569C118.056 81.6926 118.473 81.9357 118.93 82.0624C127.168 83.8503 133.007 91.4772 131.946 99.9778C130.945 108.054 123.903 114.021 115.877 114.127C114.13 114.153 113.245 115.509 113.23 116.87H115.877C120.568 116.871 125.091 115.131 128.571 111.985C132.051 108.84 134.238 104.515 134.709 99.8485C135.18 95.1818 133.901 90.5067 131.12 86.7298C128.339 82.9529 124.254 80.3436 119.658 79.408C117.829 73.5285 114.047 68.4501 108.938 65.0135" stroke="black" stroke-width="0.365621" stroke-miterlimit="10"/>
<path d="M103.45 62.1835C98.1326 60.1744 92.3163 59.8974 86.832 61.3919C81.3478 62.8864 76.4762 66.076 72.9133 70.5051C72.4014 71.1412 71.9139 71.7994 71.4508 72.4794C70.6247 72.2108 69.7835 71.9911 68.9317 71.8213V71.8213C65.1051 71.0515 61.145 71.2784 57.4314 72.4802C53.7179 73.682 50.3756 75.8183 47.7256 78.684" stroke="black" stroke-width="0.365621" stroke-miterlimit="10"/>
<path d="M49.3198 81.075C50.7849 79.3551 52.5334 77.8984 54.4896 76.768C59.4584 73.9052 65.2937 73.4445 70.7378 75.1227C71.959 75.4883 73.1582 74.8558 73.8346 73.865C79.1873 65.9895 88.9787 61.7483 98.3861 63.591C100.122 63.9323 101.816 64.4594 103.439 65.1632" stroke="black" stroke-width="0.365621" stroke-miterlimit="10"/>
<path d="M44.3437 83.4809C42.5089 86.9482 41.6017 90.8309 41.7101 94.7523C41.8185 98.6736 42.9387 102.5 44.9621 105.861C46.9856 109.222 49.8434 112.002 53.2584 113.933C56.6733 115.863 60.5293 116.878 64.4521 116.879H67.0991C67.0991 115.519 66.2071 114.159 64.4521 114.137C55.4947 114.038 47.5025 108.068 45.1334 99.3665C43.944 94.9119 44.3315 90.1831 46.2302 85.9816" stroke="black" stroke-width="0.365621" stroke-miterlimit="10"/>
<path d="M108.7 64.8521C107.161 63.8321 105.52 62.9746 103.805 62.2932" stroke="black" stroke-width="0.365621" stroke-miterlimit="10"/>
<path d="M104.378 65.5839C104.743 65.7552 105.086 65.9484 105.432 66.1234" stroke="black" stroke-width="0.365621" stroke-miterlimit="10"/>
<path d="M47.7473 78.6804C46.4101 80.1267 45.266 81.7402 44.3437 83.4806C44.9359 84.3483 45.5623 85.1819 46.2228 85.9813C47.0149 84.2061 48.0578 82.5539 49.3194 81.075C48.7542 80.3047 48.2294 79.5054 47.7473 78.6804V78.6804Z" stroke="black" stroke-width="0.365621" stroke-miterlimit="10"/>
<path d="M103.804 62.3223L103.439 62.1836C103.464 62.6543 103.483 63.1251 103.486 63.5994C103.486 63.1542 103.595 62.7157 103.804 62.3223Z" stroke="black" stroke-width="0.365621" stroke-miterlimit="10"/>
<path d="M103.497 63.6022C103.497 64.1249 103.468 64.6438 103.439 65.1628C103.757 65.3017 104.071 65.4442 104.378 65.5977C104.093 65.3505 103.867 65.0435 103.714 64.6985C103.562 64.3536 103.488 63.9792 103.497 63.6022V63.6022Z" stroke="black" stroke-width="0.365621" stroke-miterlimit="10"/>
<path d="M105.435 66.1394C106.555 66.753 107.626 67.4521 108.638 68.2303C108.787 67.1739 108.886 66.1028 108.937 65.0245L108.7 64.8673C108.104 66.048 106.664 66.472 105.435 66.1394Z" stroke="black" stroke-width="0.365621" stroke-miterlimit="10"/>
<path d="M103.983 116.88L105.731 115.118L110.097 110.731C111.768 109.049 110.539 106.051 108.155 106.051H101.574L105.983 99.4695C107.164 97.7072 105.596 95.3417 103.614 95.3417C98.883 95.3417 94.13 95.2027 89.3915 95.2832C88.5616 95.2832 87.7279 95.3124 86.898 95.3417C85.2052 95.4002 84.3167 96.3727 83.5818 97.5756C83.2162 98.1533 82.9017 98.7858 82.5434 99.4037L77.0993 108.694L73.147 115.44C72.8851 115.881 72.7581 116.39 72.7814 116.902C72.8075 117.612 73.105 118.284 73.6126 118.781C74.1201 119.278 74.7989 119.561 75.5089 119.571H82.3131L71.0849 142.364C69.9515 144.108 71.3737 146.24 73.125 146.532C73.6011 146.653 74.1037 146.615 74.5564 146.425C75.0091 146.234 75.3872 145.901 75.6332 145.476L103.983 116.88Z" stroke="black" stroke-width="0.365621" stroke-miterlimit="10"/>
<path d="M96.2575 116.88L83.2857 129.958L89.0843 118.189C89.2838 117.781 89.3899 117.334 89.395 116.88C89.415 116.516 89.3604 116.153 89.2345 115.811C89.1087 115.469 88.9142 115.157 88.6632 114.893C88.4122 114.63 88.1099 114.42 87.7748 114.278C87.4398 114.135 87.0792 114.063 86.7151 114.065H80.2987L88.0642 100.811H98.4841L94.0712 107.392C92.8939 109.155 94.4587 111.52 96.4403 111.52H101.559C99.799 113.314 98.0319 115.101 96.2575 116.88Z" stroke="black" stroke-width="0.365621" stroke-miterlimit="10"/>
</svg>
