<svg width="150" height="150" viewBox="0 0 150 150" fill="none" xmlns="http://www.w3.org/2000/svg">
<path d="M66.9343 12.868C66.0752 14.9312 65.3654 17.0534 64.8102 19.2183C66.7735 17.9755 68.8307 16.8876 70.9631 15.9645L66.9343 12.868Z" fill="black"/>
<path d="M77.4643 57.046C81.166 57.79 84.6463 59.3778 87.6343 61.6861C90.6224 63.9943 93.0377 66.9607 94.6924 70.3546C95.2017 71.3979 95.6343 72.4769 95.9867 73.583C96.1147 74.04 96.3582 74.4563 96.6937 74.7918C97.0293 75.1273 97.4456 75.3709 97.9025 75.4989C100.419 76.043 102.779 77.1533 104.802 78.7456C107.007 80.4523 108.73 82.7027 109.803 85.2762C110.876 87.8497 111.262 90.6578 110.922 93.4253C110.743 94.8578 110.367 96.259 109.807 97.5897C108.543 100.519 106.458 103.02 103.804 104.79C101.15 106.56 98.0397 107.523 94.8496 107.564C93.1019 107.586 92.2208 108.946 92.2025 110.306H83.7128L85.5189 108.478L89.8808 104.09C90.1636 103.809 90.3776 103.466 90.506 103.089C91.0727 101.432 89.9027 99.4105 87.9467 99.4105H81.3655C81.8042 98.7597 82.2417 98.1064 82.6781 97.4508C83.714 95.9127 84.7463 94.3722 85.7749 92.8293C86.9558 91.0707 85.391 88.7051 83.4093 88.7051C77.8482 88.7051 72.2505 88.5113 66.6931 88.7051C65.1794 88.7563 64.3093 89.5387 63.6146 90.5625C63.1576 91.2352 62.7737 92.0249 62.3386 92.7562L60.8541 95.2863L56.8798 102.058C55.5636 104.305 54.2462 106.554 52.9275 108.803C52.6562 109.26 52.5288 109.787 52.5619 110.317H46.0721C46.0721 108.953 45.18 107.593 43.425 107.575C34.4673 107.476 26.4748 101.505 24.1056 92.8037C22.979 88.5295 23.2859 84.0037 24.9794 79.9207C26.6728 75.8378 29.6591 72.4232 33.4801 70.201C35.7808 68.8773 38.3276 68.0375 40.9644 67.7331C42.9237 67.5034 44.9058 67.5539 46.8509 67.883C47.8229 68.0438 48.783 68.2698 49.7246 68.5594C50.9458 68.925 52.1487 68.2888 52.8215 67.298C54.8436 64.3486 57.4834 61.8745 60.5574 60.0473C63.6315 58.2202 67.0663 57.0838 70.6235 56.7169C72.8762 56.489 75.1502 56.5925 77.3729 57.0241L77.4643 57.046Z" fill="#DCDDDD"/>
<path d="M129.638 75.5828L126.541 71.5611L126.347 71.0018C126.965 70.7787 127.576 70.5411 128.175 70.2705C130.669 69.2286 132.08 72.4349 131.272 74.2922C128.008 81.7918 122.885 88.3351 116.388 93.3039C116.601 91.0475 116.444 88.7716 115.924 86.5657C118.757 83.9412 121.234 80.9568 123.291 77.6887C125.455 77.1406 127.576 76.4368 129.638 75.5828Z" fill="black"/>
<path d="M126.552 71.5539L129.649 75.5754C127.589 76.4354 125.469 77.1453 123.306 77.6995C124.545 75.7376 125.63 73.683 126.552 71.5539Z" fill="black"/>
<path d="M126.346 71.0018L126.547 71.5429C125.625 73.6744 124.54 75.7315 123.301 77.6958C119.816 78.5931 116.241 79.0911 112.644 79.1801C111.094 76.93 109.142 74.9854 106.886 73.4439C113.474 74.1194 120.129 73.2842 126.346 71.0018Z" fill="black"/>
<path d="M117.763 34.7139C119.803 34.469 117.05 37.273 118.267 37.6057L118.03 37.5325C117.541 37.3739 117.113 37.0662 116.808 36.6525C116.502 36.2388 116.334 35.7399 116.326 35.2257C116.557 35.1343 116.787 35.0429 117.021 34.9589C117.259 34.8511 117.508 34.769 117.763 34.7139Z" fill="black"/>
<path d="M119.722 32.3155C123.115 33.2879 121.663 38.5777 118.26 37.6053C117.043 37.2763 119.795 34.4687 117.755 34.7136C117.504 34.7694 117.259 34.8515 117.024 34.9586C116.79 35.0426 116.56 35.134 116.33 35.2254C116.257 33.5511 117.617 31.7489 119.722 32.3155Z" fill="black"/>
<path d="M123.305 77.7072C121.248 80.9753 118.771 83.9598 115.938 86.5843C115.314 83.9357 114.198 81.4279 112.648 79.1916C116.245 79.1025 119.821 78.6045 123.305 77.7072Z" fill="#FFE297"/>
<path d="M116.344 93.9225C115.674 99.1682 113.129 103.994 109.178 107.51C105.227 111.025 100.138 112.992 94.8498 113.047C93.0656 113.069 92.1881 111.687 92.2028 110.305H94.8498C99.1526 110.304 103.326 108.836 106.683 106.145C110.04 103.453 112.38 99.6979 113.317 95.4983C114.374 94.8109 115.403 94.0797 116.402 93.3046C116.384 93.524 116.369 93.7214 116.344 93.9225Z" fill="black"/>
<path d="M116.325 35.2258C116.333 35.7399 116.502 36.2387 116.807 36.6524C117.112 37.066 117.54 37.3737 118.029 37.5323C116.794 37.1634 115.599 36.6736 114.461 36.0702C114.695 35.9495 114.925 35.8289 115.167 35.7046C115.547 35.5365 115.934 35.3829 116.325 35.2258Z" fill="black"/>
<path d="M115.938 86.5847C116.457 88.7844 116.613 91.0539 116.403 93.304C115.406 94.0742 114.377 94.8053 113.317 95.4975C113.822 93.2375 113.906 90.9041 113.566 88.6136C114.38 87.9726 115.171 87.2963 115.938 86.5847Z" fill="black"/>
<path d="M112.648 79.1917C114.198 81.4281 115.315 83.936 115.939 86.5847C115.176 87.2941 114.385 87.9753 113.566 88.6286C113.051 85.1309 111.564 81.8482 109.273 79.1552C110.399 79.2063 111.522 79.221 112.648 79.1917Z" fill="black"/>
<path d="M113.551 88.6282C113.891 90.919 113.807 93.2528 113.302 95.513C112.162 96.2443 110.992 96.9365 109.792 97.5898C110.353 96.2591 110.728 94.8579 110.908 93.4253C111.026 92.455 111.056 91.476 110.999 90.5003C111.881 89.9079 112.732 89.2839 113.551 88.6282Z" fill="black"/>
<path d="M111.014 90.5075C110.869 88.2188 110.24 85.987 109.168 83.9594C108.097 81.9319 106.607 80.1548 104.798 78.7456C106.261 78.9503 107.774 79.0893 109.27 79.1551C111.556 81.8493 113.04 85.1317 113.551 88.6282C112.735 89.2863 111.889 89.9127 111.014 90.5075Z" fill="black"/>
<path d="M109.807 97.5896C111.006 96.9461 112.176 96.2539 113.316 95.5129C112.379 99.7118 110.039 103.466 106.682 106.157C103.325 108.848 99.1519 110.315 94.8496 110.316H92.2026C92.2209 108.956 93.102 107.596 94.8496 107.574C98.0408 107.533 101.152 106.568 103.806 104.796C106.46 103.024 108.545 100.521 109.807 97.5896Z" fill="black"/>
<path d="M109.272 79.1546C106.532 75.9195 102.784 73.6996 98.6296 72.8517C98.5053 72.4496 98.3664 72.0474 98.2238 71.6526C101.042 72.5515 103.946 73.1555 106.888 73.4549C109.144 74.9964 111.097 76.941 112.647 79.1911C111.521 79.2204 110.398 79.2058 109.272 79.1546Z" fill="black"/>
<path d="M106.446 28.0693C106.087 27.3942 105.767 26.6985 105.489 25.9859C105.298 25.5949 105.155 25.1827 105.061 24.7578C105.01 24.5897 104.962 24.4216 104.915 24.2534H107.952C107.952 24.7725 107.557 25.5254 107.378 25.9859C107.101 26.695 106.79 27.3931 106.446 28.0693Z" fill="black"/>
<path d="M102.505 38.9362C104.103 40.3982 105.43 42.131 106.424 44.0547C105.861 45.0784 105.211 46.3068 105.061 47.4073C104.933 48.3323 104.275 47.9118 106.432 47.9118C108.209 47.9118 108.088 48.2774 107.726 47.1587C107.49 46.4399 107.216 45.7344 106.903 45.0455C106.757 44.7128 106.593 44.3801 106.424 44.0547L106.64 43.6635C107.868 41.4499 109.532 39.5084 111.532 37.9563C112.447 37.2366 113.426 36.6027 114.457 36.0625C115.595 36.6661 116.791 37.1559 118.025 37.5249L118.263 37.598C121.659 38.5705 123.111 33.2802 119.725 32.3077C120.634 32.5636 121.42 33.1392 121.938 33.9286C122.456 34.718 122.671 35.668 122.544 36.6036C122.285 38.5303 120.91 39.4078 119.224 39.9928C115.769 41.192 112.987 43.3966 111.254 46.6541C110.523 48.0142 110.369 49.7435 109.353 50.9171C108.811 51.5292 108.089 51.9547 107.291 52.1332C106.493 52.3118 105.659 52.2342 104.907 51.9116C103.079 51.1365 102.838 49.5278 102.187 47.8899C101.671 46.5776 100.948 45.3568 100.045 44.274C98.9935 43.0215 97.7284 41.9655 96.3081 41.1554C95.0394 40.4242 93.5806 40.2048 92.3229 39.5102C91.5514 39.086 90.9447 38.4151 90.5999 37.605C90.2552 36.7949 90.1925 35.8925 90.4218 35.0424C90.8788 33.3826 92.1438 32.6806 93.6501 32.1761C96.5792 31.2557 99.1118 29.3736 100.838 26.8345C102.465 24.3484 102.732 19.7856 106.596 19.9355C110.219 20.0744 110.457 24.4252 112.037 26.8345C113.855 29.5248 116.58 31.4713 119.714 32.3186C117.608 31.7519 116.248 33.5544 116.318 35.2435C115.927 35.4007 115.539 35.5616 115.159 35.7371C114.918 35.8468 114.687 35.9674 114.453 36.1027C111.037 34.3039 108.244 31.5157 106.439 28.1032C106.783 27.4268 107.094 26.7285 107.371 26.0192C107.551 25.5585 107.949 24.8054 107.945 24.2862H104.907C104.955 24.4544 105.002 24.6226 105.053 24.7908C105.147 25.2157 105.291 25.6281 105.481 26.0192C105.759 26.732 106.079 27.4278 106.439 28.1032C106.209 28.5492 105.967 28.9916 105.708 29.4157C104.312 31.6009 102.498 33.4884 100.37 34.9693C99.7542 35.3977 99.1091 35.7826 98.4396 36.121C97.5281 35.6423 96.5807 35.2353 95.6061 34.9035C95.2867 34.7595 94.95 34.6575 94.6043 34.6V36.1173C94.1169 37.3555 94.2009 37.843 94.8566 37.5797C95.3575 37.5797 96.0997 37.1739 96.575 36.9838C97.2111 36.7279 97.8363 36.4464 98.4396 36.1356C99.9083 36.8926 101.274 37.8337 102.505 38.9362Z" fill="black"/>
<path d="M105.061 47.4146C105.211 46.3181 105.862 45.0864 106.424 44.0629C106.593 44.3882 106.757 44.7208 106.903 45.0535C107.215 45.7422 107.49 46.4475 107.726 47.1661C108.091 48.2882 108.208 47.919 106.432 47.919C104.275 47.919 104.933 48.332 105.061 47.4146Z" fill="black"/>
<path d="M106.425 44.0617C105.43 42.1382 104.103 40.4054 102.506 38.9434C101.277 37.824 99.909 36.8669 98.4365 36.0954C99.106 35.757 99.751 35.3722 100.367 34.9438C102.495 33.4629 104.309 31.5755 105.705 29.3904C105.975 28.9663 106.216 28.5239 106.436 28.0779C108.241 31.4903 111.034 34.2784 114.45 36.0771C113.419 36.6173 112.44 37.2513 111.525 37.9709C109.525 39.5229 107.861 41.4644 106.633 43.6779L106.425 44.0617Z" fill="white"/>
<path d="M98.6298 72.8517C102.784 73.6996 106.532 75.9195 109.272 79.1546C107.777 79.0888 106.282 78.9499 104.801 78.7451C102.778 77.1529 100.419 76.0427 97.9023 75.4986C97.4454 75.3706 97.0291 75.1271 96.6936 74.7916C96.3581 74.4561 96.1146 74.0398 95.9866 73.5829C95.6342 72.4768 95.2016 71.3979 94.6924 70.3547C95.8513 70.8409 97.0322 71.2724 98.224 71.6526C98.3666 72.0474 98.5055 72.4642 98.6298 72.8517Z" fill="black"/>
<path d="M101.273 72.1237L99.3613 70.2085C99.8218 70.3108 100.271 70.4278 100.721 70.574C100.918 71.0747 101.119 71.5937 101.273 72.1237Z" fill="black"/>
<path d="M96.5709 36.9362C96.0957 37.1263 95.3537 37.5466 94.8529 37.532C94.1999 37.8073 94.1158 37.32 94.6007 36.0699V34.553C94.9463 34.6105 95.2829 34.7124 95.6022 34.8564C96.5766 35.1881 97.5237 35.595 98.435 36.0736C97.8282 36.3989 97.2069 36.6803 96.5709 36.9362Z" fill="black"/>
<path d="M75.3548 53.9931C80.4493 54.4637 85.3047 56.374 89.3541 59.5008C93.4035 62.6277 96.4798 66.8421 98.2236 71.652C97.0317 71.2863 95.8508 70.8403 94.6918 70.354C93.0372 66.9603 90.622 63.994 87.634 61.6858C84.6461 59.3777 81.166 57.7898 77.4644 57.0459C76.7136 56.0539 76.0105 55.0363 75.3548 53.9931Z" fill="black"/>
<path d="M87.2262 103.176L87.9317 104.88H85.5666L87.2262 103.176Z" fill="black"/>
<path d="M87.9578 104.899L87.2265 103.177C88.3234 103.177 89.4203 103.144 90.4952 103.074C90.3668 103.452 90.1528 103.795 89.87 104.076L85.5081 108.463L83.7018 110.292H80.2942L85.5666 104.873L87.9578 104.899Z" fill="black"/>
<path d="M86.0045 100.219L87.2253 103.175L83.4313 102.81L86.0045 100.219Z" fill="black"/>
<path d="M83.2296 103.012C84.564 103.129 85.8984 103.187 87.2511 103.195L85.5913 104.898H81.376L83.2296 103.012Z" fill="black"/>
<path d="M87.225 103.176C85.8873 103.176 84.5532 103.11 83.2045 102.994L83.4055 102.793L87.225 103.176Z" fill="black"/>
<path d="M81.358 99.4141H87.9391C89.8988 99.4141 91.0688 101.436 90.4984 103.092C89.4016 103.162 88.3047 103.198 87.2298 103.195L85.9977 100.218L83.4384 102.811L79.3654 102.401L81.358 99.4141Z" fill="black"/>
<path d="M83.4012 88.7088C85.3828 88.7088 86.9476 91.0743 85.7667 92.8329C84.7357 94.3757 83.7035 95.9162 82.67 97.4542C81.7194 97.3518 80.7689 97.2202 79.8256 97.052L80.9224 94.1929H83.4122L81.9132 91.5825L81.0431 90.0652L80.0632 91.5277L66.426 91.1364L65.9252 92.0102C65.1354 91.5545 64.3664 91.067 63.6182 90.5478C64.3128 89.5241 65.183 88.7417 66.6966 88.6905C72.2356 88.515 77.8403 88.7088 83.4012 88.7088Z" fill="black"/>
<path d="M85.5777 104.898L80.3053 110.317H75.9872L81.3766 104.898H85.5777Z" fill="black"/>
<path d="M83.7117 110.317L55.4172 138.834C55.4721 138.747 55.5233 138.655 55.5744 138.557C56.5177 136.638 57.4622 134.72 58.4079 132.802L80.3042 110.306L83.7117 110.317Z" fill="black"/>
<path d="M81.9022 91.5826L83.4005 94.1919H80.9119L81.9022 91.5826Z" fill="black"/>
<path d="M79.3585 102.401L83.4303 102.811L83.2293 103.012C81.9086 102.897 80.5939 102.73 79.2854 102.511L79.3585 102.401Z" fill="black"/>
<path d="M82.6692 97.4542C82.2355 98.1096 81.7981 98.7627 81.357 99.4133H78.9264L79.8256 97.0521C80.7686 97.2203 81.7189 97.3518 82.6692 97.4542Z" fill="black"/>
<path d="M81.0322 90.0653L81.9022 91.5822L80.0526 91.531L81.0322 90.0653Z" fill="black"/>
<path d="M81.9023 91.5826L80.9117 94.1926H78.2688L80.0527 91.5314L81.9023 91.5826Z" fill="black"/>
<path d="M81.3755 104.898L76.0011 110.317H69.1789C69.2066 109.949 69.1579 109.579 69.0356 109.23C68.9133 108.882 68.7202 108.563 68.4684 108.293C68.2166 108.023 67.9116 107.808 67.5727 107.662C67.2337 107.515 66.8681 107.441 66.4989 107.443H60.0862L65.5922 98.0578L67.848 94.1934H78.2679L76.7799 96.4089L73.855 100.774C73.7644 100.911 73.6885 101.057 73.6283 101.209C72.9337 102.898 74.3997 104.898 76.2205 104.898H81.3755Z" fill="#F5C54A"/>
<path d="M81.3576 99.4141L79.3581 102.401L77.8521 102.247L78.9267 99.4141H81.3576Z" fill="black"/>
<path d="M80.9107 94.1934L79.8142 97.0517C78.7932 96.8762 77.7783 96.6618 76.7694 96.4084L78.2571 94.1934H80.9107Z" fill="black"/>
<path d="M80.3043 110.317L58.4081 132.813C59.9631 129.644 61.5182 126.487 63.0732 123.34C67.3776 118.997 71.6821 114.656 75.9865 110.317H80.3043Z" fill="black"/>
<path d="M73.6325 101.209C75.0267 101.619 76.4332 101.965 77.8518 102.248L78.5831 103.542L79.2741 102.511C80.5831 102.733 81.8981 102.9 83.2192 103.012L81.3765 104.899H76.2248C74.4039 104.899 72.9378 102.899 73.6325 101.209Z" fill="black"/>
<path d="M80.0516 91.5313L78.2675 94.1929H70.2244C69.5956 93.9199 68.9765 93.6335 68.3672 93.3337C68.4659 93.1655 68.5646 93.001 68.6597 92.8328L68.0638 93.1765C67.3326 92.8109 66.627 92.4234 65.9287 92.0139L66.4295 91.1401L80.0516 91.5313Z" fill="black"/>
<path d="M77.8521 102.248L79.3545 102.401L79.2816 102.51C78.8148 102.445 78.3261 102.343 77.8521 102.248Z" fill="black"/>
<path d="M79.2822 102.51L78.5926 103.539L77.8628 102.248C78.3262 102.343 78.8152 102.445 79.2822 102.51Z" fill="black"/>
<path d="M78.9264 99.4141L77.8516 102.247C77.3105 101.304 76.7683 100.36 76.2248 99.4141H78.9264Z" fill="black"/>
<path d="M77.8512 102.247C76.4327 101.962 75.0264 101.616 73.6323 101.209C73.6924 101.056 73.7684 100.911 73.859 100.774L76.7837 96.4088C77.7927 96.6525 78.8078 96.867 79.8291 97.0523L78.9297 99.414H76.228C76.7691 100.357 77.3101 101.302 77.8512 102.247Z" fill="black"/>
<path d="M75.9868 110.317C71.6847 114.658 67.3802 118.999 63.0732 123.34L68.8683 111.586C69.0602 111.195 69.1662 110.767 69.179 110.332L75.9868 110.317Z" fill="#F5C54A"/>
<path d="M77.3538 57.0237C75.1313 56.5922 72.8576 56.4887 70.6052 56.7166C70.0812 55.8709 69.5864 55.0179 69.1209 54.1575C70.3662 53.9846 71.6218 53.8966 72.8791 53.8943C73.7126 53.8943 74.5388 53.9382 75.3504 54.0113C76.006 55.0544 76.7091 56.0719 77.4598 57.0639L77.3538 57.0237Z" fill="black"/>
<path d="M101.272 72.1235C101.104 71.5934 100.907 71.0742 100.72 70.5587C102.917 71.1898 104.999 72.1673 106.888 73.4544C103.945 73.1549 101.041 72.5509 98.2232 71.6519C96.4794 66.8421 93.4031 62.6277 89.3537 59.5008C85.3043 56.3739 80.4489 54.4636 75.3544 53.993C74.7841 53.0754 74.2576 52.1431 73.7457 51.1925C75.2755 51.219 76.8009 51.3632 78.3085 51.6239C88.5967 53.43 97.0496 60.9103 100.72 70.5405C100.271 70.4088 99.8209 70.2918 99.3602 70.1749L101.272 72.1235Z" fill="black"/>
<path d="M69.1243 54.139C68.6856 53.3176 68.2689 52.484 67.874 51.6383C69.8115 51.2949 71.7783 51.1455 73.7454 51.1923C74.2426 52.1428 74.7837 53.0751 75.354 53.9927C74.5424 53.9196 73.7162 53.8757 72.8826 53.8757C71.6253 53.878 70.3697 53.966 69.1243 54.139Z" fill="black"/>
<path d="M73.7457 51.1913C71.779 51.1397 69.812 51.2842 67.874 51.6227C63.1432 41.4949 62.0607 30.0427 64.8102 19.2079C66.7727 17.9634 68.8301 16.8754 70.9634 15.9539L71.5045 16.1587C69.411 21.8308 68.5289 27.8785 68.9149 33.9123C69.3009 39.9461 70.9465 45.8322 73.7457 51.1913Z" fill="black"/>
<path d="M68.1957 11.23C70.0712 10.4184 73.2701 11.8259 72.2172 14.3266C71.9613 14.9371 71.72 15.555 71.486 16.1545L70.945 15.9498L66.9234 12.8532L66.503 11.9795C67.0636 11.7236 67.6278 11.4737 68.1957 11.23Z" fill="black"/>
<path d="M66.4992 107.443C66.8684 107.441 67.234 107.516 67.573 107.662C67.9119 107.808 68.2169 108.023 68.4687 108.293C68.7205 108.563 68.9136 108.882 69.0359 109.231C69.1582 109.579 69.207 109.949 69.1792 110.317H65.0002L64.1337 108.803L63.4024 110.317H58.4008L60.0863 107.443H66.4992Z" fill="black"/>
<path d="M64.9999 110.317H69.1786C69.1658 110.752 69.0598 111.18 68.8679 111.571L63.0732 123.34L60.386 126.049L64.2358 112.927H66.4988C66.0016 112.057 65.502 111.187 64.9999 110.317Z" fill="black"/>
<path d="M50.4374 65.9156C52.5438 62.7444 55.298 60.0553 58.5188 58.0255C61.7397 55.9957 65.3539 54.6713 69.1237 54.1394C69.5917 55.012 70.0864 55.8651 70.608 56.6987C67.0509 57.0655 63.6162 58.2018 60.5423 60.0289C57.4683 61.856 54.8287 64.33 52.8066 67.2794C52.1339 68.2702 50.931 68.9173 49.7099 68.5407C48.7682 68.2511 47.8082 68.0251 46.8362 67.8643C46.534 66.8894 46.2634 65.9144 46.0245 64.9395C47.5244 65.1167 49.0027 65.4438 50.4374 65.9156Z" fill="black"/>
<path d="M68.6426 92.8329C68.548 93.0003 68.4497 93.164 68.3515 93.3314L68.0495 93.1749L68.6426 92.8329Z" fill="black"/>
<path d="M68.3531 93.3339C68.9647 93.6336 69.5837 93.9199 70.21 94.1929H67.8486C68.0168 93.9041 68.1849 93.619 68.3531 93.3339Z" fill="black"/>
<path d="M67.8476 94.1926H66.2762L68.0449 93.1767L68.3482 93.3338C68.1838 93.6189 68.0157 93.9039 67.8476 94.1926Z" fill="black"/>
<path d="M68.0488 93.1766L66.2793 94.1929H67.8477L65.592 98.0572C64.7804 97.6514 63.9834 97.2164 63.1974 96.763L65.9137 92.0103C66.612 92.4235 67.3213 92.811 68.0488 93.1766Z" fill="black"/>
<path d="M66.5175 11.9978L66.9379 12.868C66.0777 14.9314 65.3666 17.0538 64.81 19.2189C55.7352 24.8928 49.1191 33.7648 46.2694 44.0811C44.6795 49.987 44.4025 56.1695 45.4577 62.1939C43.5825 62.0599 41.6983 62.1297 39.8381 62.4023C38.3028 52.2492 40.0675 41.8713 44.8722 32.7962C49.677 23.7211 57.2682 16.428 66.5284 11.9905L66.5175 11.9978Z" fill="black"/>
<path d="M64.9999 110.317C65.5018 111.187 66.0012 112.057 66.4982 112.926H64.2361L64.9999 110.317Z" fill="black"/>
<path d="M65.9141 92.0139L63.1977 96.7666C62.4007 96.3059 61.6147 95.8197 60.847 95.3042L62.3313 92.7743C62.7663 92.0431 63.1502 91.2498 63.6072 90.5807C64.3554 91.078 65.1244 91.5557 65.9141 92.0139Z" fill="black"/>
<path d="M65.5924 98.0576L60.0862 107.458H57.0662L63.1976 96.7633C63.9837 97.2021 64.7807 97.6372 65.5924 98.0576Z" fill="black"/>
<path d="M64.133 108.803L64.999 110.316H63.3876L64.133 108.803Z" fill="black"/>
<path d="M64.9999 110.317L64.2358 112.927H62.1008L63.3877 110.317H64.9999Z" fill="black"/>
<path d="M46.2769 44.0885C49.1266 33.7722 55.7427 24.9003 64.8175 19.2263C62.07 30.0548 63.1499 41.5003 67.8741 51.6239C60.5352 52.9278 53.9372 56.8981 49.3481 62.7717C48.0681 62.4781 46.7676 62.2826 45.4579 62.1867C44.4072 56.1665 44.6867 49.9892 46.2769 44.0885Z" fill="#FFE297"/>
<path d="M64.2353 112.928L60.3854 126.049L55.6325 130.842L51.2708 135.23C51.1223 135.377 50.99 135.54 50.8759 135.716C54.6173 128.116 58.3599 120.515 62.1038 112.913L64.2353 112.928Z" fill="black"/>
<path d="M63.3875 110.317L62.1005 112.928H55.3001C54.6003 112.917 53.9306 112.642 53.4254 112.157C52.9201 111.673 52.6168 111.016 52.5762 110.317H56.9636L57.6949 111.571L58.4261 110.317H63.3875Z" fill="black"/>
<path d="M63.1967 96.7488L57.0657 107.442H55.2998L56.1809 108.982L55.4168 110.316H52.5762C52.5431 109.786 52.6705 109.259 52.9417 108.802C54.2603 106.555 55.5777 104.307 56.8938 102.057L60.8569 95.2937C61.6137 95.8019 62.3997 96.2882 63.1967 96.7488Z" fill="black"/>
<path d="M63.0735 123.34C61.5159 126.494 59.9608 129.652 58.4081 132.814L60.3934 126.042L63.0735 123.34Z" fill="black"/>
<path d="M60.0848 107.443L58.3999 110.316H56.9378L56.1703 108.982L57.0548 107.443H60.0848Z" fill="black"/>
<path d="M58.3979 110.317L57.6681 111.569L56.9383 110.317H58.3979Z" fill="black"/>
<path d="M57.0661 107.443L56.1815 108.982L55.3006 107.443H57.0661Z" fill="black"/>
<path d="M56.1794 108.982L56.9452 110.314H55.4172L56.1794 108.982Z" fill="black"/>
<path d="M52.9127 139.898C51.3078 139.533 49.8819 137.741 50.8361 135.8C50.8461 135.776 50.8584 135.753 50.8727 135.731C50.9867 135.555 51.1191 135.392 51.2675 135.244L55.6291 130.857L60.3818 126.064L58.3967 132.835C57.4485 134.751 56.5041 136.669 55.5633 138.59C55.5121 138.688 55.4609 138.78 55.4061 138.867L55.1319 139.142C54.8528 139.441 54.5042 139.666 54.1171 139.798C53.73 139.93 53.3163 139.965 52.9127 139.898Z" fill="black"/>
<path d="M52.913 139.899C53.3201 139.964 53.737 139.928 54.1262 139.792C54.5154 139.656 54.8647 139.425 55.1426 139.121L55.4167 138.847C55.1713 139.271 54.7939 139.604 54.3418 139.794C53.8898 139.984 53.388 140.021 52.913 139.899Z" fill="black"/>
<path d="M52.912 139.898C51.1575 139.606 49.7393 137.478 50.8724 135.731C50.8581 135.753 50.8459 135.776 50.8359 135.801C49.8819 137.742 51.3074 139.544 52.912 139.898Z" fill="black"/>
<path d="M51.1677 63.269L48.0716 64.5301C48.4773 63.9306 48.905 63.3494 49.3473 62.7865C49.9578 62.9254 50.5646 63.0826 51.1677 63.269Z" fill="black"/>
<path d="M67.8729 51.6239C68.2677 52.4697 68.6845 53.3033 69.1233 54.1247C65.3535 54.6565 61.7392 55.981 58.5184 58.0107C55.2976 60.0405 52.5433 62.7296 50.437 65.9009C49.0017 65.4352 47.5234 65.1143 46.0241 64.943C45.8048 64.0326 45.6146 63.115 45.4574 62.1863C46.7671 62.2822 48.0676 62.4777 49.3475 62.7713C48.9051 63.3343 48.4774 63.9156 48.0715 64.5152L51.1682 63.2539C50.565 63.0674 49.9581 62.9102 49.3402 62.7713C53.9309 56.8964 60.5316 52.9261 67.8729 51.6239Z" fill="black"/>
<path d="M46.0239 64.958C46.2676 65.9329 46.5382 66.9078 46.8355 67.8827C44.8906 67.5536 42.9087 67.5031 40.9495 67.7328C40.7058 66.8359 40.4901 65.9341 40.3024 65.0274C42.1988 64.7604 44.1216 64.7371 46.0239 64.958Z" fill="black"/>
<path d="M45.4577 62.2014C45.6149 63.1263 45.8233 64.0476 46.0243 64.9579C44.122 64.737 42.1992 64.7604 40.3028 65.0274C40.1237 64.1573 39.9701 63.2872 39.8385 62.4097C41.6985 62.1372 43.5826 62.0673 45.4577 62.2014Z" fill="black"/>
<path d="M43.4248 107.564C45.1798 107.582 46.061 108.942 46.0719 110.306H43.4248C37.6619 110.305 32.114 108.118 27.9015 104.185C23.689 100.252 21.1258 94.8676 20.7294 89.1184C20.333 83.3691 22.1331 77.6837 25.766 73.2101C29.399 68.7366 34.5942 65.8083 40.3024 65.0166C40.4926 65.9233 40.7083 66.8252 40.9496 67.7222C38.317 68.0319 35.7753 68.8754 33.48 70.2011C29.6616 72.4255 26.6783 75.8409 24.9876 79.9237C23.2969 84.0065 22.9921 88.5312 24.1201 92.8038C26.4747 101.506 34.4671 107.476 43.4248 107.564Z" fill="black"/>
<path d="M20.6834 87.5608C20.6834 93.5955 23.0804 99.3831 27.3472 103.651C31.614 107.918 37.4012 110.316 43.4359 110.317H46.083C46.083 111.695 45.2129 113.077 43.4359 113.059C37.0135 113.013 30.8363 110.587 26.0982 106.251C17.5756 98.4234 15.5647 85.3634 21.0929 75.254C23.0114 71.8093 25.7028 68.8566 28.9554 66.6279C32.208 64.3992 35.9332 62.9553 39.8382 62.4097C39.9699 63.2872 40.1234 64.1574 40.3026 65.0276C34.8635 65.7831 29.8812 68.4804 26.2753 72.6219C22.6694 76.7634 20.6832 82.0695 20.6834 87.5608Z" fill="black"/>
</svg>
