<svg width="150" height="150" viewBox="0 0 150 150" fill="none" xmlns="http://www.w3.org/2000/svg">
<path d="M76.3432 21.9584V9.64876C76.3432 6.12076 70.8593 6.11345 70.8593 9.64876V21.9511C70.8593 25.4864 76.3432 25.4937 76.3432 21.9584Z" fill="black"/>
<path d="M48.4059 29.4611C50.1717 32.5175 54.9098 29.7572 53.1586 26.6936L46.991 16.0364C45.2252 12.9801 40.487 15.7403 42.2383 18.804L48.4059 29.4611ZM50.7749 28.0755L44.6219 17.4184L50.7749 28.0755Z" fill="black"/>
<path d="M15.6463 70.3415H27.9486C31.4766 70.3415 31.4839 64.8576 27.9486 64.8576H15.6463C12.1146 64.8576 12.111 70.3415 15.6463 70.3415Z" fill="black"/>
<path d="M98.7922 29.4609L104.945 18.7892C106.715 15.7292 101.977 12.9616 100.192 16.0216L94.0395 26.6787C92.2883 29.7571 97.0264 32.5173 98.7922 29.4609ZM102.576 17.4219L96.4268 28.0753L102.576 17.4219Z" fill="black"/>
<path d="M106.693 120.885H100.346V118.202L101.443 117.569C101.725 117.715 101.995 117.858 102.24 118.001L105.329 119.796C105.741 120.045 106.212 120.18 106.693 120.187V120.885Z" fill="white"/>
<path d="M75.239 119.796L78.3246 118.001C78.5659 117.862 78.8401 117.719 79.1253 117.569L80.2915 118.246V120.885H73.8717V120.187C74.3543 120.181 74.8264 120.046 75.239 119.796Z" fill="white"/>
<path d="M94.8625 120.323V120.886H85.7766V118.202L87.5426 117.186L88.4859 116.641L90.2848 115.602L90.3214 115.58L92.1203 116.619L93.027 117.142C93.6364 117.495 94.2458 117.849 94.8552 118.202L94.8625 120.323Z" fill="white"/>
<path d="M118.927 86.0637C127.165 87.8516 133.004 95.4784 131.947 103.979C130.941 112.056 123.903 118.023 115.86 118.129C114.112 118.154 113.227 119.511 113.212 120.871H106.693V120.172C109.096 120.172 110.682 116.545 108.097 115.054L106.946 114.388L108.719 113.365C111.772 111.602 109.015 106.86 105.951 108.63L104.204 109.635C104.204 109.2 104.204 108.761 104.204 108.323C104.204 104.794 98.7192 104.787 98.7192 108.323V111.895C98.7192 112.173 98.7192 112.487 98.6937 112.816L97.5968 113.449L95.0374 111.964C94.4598 111.632 93.7614 111.131 93.0302 110.685V109.54C93.3081 109.365 93.575 109.193 93.8272 109.05L96.924 107.27C99.9843 105.515 97.2275 100.776 94.1563 102.535L93.0302 103.182V101.237C93.0496 100.574 92.8112 99.9302 92.3652 99.4399C91.9192 98.9496 91.3004 98.6514 90.639 98.6081C90.2564 98.5347 89.8623 98.548 89.4855 98.6472C89.1088 98.7463 88.7591 98.9288 88.4622 99.181C88.1654 99.4333 87.929 99.749 87.7704 100.105C87.6118 100.461 87.535 100.848 87.5459 101.237V103.182L86.4161 102.535C83.3485 100.776 80.5844 105.515 83.6483 107.27L86.7452 109.05C86.9974 109.193 87.2643 109.365 87.5459 109.54V110.739C86.8951 111.145 86.2808 111.577 85.7653 111.877L82.9975 113.485L81.8641 112.827C81.8641 112.509 81.8385 112.195 81.8385 111.909V108.337C81.8385 104.809 76.3542 104.802 76.3542 108.337C76.3542 108.776 76.3542 109.215 76.3542 109.654L74.6102 108.644C71.5463 106.875 68.7822 111.613 71.8424 113.379L73.6121 114.403L72.4603 115.068C69.8791 116.571 71.4585 120.187 73.8643 120.187V120.885H67.0967C67.0967 119.525 66.2046 118.165 64.4496 118.143C55.4919 118.045 47.4994 112.078 45.1302 103.372C43.9407 98.9187 44.3282 94.1908 46.227 89.9904C47.0183 88.2135 48.0613 86.5598 49.3239 85.0802C50.7895 83.3593 52.5394 81.9025 54.4974 80.7731C59.4625 77.9103 65.2978 77.4497 70.7419 79.1279C71.9631 79.4935 73.166 78.8609 73.8387 77.8701C79.1914 69.9946 88.9828 65.7534 98.3902 67.5962C100.126 67.9374 101.82 68.4645 103.443 69.1683C103.761 69.3073 104.076 69.4535 104.383 69.6034C104.69 69.7533 105.092 69.9691 105.439 70.1445C106.559 70.7583 107.63 71.4575 108.642 72.2359C112.579 75.2652 115.501 79.4213 117.019 84.1515C117.145 84.6075 117.387 85.0232 117.722 85.3582C118.056 85.6932 118.471 85.9362 118.927 86.0637Z" fill="white"/>
<path d="M131.551 64.8576C135.086 64.8576 135.079 70.3415 131.551 70.3415H119.249C115.713 70.3415 115.721 64.8576 119.249 64.8576H131.551Z" fill="black"/>
<path d="M108.935 69.0296C114.045 72.4651 117.828 77.544 119.655 83.4241C124.251 84.3597 128.336 86.969 131.117 90.7459C133.898 94.5227 135.177 99.1979 134.706 103.865C134.235 108.531 132.048 112.857 128.568 116.002C125.089 119.147 120.565 120.887 115.874 120.886H113.246C113.246 119.526 114.145 118.169 115.893 118.143C123.936 118.037 130.96 112.071 131.98 103.994C133.037 95.4823 127.198 87.8554 118.96 86.0785C118.503 85.9518 118.086 85.7087 117.75 85.373C117.414 85.0372 117.171 84.6202 117.044 84.1627C115.527 79.4325 112.605 75.2764 108.668 72.2471C108.785 71.1795 108.884 70.1082 108.935 69.0296Z" fill="black"/>
<path d="M122.403 36.2623C125.467 34.4928 128.227 39.2346 125.171 41.0151L114.517 47.1644C111.45 48.9339 108.693 44.1958 111.75 42.4299L122.403 36.2623Z" fill="black"/>
<path d="M122.297 82.6958L120.382 80.7806C120.846 80.8793 121.296 80.9999 121.745 81.1278C121.943 81.6468 122.129 82.1659 122.297 82.6958Z" fill="black"/>
<path d="M108.975 67.8192C108.975 67.7498 108.975 67.6803 108.975 67.6072C108.975 67.534 108.975 67.4828 108.975 67.4207C108.975 66.8759 108.942 66.3238 108.913 65.79C114.788 69.3203 119.308 74.7217 121.746 81.1278C121.296 80.9999 120.847 80.8792 120.382 80.7805L122.298 82.6963C122.13 82.1662 121.933 81.647 121.746 81.1278C131.775 84.0089 138.663 93.9794 137.369 104.491C136.703 109.739 134.158 114.569 130.207 118.086C126.256 121.604 121.164 123.573 115.874 123.628C114.09 123.653 113.209 122.271 113.227 120.885H115.874C120.565 120.887 125.088 119.146 128.568 116.001C132.048 112.856 134.235 108.531 134.706 103.864C135.177 99.1978 133.898 94.5226 131.117 90.7457C128.336 86.9688 124.251 84.3595 119.655 83.4239C117.827 77.5438 114.045 72.4649 108.935 69.0294C108.957 68.6272 108.971 68.2251 108.975 67.8192Z" fill="black"/>
<path d="M108.697 68.8781C108.861 68.5503 108.955 68.1924 108.975 67.8266C108.975 68.2319 108.956 68.6335 108.935 69.0351L108.697 68.8781Z" fill="black"/>
<path d="M105.95 108.633C109.014 106.864 111.77 111.606 108.718 113.368L106.944 114.392L108.096 115.057C110.681 116.56 109.094 120.175 106.692 120.175C106.211 120.168 105.74 120.033 105.328 119.784L102.239 117.989C101.994 117.847 101.723 117.704 101.442 117.558L100.345 118.19V120.874H94.861V118.201C94.2468 117.85 93.6374 117.497 93.033 117.141L92.1263 116.618L90.3275 115.58L90.2909 115.602L88.4921 116.64L87.5488 117.185L85.783 118.201V120.885H80.2988V118.238L79.1325 117.561C78.8474 117.711 78.5732 117.854 78.3319 117.993L75.2461 119.788C74.8335 120.038 74.3613 120.173 73.8787 120.179C71.473 120.179 69.8936 116.552 72.4748 115.061L73.6265 114.395L71.8569 113.372C68.7968 111.606 71.5608 106.867 74.6246 108.637L76.3685 109.646C76.3685 109.207 76.3685 108.768 76.3685 108.33C76.3685 104.794 81.8527 104.802 81.8527 108.33V111.902C81.8527 112.187 81.8527 112.501 81.8783 112.819L83.0116 113.478L85.7756 111.883C86.2911 111.584 86.9054 111.152 87.5561 110.746V109.547C87.2746 109.372 87.0077 109.2 86.7555 109.057L83.6295 107.27C80.5657 105.515 83.3297 100.776 86.3972 102.535L87.5269 103.182V101.237C87.5161 100.848 87.5928 100.461 87.7514 100.105C87.91 99.7491 88.1464 99.4334 88.4433 99.1811C88.7401 98.9288 89.0898 98.7464 89.4665 98.6473C89.8432 98.5481 90.2374 98.5348 90.6199 98.6082C91.2813 98.6515 91.9001 98.9497 92.3461 99.44C92.7921 99.9303 93.0304 100.574 93.011 101.237V103.182L94.1371 102.535C97.2082 100.776 99.9649 105.515 96.9048 107.27L93.8081 109.05C93.5558 109.193 93.2889 109.364 93.011 109.54V110.684C93.7422 111.13 94.4406 111.631 95.0182 111.964L97.5775 113.448L98.6743 112.816C98.6743 112.487 98.6999 112.172 98.6999 111.894V108.322C98.6999 104.787 104.184 104.794 104.184 108.322C104.184 108.761 104.184 109.2 104.184 109.635L105.95 108.633Z" fill="#2DB0FC"/>
<path d="M108.644 128.278C111.705 130.044 108.937 134.782 105.877 133.031L104.202 132.062C104.202 132.501 104.202 132.94 104.202 133.378C104.202 136.914 98.7182 136.906 98.7182 133.378V129.806C98.7182 129.521 98.7182 129.207 98.6926 128.889L97.5592 128.23L94.8683 129.784C94.3309 130.095 93.691 130.548 93.0183 130.965V132.132C93.2962 132.307 93.5667 132.479 93.8153 132.621L96.9121 134.402C99.9758 136.157 97.2119 140.895 94.1444 139.137L93.0183 138.489V140.541C93.0183 144.076 87.5342 144.069 87.5342 140.541V138.511L86.4045 139.159C83.337 140.917 80.5767 136.179 83.6368 134.424L86.7335 132.643C86.9858 132.501 87.2527 132.329 87.5342 132.153V130.925C86.8249 130.486 86.1559 130.011 85.5965 129.686L83.0372 128.205L81.8709 128.878C81.8709 129.207 81.8417 129.517 81.8417 129.799V133.371C81.8417 136.906 76.3576 136.899 76.3576 133.371C76.3576 132.932 76.3576 132.493 76.3576 132.055L74.6867 133.024C71.6193 134.793 68.8626 130.051 71.9154 128.271L73.6155 127.291L72.4675 126.647C69.8826 125.145 71.4694 121.529 73.8714 121.529C74.3538 121.536 74.8257 121.671 75.2388 121.92L78.3245 123.715C78.5695 123.858 78.8437 124 79.1216 124.147L80.2915 123.47V120.911H85.7756V123.47L87.5415 124.454L88.5213 125.017L90.2836 126.037L90.3201 126.059L92.0824 125.039L93.0256 124.494L94.8244 123.456L94.861 123.434V120.874H100.345V123.478L101.442 124.11C101.727 123.96 102.001 123.818 102.239 123.679L105.328 121.884C105.741 121.633 106.213 121.498 106.696 121.492C109.098 121.492 110.677 125.119 108.096 126.611L106.944 127.276L108.644 128.278Z" fill="#2DB0FC"/>
<path d="M108.695 68.8788C108.1 70.0594 106.649 70.4834 105.431 70.1508C105.066 69.9607 104.733 69.7853 104.375 69.6099C104.09 69.3627 103.864 69.0556 103.711 68.7106C103.559 68.3656 103.485 67.9911 103.494 67.6141C103.491 67.1691 103.596 66.7299 103.801 66.3348C105.516 67.0128 107.156 67.8653 108.695 68.8788Z" fill="black"/>
<path d="M103.801 66.3197C104.934 64.1851 108.831 64.5506 108.973 67.4163C108.973 67.4784 108.973 67.5406 108.973 67.6027C108.973 67.6648 108.973 67.7452 108.973 67.8147C108.954 68.1809 108.859 68.5392 108.696 68.8674C107.156 67.8526 105.516 66.9989 103.801 66.3197Z" fill="black"/>
<path d="M105.432 70.1443C106.649 70.4769 108.1 70.0529 108.696 68.8722L108.934 69.0294C108.883 70.1077 108.784 71.1788 108.634 72.2352C107.622 71.4569 106.552 70.7579 105.432 70.1443Z" fill="black"/>
<path d="M103.447 66.1884C103.39 65.1733 103.282 64.1617 103.121 63.1577C105.143 63.8175 107.085 64.7004 108.912 65.7899C108.941 66.331 108.967 66.8867 108.974 67.4205C108.832 64.5579 104.935 64.1923 103.801 66.3237L103.447 66.1884Z" fill="black"/>
<path d="M103.8 66.3199C103.596 66.7144 103.491 67.1528 103.494 67.5971C103.494 67.1227 103.472 66.652 103.447 66.1813L103.8 66.3199Z" fill="black"/>
<path d="M103.494 67.6072C103.485 67.9842 103.559 68.3586 103.711 68.7035C103.864 69.0485 104.09 69.3555 104.375 69.6027C104.068 69.4528 103.754 69.3067 103.436 69.1678C103.469 68.6525 103.491 68.1481 103.494 67.6072Z" fill="black"/>
<path d="M93.9078 64.4481C97.1667 64.4452 100.399 65.0349 103.447 66.1884C103.472 66.6601 103.491 67.1317 103.494 67.607C103.498 68.0823 103.469 68.6527 103.436 69.1682C101.813 68.4644 100.119 67.9373 98.383 67.5961C88.9756 65.768 79.1842 69.9945 73.8316 77.87C73.1588 78.8608 71.9559 79.5043 70.7348 79.1277C65.2907 77.4495 59.4553 77.9102 54.4902 80.773C52.5322 81.9024 50.7823 83.3592 49.3167 85.0801C48.7522 84.3111 48.2286 83.5129 47.7482 82.6889C50.3968 79.8215 53.7391 77.6843 57.4531 76.483C61.1672 75.2817 65.128 75.0567 68.9542 75.8298C69.8031 76.0006 70.6417 76.2191 71.466 76.4843C73.9228 72.7818 77.2579 69.745 81.1737 67.6448C85.0895 65.5446 89.4643 64.4464 93.9078 64.4481Z" fill="black"/>
<path d="M70.3729 73.3579C73.7329 69.0405 78.2066 65.721 83.3127 63.7568C88.4188 61.7926 93.9638 61.258 99.3511 62.2105C100.634 62.4389 101.899 62.7553 103.139 63.1575C103.299 64.1615 103.408 65.1731 103.464 66.1884C97.7547 64.0314 91.4824 63.8752 85.6728 65.7454C79.8631 67.6155 74.8597 71.4013 71.4807 76.4839C70.6565 76.2187 69.8179 76.0002 68.969 75.8294L69.1152 75.0982L72.2119 73.8369C71.5904 73.6541 70.9835 73.4969 70.3729 73.3579Z" fill="black"/>
<path d="M48.0294 52.1085C54.4423 41.5237 67.2171 35.8018 79.385 38.266C85.4031 39.5095 90.899 42.5581 95.1399 47.0054C99.3807 51.4527 102.165 57.0872 103.121 63.1575C101.888 62.7562 100.628 62.4398 99.3516 62.2106C93.9669 61.2615 88.4255 61.7978 83.3228 63.762C78.2201 65.7261 73.7492 69.0438 70.3907 73.3583C66.1518 72.3923 61.7382 72.5054 57.5543 73.6871C53.3703 74.8688 49.5498 77.0814 46.4426 80.1223C44.4328 75.6699 43.5276 70.7981 43.8038 65.921C44.0801 61.0438 45.5297 56.3054 48.0294 52.1085Z" fill="#F5C54A"/>
<path d="M72.1932 73.8409L69.0971 75.0947C69.5029 74.4952 69.9305 73.914 70.3728 73.3511C70.9833 73.4973 71.5901 73.6545 72.1932 73.8409Z" fill="black"/>
<path d="M46.4245 80.1221C49.5316 77.0813 53.352 74.8687 57.5358 73.6871C61.7196 72.5054 66.133 72.3923 70.3718 73.3583C69.9295 73.9213 69.5017 74.5027 69.0959 75.1023L68.9496 75.8335C65.1236 75.0604 61.1629 75.2853 57.449 76.4866C53.7351 77.6878 50.3929 79.825 47.7443 82.6923C47.2617 81.8581 46.8212 81.0003 46.4245 80.1221Z" fill="black"/>
<path d="M41.6971 98.1286C41.6971 101.116 42.2856 104.075 43.429 106.835C44.5723 109.596 46.2482 112.104 48.3609 114.217C50.4736 116.329 52.9818 118.005 55.7421 119.149C58.5025 120.292 61.4611 120.88 64.4489 120.88H67.0959C67.0959 122.262 66.2257 123.644 64.4489 123.622C58.0264 123.581 51.848 121.157 47.1117 116.819C38.6004 108.987 36.5749 95.9276 42.1175 85.8186C42.3003 85.4822 42.4831 85.1532 42.6915 84.8314C42.8853 85.1788 43.0864 85.5298 43.2948 85.8734C43.6275 86.4255 43.9785 86.9702 44.3404 87.4858C42.6 90.763 41.6922 94.4179 41.6971 98.1286Z" fill="black"/>
<path d="M47.7479 82.689C48.2283 83.513 48.7518 84.3111 49.3163 85.08C48.0538 86.5595 47.0109 88.2131 46.2197 89.9899C45.558 89.1893 44.9328 88.3521 44.3406 87.4893C45.2611 85.7468 46.4067 84.1329 47.7479 82.689Z" fill="black"/>
<path d="M46.4249 80.1223C44.9912 81.5362 43.734 83.1187 42.681 84.8351C35.6354 72.2212 37.1966 56.2545 46.3372 45.0702C55.613 33.7177 71.7771 29.2608 85.5573 34.3136C92.0871 36.7234 97.7731 40.9839 101.92 46.5741C106.067 52.1643 108.494 58.8418 108.906 65.7899C107.079 64.7003 105.137 63.8174 103.114 63.1575C102.158 57.0871 99.374 51.4526 95.1332 47.0053C90.8923 42.558 85.3964 39.5094 79.3783 38.266C67.2105 35.8017 54.4357 41.5237 48.0227 52.1084C45.5212 56.3045 44.0697 61.0424 43.7916 65.9196C43.5134 70.7967 44.4168 75.669 46.4249 80.1223Z" fill="black"/>
<path d="M42.6809 84.835C43.7305 83.1193 44.9838 81.537 46.4136 80.1225C46.8118 80.9971 47.2535 81.8512 47.737 82.6816C46.3958 84.1255 45.2503 85.7394 44.3297 87.4819C43.9641 86.9554 43.6168 86.4216 43.2841 85.8696C43.0867 85.5333 42.8856 85.1823 42.6809 84.835Z" fill="black"/>
<path d="M67.096 120.884H64.449C60.5262 120.884 56.6702 119.87 53.2551 117.94C49.8401 116.01 46.982 113.23 44.9585 109.869C42.935 106.508 41.8147 102.682 41.7064 98.7606C41.5981 94.8394 42.5055 90.9568 44.3405 87.4897C44.9328 88.3526 45.558 89.1898 46.2197 89.9905C44.321 94.1907 43.9335 98.9184 45.1229 103.372C47.492 112.077 55.4842 118.044 64.4416 118.142C66.2039 118.164 67.085 119.524 67.096 120.884Z" fill="black"/>
<path d="M35.4471 42.4157C38.5071 44.1815 35.7395 48.9196 32.6795 47.1501L22.0224 41.0008C18.966 39.2313 21.7299 34.4969 24.79 36.2481L35.4471 42.4157Z" fill="black"/>
<path d="M32.6801 88.0673C35.7438 86.2978 38.504 91.0359 35.4476 92.8018L24.7905 98.9511C21.7268 100.724 18.9702 95.9824 22.023 94.2166L32.6801 88.0673Z" fill="black"/>
</svg>
