<svg width="150" height="150" viewBox="0 0 150 150" fill="none" xmlns="http://www.w3.org/2000/svg">
<path d="M106.444 31.0706C106.218 31.5166 105.976 31.9553 105.713 32.3794C104.318 34.5647 102.504 36.4522 100.375 37.9328C99.7605 38.3619 99.1167 38.7479 98.4486 39.0881C99.9209 39.86 101.288 40.8171 102.518 41.9361C104.114 43.3987 105.439 45.1314 106.433 47.0544L106.649 46.6633C107.878 44.4506 109.543 42.5103 111.544 40.96C112.459 40.239 113.438 39.6039 114.469 39.0625C111.051 37.2662 108.255 34.481 106.444 31.0706Z" fill="white"/>
<path d="M117.76 37.7137C117.509 37.7716 117.264 37.8549 117.029 37.9623C116.795 38.0464 116.565 38.1378 116.335 38.2292C116.344 38.7857 116.54 39.3228 116.892 39.7544C117.243 40.186 117.729 40.487 118.272 40.6091C117.048 40.2764 119.804 37.4688 117.76 37.7137Z" fill="black"/>
<path d="M116.327 38.2185C115.936 38.372 115.548 38.5365 115.164 38.7119C114.923 38.8215 114.693 38.9422 114.463 39.0774C115.673 39.7192 116.947 40.2336 118.264 40.6125C117.719 40.4899 117.231 40.1868 116.879 39.7523C116.527 39.3178 116.333 38.7773 116.327 38.2185Z" fill="black"/>
<path d="M116.327 38.2181C116.558 38.1267 116.788 38.0353 117.022 37.9512C117.257 37.8438 117.502 37.7605 117.753 37.7026C119.797 37.4577 117.022 40.2616 118.258 40.5943C121.657 41.5667 123.109 36.2769 119.72 35.3082C117.618 34.7489 116.258 36.5511 116.327 38.2181Z" fill="black"/>
<path d="M107.95 27.2499H104.913L105.055 27.7543C105.15 28.1791 105.295 28.5913 105.486 28.9824C105.764 29.696 106.082 30.3928 106.44 31.0694C106.786 30.3899 107.097 29.6933 107.372 28.9824C107.555 28.5255 107.954 27.7726 107.95 27.2499Z" fill="black"/>
<path d="M94.6022 37.5677V39.0846C94.1149 40.3225 94.1989 40.8098 94.8544 40.5467C95.3552 40.5467 96.0972 40.141 96.5723 39.9509C97.2083 39.695 97.8297 39.4172 98.4365 39.1029C97.5241 38.6241 96.5757 38.2171 95.6001 37.8857C95.283 37.736 94.9474 37.6291 94.6022 37.5677Z" fill="black"/>
<path d="M66.9357 15.8681C66.0769 17.9314 65.367 20.0536 64.8116 22.2184C66.775 20.9757 68.8322 19.8878 70.9645 18.9647L66.9357 15.8681Z" fill="black"/>
<path d="M84.3025 112.22C84.7151 112.47 85.1872 112.605 85.6698 112.611V113.313H79.3195V110.63C79.685 110.418 80.0506 110.206 80.4162 109.997C80.6941 110.143 80.9646 110.286 81.2132 110.429L84.3025 112.22Z" fill="white"/>
<path d="M73.8353 112.75V113.314H64.7531V110.977L65.0236 110.82L66.5154 109.961L67.7658 109.229L69.2576 108.37L69.2942 108.348L70.775 109.222L71.9889 109.924L73.5172 110.809L73.8243 110.984L73.8353 112.75Z" fill="white"/>
<path d="M59.2682 113.313H52.8594V112.615C53.3435 112.608 53.8169 112.472 54.2303 112.22L57.3196 110.429C57.5572 110.29 57.8314 110.147 58.1166 109.997L59.2865 110.674L59.2682 113.313Z" fill="white"/>
<path d="M94.69 73.3546C95.1993 74.3966 95.6319 75.4744 95.9843 76.5794C96.1117 77.0366 96.355 77.4532 96.6906 77.7889C97.0263 78.1245 97.4429 78.3678 97.9001 78.4952C100.416 79.0342 102.775 80.1396 104.799 81.7273C106.609 83.1373 108.098 84.915 109.17 86.9432C110.241 88.9714 110.87 91.2038 111.015 93.493C111.074 94.4687 111.044 95.4478 110.924 96.4179C110.745 97.8507 110.37 99.252 109.808 100.582C108.546 103.514 106.462 106.017 103.808 107.789C101.153 109.561 98.0422 110.526 94.8509 110.567C93.1032 110.593 92.222 111.95 92.2038 113.31H85.6701V112.608C88.0759 112.608 89.659 108.984 87.0704 107.489L85.9224 106.824L87.0193 106.195L87.703 105.8C90.1709 104.374 88.8437 101.006 86.6061 100.699C86.418 100.676 86.2275 100.676 86.0394 100.699C85.6436 100.741 85.261 100.865 84.9169 101.065L83.1729 102.07C83.1729 101.635 83.1729 101.197 83.1729 100.758C83.1729 100.67 83.1729 100.59 83.1729 100.509C82.9426 97.6208 78.8659 97.3393 77.9043 99.6756C77.7638 100.024 77.6954 100.397 77.7032 100.772C77.7032 101.962 77.7032 103.153 77.7032 104.345C77.7032 104.615 77.7032 104.915 77.6776 105.229V105.266L76.259 106.056L74.0068 104.761C73.6412 104.538 73.1878 104.246 72.7235 103.942C72.4895 103.785 72.2445 103.632 71.9922 103.482V101.983C72.2701 101.807 72.5407 101.635 72.7893 101.489L75.8898 99.7122C76.0802 99.6043 76.258 99.4756 76.4199 99.3283C78.5807 97.3576 75.9885 93.3321 73.1293 94.9774L71.9996 95.6209V93.6758C71.9996 90.1476 66.5152 90.1402 66.5152 93.6758V95.6209L65.3855 94.9738C62.7457 93.4601 60.3326 96.7616 61.6708 98.831C61.9096 99.1968 62.2348 99.4982 62.6177 99.7085L65.7182 101.485C65.9668 101.632 66.2337 101.8 66.5152 101.979V103.533C65.8681 103.935 65.2538 104.367 64.7347 104.666L62.2814 106.085L60.8372 105.251C60.8372 104.93 60.8152 104.619 60.8152 104.334C60.8152 103.142 60.8152 101.951 60.8152 100.762C60.8152 97.2296 55.3309 97.226 55.3309 100.762C55.3309 101.2 55.3309 101.639 55.3309 102.074L53.5905 101.061C50.5303 99.2917 47.7625 104.03 50.8228 105.796L52.5924 106.82L51.4443 107.485C48.8594 108.984 50.4425 112.604 52.841 112.604V113.302H46.0697C46.0697 111.942 45.1776 110.582 43.4226 110.56C34.4649 110.461 26.4724 104.495 24.1069 95.7891C22.9825 91.517 23.2906 86.9939 24.984 82.9138C26.6774 78.8336 29.6624 75.4216 33.4814 73.201C35.7826 71.8778 38.329 71.0368 40.9656 70.7294C42.9251 70.5016 44.9069 70.552 46.8521 70.8793C47.8242 71.0402 48.7842 71.2661 49.7259 71.5557C50.9471 71.9214 52.15 71.2888 52.8227 70.298C54.8444 67.3481 57.484 64.8735 60.5581 63.0463C63.6323 61.2191 67.0674 60.083 70.6248 59.7169C72.8775 59.487 75.1517 59.5905 77.3742 60.024C77.4107 60.024 77.4436 60.024 77.4802 60.046C81.1794 60.7907 84.6568 62.379 87.6417 64.6874C90.6267 66.9957 93.0387 69.9617 94.69 73.3546Z" fill="white"/>
<path d="M129.639 78.5829C128.608 77.2374 127.576 75.8969 126.543 74.5612L126.349 74.0128C126.967 73.7897 127.585 73.5484 128.195 73.2815C130.685 72.2432 132.096 75.4496 131.292 77.3032C128.023 84.8001 122.901 91.3424 116.408 96.3149C116.619 94.0585 116.462 91.7828 115.944 89.5767C118.776 86.951 121.251 83.9653 123.307 80.6961C125.466 80.1439 127.582 79.4377 129.639 78.5829Z" fill="black"/>
<path d="M126.55 74.5539C127.586 75.8968 128.618 77.2373 129.647 78.5754C127.586 79.4331 125.466 80.1417 123.304 80.6958C124.544 78.7359 125.629 76.6824 126.55 74.5539Z" fill="black"/>
<path d="M126.348 74.0127L126.553 74.5538C125.632 76.6849 124.547 78.7409 123.306 80.7031C119.822 81.6016 116.246 82.1008 112.649 82.1911C111.1 79.9401 109.148 77.9953 106.891 76.4549C113.478 77.1284 120.132 76.2932 126.348 74.0127Z" fill="black"/>
<path d="M115.94 89.5843C115.315 86.936 114.199 84.4284 112.649 82.1915C116.247 82.1012 119.822 81.602 123.307 80.7035C121.25 83.973 118.773 86.9588 115.94 89.5843Z" fill="#FFE297"/>
<path d="M113.314 98.5093C114.369 97.8219 115.399 97.0907 116.403 96.3156C116.381 96.513 116.367 96.7141 116.345 96.9116C115.677 102.16 113.132 106.988 109.18 110.506C105.228 114.023 100.137 115.992 94.8469 116.047C93.0664 116.073 92.1853 114.691 92.1999 113.305H94.8469C99.1484 113.305 103.321 111.839 106.678 109.15C110.035 106.46 112.376 102.707 113.314 98.5093Z" fill="black"/>
<path d="M113.552 91.6249C114.371 90.9741 115.164 90.294 115.929 89.5847C116.447 91.7909 116.604 94.0667 116.393 96.3232C115.391 97.091 114.362 97.8223 113.304 98.517C113.604 97.1652 113.756 95.7847 113.757 94.4C113.758 93.4712 113.689 92.5436 113.552 91.6249Z" fill="black"/>
<path d="M115.94 89.5847C115.172 90.294 114.38 90.9741 113.563 91.6249C113.051 88.1284 111.564 84.8467 109.274 82.1552C110.397 82.2063 111.523 82.2173 112.646 82.1917C114.196 84.4284 115.314 86.9361 115.94 89.5847Z" fill="black"/>
<path d="M113.768 94.3926C113.767 95.7773 113.615 97.1577 113.315 98.5095C112.174 99.2408 111.004 99.933 109.805 100.586C110.366 99.2559 110.741 97.8546 110.92 96.4218C111.04 95.4516 111.07 94.4725 111.011 93.4968C111.884 92.902 112.737 92.2743 113.571 91.6138C113.705 92.5338 113.771 93.4627 113.768 94.3926Z" fill="black"/>
<path d="M109.804 100.586C111.003 99.9426 112.173 99.2504 113.314 98.5094C112.377 102.709 110.037 106.463 106.68 109.154C103.323 111.845 99.1492 113.312 94.8468 113.313H92.1998C92.218 111.953 93.0992 110.596 94.8468 110.571C98.038 110.529 101.149 109.564 103.803 107.792C106.458 106.02 108.542 103.517 109.804 100.586Z" fill="black"/>
<path d="M109.274 82.1554C111.56 84.848 113.043 88.1295 113.552 91.6248C112.726 92.2829 111.873 92.9106 110.993 93.5077C110.848 91.2186 110.219 88.9862 109.147 86.9581C108.076 84.9299 106.586 83.1522 104.777 81.7422C106.276 81.9518 107.775 82.0896 109.274 82.1554Z" fill="black"/>
<path d="M106.886 76.4551C109.143 77.9954 111.096 79.9403 112.645 82.1913C111.522 82.2169 110.396 82.1913 109.274 82.1547C106.531 78.9203 102.782 76.7006 98.6276 75.8518C98.5033 75.446 98.368 75.0475 98.2218 74.6527C101.041 75.5481 103.944 76.1521 106.886 76.4551Z" fill="black"/>
<path d="M106.433 50.9156C108.206 50.9156 108.086 51.2812 107.727 50.1624C107.488 49.4456 107.213 48.7415 106.901 48.0529C106.755 47.7165 106.59 47.3875 106.422 47.0584L106.638 46.6672C107.866 44.4539 109.532 42.5135 111.533 40.9637C112.448 40.2432 113.427 39.608 114.458 39.0662C115.671 39.7077 116.946 40.2223 118.264 40.6018C121.661 41.578 123.112 36.2876 119.727 35.3151C120.636 35.571 121.421 36.1466 121.939 36.936C122.457 37.7254 122.673 38.6754 122.546 39.611C122.286 41.5377 120.915 42.4115 119.226 43.0002C115.771 44.1994 112.989 46.404 111.259 49.6616C110.528 51.018 110.371 52.751 109.354 53.9246C108.812 54.5366 108.09 54.9621 107.292 55.1407C106.494 55.3192 105.66 55.2416 104.909 54.919C103.081 54.1403 102.839 52.5352 102.189 50.8973C101.672 49.5863 100.949 48.3667 100.046 47.2851C98.9956 46.0324 97.7319 44.9753 96.3132 44.1628C95.0409 43.4316 93.5858 43.2159 92.3244 42.5176C91.5532 42.0941 90.9466 41.4238 90.6018 40.6143C90.2571 39.8048 90.1942 38.903 90.4232 38.0535C90.8803 36.3936 92.1453 35.688 93.6516 35.1835C96.5818 34.2654 99.1152 32.3828 100.839 29.8419C102.466 27.3558 102.733 22.793 106.601 22.9429C110.221 23.0855 110.462 27.4326 112.038 29.8419C113.858 32.5308 116.582 34.4769 119.716 35.3261C117.61 34.7594 116.25 36.5582 116.323 38.2509C115.932 38.4045 115.541 38.569 115.16 38.7408C114.919 38.8505 114.689 38.9712 114.455 39.1064C111.041 37.3069 108.248 34.5206 106.441 31.1106C106.786 30.4308 107.097 29.7341 107.373 29.023C107.552 28.5623 107.951 27.8092 107.947 27.2936H104.909C104.956 27.4618 105.007 27.63 105.055 27.7982C105.15 28.2215 105.294 28.6324 105.483 29.023C105.761 29.7369 106.081 30.434 106.441 31.1106C106.21 31.5566 105.969 31.9954 105.709 32.4195C104.313 34.6056 102.498 36.4932 100.368 37.9731C99.7533 38.4026 99.1094 38.7887 98.441 39.1284C97.5287 38.6489 96.5801 38.2418 95.6039 37.9109C95.2855 37.7643 94.9484 37.6622 94.6022 37.6075V39.1247C94.1147 40.3629 94.1988 40.8504 94.8544 40.5872C95.359 40.5872 96.0975 40.1777 96.5764 39.9876C97.2089 39.7353 97.8341 39.4538 98.441 39.143C99.9133 39.915 101.281 40.8721 102.51 41.9911C104.106 43.4541 105.431 45.1867 106.426 47.1096C105.863 48.1333 105.212 49.3618 105.062 50.4622C104.931 51.336 104.276 50.9156 106.433 50.9156Z" fill="black"/>
<path d="M107.727 50.1623C108.093 51.2844 108.206 50.9153 106.433 50.9153C104.277 50.9153 104.931 51.3356 105.059 50.4109C105.209 49.3144 105.859 48.0826 106.422 47.0592C106.59 47.3882 106.755 47.7171 106.901 48.0534C107.212 48.7418 107.488 49.4457 107.727 50.1623Z" fill="black"/>
<path d="M98.6273 75.8518C102.782 76.7005 106.531 78.9202 109.273 82.1547C107.774 82.084 106.283 81.9463 104.799 81.7415C102.776 80.1487 100.416 79.0384 97.8997 78.495C97.4425 78.3677 97.0259 78.1244 96.6903 77.7888C96.3546 77.4531 96.1114 77.0365 95.984 76.5793C95.6316 75.4744 95.1991 74.3967 94.6898 73.3548C95.8487 73.841 97.0296 74.2724 98.2214 74.6526C98.3677 75.0475 98.5029 75.446 98.6273 75.8518Z" fill="black"/>
<path d="M101.274 75.1236L99.3587 73.2084C99.8192 73.3071 100.272 73.4277 100.718 73.5739C100.916 74.071 101.12 74.5936 101.274 75.1236Z" fill="black"/>
<path d="M100.718 73.5551C102.915 74.1874 104.997 75.1661 106.886 76.4543C103.943 76.1514 101.04 75.5474 98.2209 74.6519C96.4781 69.8421 93.4026 65.6276 89.3538 62.5006C85.3049 59.3737 80.4498 57.4634 75.3557 56.993C74.7805 56.0765 74.2431 55.1418 73.7434 54.1888C75.2746 54.2251 76.801 54.3754 78.3099 54.6385C88.5944 56.4482 97.0473 63.9249 100.718 73.5551C100.272 73.4271 99.8186 73.3064 99.3579 73.1894L101.274 75.1052C101.12 74.5934 100.915 74.0706 100.718 73.5551Z" fill="black"/>
<path d="M98.2214 74.652C97.0295 74.2864 95.8486 73.8404 94.6896 73.3541C93.0366 69.9592 90.6218 66.9919 87.6336 64.6835C84.6454 62.3752 81.1645 60.7881 77.4621 60.046C76.7126 59.0515 75.9997 58.0351 75.3562 56.9931C80.4503 57.4635 85.3054 59.3738 89.3543 62.5008C93.4031 65.6277 96.4786 69.8423 98.2214 74.652Z" fill="black"/>
<path d="M86.6122 100.695C88.8315 101.003 90.1586 104.37 87.709 105.796L87.0254 106.191L85.9285 106.819L87.0765 107.485C89.665 108.987 88.082 112.603 85.6763 112.603C85.1919 112.601 84.717 112.468 84.3016 112.219L81.2158 110.428C80.9672 110.285 80.6967 110.143 80.4188 109.997C80.0532 110.205 79.6876 110.417 79.322 110.629V113.313H73.8379V110.976L73.5308 110.801L72.0025 109.916L70.7741 109.221L69.3116 108.362L69.2751 108.384L67.7834 109.243L66.533 109.975L65.0413 110.834L64.7708 110.991V113.32H59.2867V110.68L58.1167 110.004C57.8315 110.154 57.5573 110.296 57.3197 110.435L54.2303 112.227C53.8168 112.479 53.3434 112.615 52.8593 112.622C50.4609 112.622 48.8778 108.991 51.4626 107.503L52.6107 106.838L50.8411 105.814C47.781 104.048 50.5486 99.3098 53.6088 101.079L55.3527 102.085C55.3527 101.65 55.3527 101.211 55.3527 100.772C55.3527 97.2368 60.8368 97.2405 60.8368 100.772C60.8368 101.962 60.8368 103.152 60.8368 104.344C60.8368 104.629 60.8368 104.94 60.8588 105.262L62.3029 106.096L64.7562 104.677C65.2753 104.377 65.8895 103.946 66.5367 103.544V101.99C66.2552 101.811 65.9883 101.642 65.7396 101.496L62.6393 99.7193C62.2564 99.509 61.9312 99.2076 61.6924 98.8418C60.3542 96.7725 62.7673 93.4711 65.4069 94.9847L66.5367 95.6318V93.6868C66.5367 90.1513 72.0208 90.1586 72.0208 93.6868V95.6208L73.1505 94.9737C76.0169 93.3285 78.6091 97.3538 76.441 99.3245C76.2791 99.4717 76.1013 99.6005 75.9109 99.7083L72.7959 101.471C72.5473 101.617 72.2767 101.789 71.9989 101.964V103.463C72.2438 103.613 72.4888 103.767 72.7301 103.924C73.1944 104.227 73.6295 104.52 74.0134 104.743L76.2765 106.048L77.6804 105.24V105.203C77.6804 104.889 77.706 104.589 77.706 104.319C77.706 103.127 77.706 101.936 77.706 100.747C77.6981 100.371 77.7665 99.9981 77.9071 99.6498C78.8686 97.3136 82.9452 97.5951 83.1755 100.483C83.1755 100.564 83.1755 100.644 83.1755 100.732C83.1755 101.171 83.1755 101.61 83.1755 102.045L84.9195 101.039C85.2635 100.839 85.6461 100.715 86.0419 100.674C86.2322 100.657 86.4238 100.664 86.6122 100.695Z" fill="#2DB0FC"/>
<path d="M87.6176 120.706C90.6777 122.472 87.9137 127.21 84.8499 125.459L83.1791 124.49C83.1791 124.929 83.1791 125.367 83.1791 125.806C83.1791 129.342 77.695 129.334 77.695 125.806C77.695 124.614 77.695 123.426 77.695 122.234C77.695 121.945 77.695 121.635 77.673 121.313L76.8431 120.838L73.8488 122.567C73.3113 122.878 72.6715 123.331 71.9951 123.744V124.589C72.2767 124.764 72.5436 124.936 72.7922 125.079L75.8925 126.856C78.9563 128.614 76.1887 133.352 73.1249 131.608L71.9951 130.961V132.99C71.9951 136.522 66.511 136.519 66.511 132.99V130.961L65.3813 131.608C62.3138 133.367 59.5535 128.629 62.6136 126.856L65.714 125.079C65.9626 124.936 66.2332 124.764 66.511 124.589V123.711C65.8017 123.276 65.1327 122.797 64.5733 122.476L61.6996 120.816L60.8368 121.313C60.8368 121.642 60.8112 121.953 60.8112 122.234C60.8112 123.426 60.8112 124.614 60.8112 125.806C60.8112 129.342 55.3271 129.334 55.3271 125.806C55.3271 125.367 55.3271 124.929 55.3271 124.49L53.6562 125.459C50.5924 127.228 47.8321 122.486 50.8886 120.706L52.585 119.726L51.437 119.061C48.8521 117.558 50.4352 113.942 52.8373 113.942C53.3199 113.947 53.7923 114.083 54.2046 114.333L57.294 116.129C57.539 116.271 57.8095 116.414 58.0874 116.56L59.261 115.884V113.324H64.7451V116.249L66.5074 117.269L67.1801 117.657L69.2494 118.852H69.286L71.3553 117.66L71.9915 117.295L73.8195 116.235V113.31H79.3037V115.913L80.4005 116.545C80.6857 116.395 80.9599 116.253 81.2012 116.114L84.2869 114.319C84.6993 114.068 85.1716 113.933 85.6543 113.928C88.0563 113.928 89.6394 117.554 87.0546 119.046L85.9066 119.712L87.6176 120.706Z" fill="#2DB0FC"/>
<path d="M75.355 56.993C76.0058 58.0349 76.7113 59.0512 77.4608 60.0456C77.4242 60.0456 77.3913 60.0456 77.3548 60.0237C75.1326 59.5902 72.8586 59.4867 70.6062 59.7166C70.0834 58.8721 69.5935 58.0093 69.1256 57.1393C70.3695 56.9646 71.624 56.8767 72.8801 56.876C73.7136 56.8687 74.5386 56.9077 75.355 56.993Z" fill="black"/>
<path d="M67.8752 54.6348C69.8059 54.2962 71.765 54.1468 73.7247 54.1888C74.2268 55.1393 74.7642 56.074 75.3369 56.9929C74.5204 56.9149 73.6954 56.8759 72.8619 56.8759C71.6058 56.8765 70.3512 56.9645 69.1073 57.1391C68.6832 56.3165 68.2664 55.4793 67.8752 54.6348Z" fill="black"/>
<path d="M73.7431 54.1876C71.7833 54.1456 69.8241 54.295 67.8934 54.6336C63.1608 44.5064 62.0783 33.0535 64.8296 22.2188C66.7933 20.9765 68.8505 19.8885 70.9828 18.9649L71.5202 19.166C69.426 24.8354 68.5419 30.8804 68.9247 36.9121C69.3075 42.9438 70.9489 48.8285 73.7431 54.1876Z" fill="black"/>
<path d="M68.1936 14.23C70.0727 13.4184 73.268 14.8259 72.2151 17.3266C71.9592 17.9371 71.7215 18.5476 71.4839 19.1545L70.9465 18.9535L66.925 15.8569L66.5082 14.9868C67.0712 14.7272 67.6306 14.475 68.1936 14.23Z" fill="black"/>
<path d="M50.4389 68.9302C52.545 65.7592 55.2993 63.0704 58.5202 61.0412C61.7411 59.012 65.3555 57.6884 69.1251 57.1577C69.5931 58.0278 70.083 58.8906 70.6058 59.7352C67.0485 60.1013 63.6136 61.2373 60.5395 63.0645C57.4654 64.8916 54.8259 67.366 52.8043 70.3159C52.1316 71.3067 50.9288 71.9502 49.7076 71.5736C48.766 71.284 47.8059 71.058 46.834 70.8972C46.5317 69.9223 46.2624 68.9473 46.026 67.9723C47.5252 68.144 49.0035 68.4649 50.4389 68.9302Z" fill="black"/>
<path d="M66.5191 14.998L66.9359 15.8682C66.0758 17.9312 65.3658 20.0536 64.8116 22.219C55.7376 27.8947 49.1209 36.7658 46.2673 47.0812C44.6774 52.9884 44.4004 59.172 45.4557 65.1977C43.5805 65.0643 41.6965 65.1329 39.8361 65.4025C38.3028 55.25 40.0684 44.8734 44.873 35.7993C49.6776 26.7252 57.2676 19.4326 66.5264 14.9943L66.5191 14.998Z" fill="black"/>
<path d="M64.8115 22.2188C62.0601 33.0539 63.1426 44.5071 67.8754 54.6348C60.5348 55.9391 53.9353 59.9107 49.3457 65.7862C48.0658 65.4924 46.7652 65.2968 45.4555 65.2012C44.4038 59.1747 44.6846 52.9911 46.2781 47.0847C49.1281 36.7697 55.7409 27.8975 64.8115 22.2188Z" fill="#FFE297"/>
<path d="M51.1659 66.2689L48.0698 67.53C48.4755 66.9306 48.9032 66.3493 49.3455 65.7864C49.956 65.9253 50.5628 66.0825 51.1659 66.2689Z" fill="black"/>
<path d="M67.8747 54.6348C68.2659 55.4794 68.6827 56.3166 69.1251 57.1392C65.354 57.6721 61.7387 58.9985 58.5177 61.0309C55.2967 63.0634 52.5432 65.7556 50.4389 68.9301C49.0033 68.4659 47.525 68.1463 46.026 67.9758C45.8066 67.0618 45.6165 66.1429 45.4556 65.2192C46.7653 65.3147 48.0658 65.5103 49.3457 65.8041C48.9033 66.3672 48.4755 66.9485 48.0697 67.5481L51.1664 66.2867C50.5632 66.1003 49.9563 65.9431 49.3384 65.8041C53.9266 59.9205 60.529 55.9421 67.8747 54.6348Z" fill="black"/>
<path d="M43.4223 67.8044C44.2922 67.8056 45.1613 67.8569 46.0253 67.958C46.269 68.9329 46.5383 69.9078 46.8332 70.8827C44.8881 70.5554 42.9065 70.505 40.9472 70.7328C40.7035 69.8408 40.4878 68.939 40.3001 68.0274C41.3346 67.8829 42.3777 67.8084 43.4223 67.8044Z" fill="black"/>
<path d="M45.4549 65.2013C45.6157 66.125 45.8058 67.0439 46.0252 67.9578C45.1612 67.8568 44.2921 67.8055 43.4222 67.8043C42.3777 67.807 41.3346 67.8803 40.3 68.0237C40.1221 67.156 39.9673 66.2834 39.8357 65.406C41.696 65.1365 43.5799 65.0679 45.4549 65.2013Z" fill="black"/>
<path d="M20.6844 90.5609C20.686 85.0679 22.6742 79.7609 26.282 75.6189C29.8898 71.4769 34.8738 68.7794 40.3146 68.024C40.5047 68.9332 40.7204 69.8351 40.9617 70.7296C38.3263 71.0375 35.7812 71.8784 33.4811 73.2012C29.6633 75.425 26.6805 78.84 24.9904 82.9223C23.3003 87.0045 22.9963 91.5285 24.1249 95.8002C26.4904 104.506 34.4829 110.473 43.4406 110.571C45.1956 110.593 46.0768 111.953 46.0877 113.313H43.4406C40.4524 113.314 37.4934 112.726 34.7325 111.583C31.9716 110.439 29.4629 108.764 27.3498 106.651C25.2366 104.538 23.5603 102.029 22.4167 99.2688C21.273 96.5081 20.6844 93.5491 20.6844 90.5609Z" fill="black"/>
<path d="M39.836 65.4061C39.9676 66.2836 40.1224 67.1562 40.3003 68.024C34.592 68.8157 29.3969 71.7439 25.7639 76.2175C22.1309 80.691 20.3309 86.3765 20.7272 92.1258C21.1236 97.875 23.6869 103.26 27.8994 107.192C32.1119 111.125 37.6598 113.313 43.4227 113.313H46.0698C46.0698 114.695 45.2033 116.078 43.4227 116.056C37.001 116.015 30.8235 113.59 26.0886 109.251C17.5733 101.42 15.5661 88.3598 21.0906 78.2504C23.0098 74.8062 25.7013 71.8539 28.9538 69.6253C32.2064 67.3967 35.9312 65.9525 39.836 65.4061Z" fill="black"/>
</svg>
