<svg width="150" height="150" viewBox="0 0 150 150" fill="none" xmlns="http://www.w3.org/2000/svg">
<path d="M104.377 74.6002C104.742 74.772 105.086 74.9658 105.433 75.1413C106.553 75.7551 107.624 76.4542 108.636 77.2327C112.573 80.2619 115.495 84.418 117.013 89.1482C117.14 89.6055 117.383 90.0221 117.719 90.3578C118.055 90.6934 118.471 90.9367 118.929 91.0641C127.166 92.852 133.005 100.479 131.948 108.98C130.943 117.056 123.905 123.023 115.861 123.129C114.113 123.155 113.229 124.511 113.214 125.871H109.302C109.302 124.5 108.421 123.129 106.655 123.129H74.0157C72.2534 123.129 71.3686 124.5 71.3686 125.871H67.0981C67.0981 124.511 66.206 123.147 64.451 123.129C55.4933 123.03 47.5008 117.06 45.1316 108.358C43.9422 103.903 44.3297 99.1742 46.2285 94.9726C47.0181 93.1964 48.0585 91.5428 49.318 90.0623C50.7826 88.3404 52.5327 86.8835 54.4915 85.7553C59.4566 82.8925 65.2919 82.4318 70.736 84.11C71.9572 84.4756 73.1601 83.8394 73.8329 82.8522C79.1855 74.9768 88.9769 70.7356 98.3843 72.5746C100.121 72.9155 101.815 73.4438 103.437 74.1505C103.741 74.304 104.07 74.4466 104.377 74.6002ZM109.166 118.281C112.695 118.281 112.702 112.797 109.166 112.797H68.4399C64.908 112.797 64.9044 118.281 68.4399 118.281H109.166Z" fill="#ECECEC"/>
<path d="M131.552 69.8616C135.088 69.8616 135.08 75.3455 131.552 75.3455H119.25C115.715 75.3455 115.722 69.8616 119.25 69.8616H131.552Z" fill="black"/>
<path d="M119.656 88.4205C124.264 89.3444 128.363 91.9502 131.156 95.7306C133.948 99.511 135.234 104.195 134.762 108.871C134.29 113.548 132.095 117.881 128.604 121.027C125.113 124.174 120.575 125.908 115.875 125.893H113.247C113.247 124.533 114.146 123.176 115.894 123.151C123.937 123.045 130.961 117.078 131.981 109.001C133.038 100.49 127.199 92.8628 118.961 91.0859C118.504 90.9585 118.087 90.7152 117.752 90.3796C117.416 90.0439 117.173 89.6273 117.045 89.17C115.528 84.4398 112.606 80.2837 108.669 77.2544C108.819 76.1978 108.918 75.1265 108.969 74.0479C114.064 77.4825 117.834 82.5527 119.656 88.4205Z" fill="black"/>
<path d="M122.404 41.2591C125.468 39.4896 128.228 44.2314 125.172 46.0118L114.519 52.1465C111.451 53.916 108.695 49.1742 111.751 47.4121L122.404 41.2591Z" fill="black"/>
<path d="M134.796 106.961C134.795 102.599 133.288 98.3716 130.529 94.9931C127.771 91.6146 123.929 89.2928 119.656 88.4206C117.829 82.5399 114.046 77.4607 108.936 74.0261C108.957 73.6239 108.972 73.2181 108.976 72.8122V72.783C108.976 72.7318 108.976 72.6806 108.976 72.6294V72.6038C108.976 72.5417 108.976 72.4795 108.976 72.4174C108.976 71.8689 108.943 71.3205 108.914 70.7831C114.792 74.3184 119.311 79.7265 121.747 86.1391C121.297 86.0112 120.847 85.8905 120.383 85.7918L122.299 87.704C122.131 87.1775 121.933 86.6546 121.747 86.1391C131.776 89.0202 138.664 98.9907 137.37 109.502C136.702 114.75 134.158 119.579 130.207 123.097C126.256 126.615 121.165 128.583 115.875 128.639C114.091 128.664 113.21 127.279 113.228 125.897H115.875C118.361 125.897 120.823 125.407 123.119 124.455C125.416 123.503 127.502 122.108 129.259 120.35C131.016 118.591 132.41 116.504 133.36 114.206C134.31 111.909 134.798 109.447 134.796 106.961Z" fill="black"/>
<path d="M121.747 86.1242C121.944 86.6396 122.112 87.1622 122.299 87.6886L120.383 85.777C120.847 85.8757 121.29 85.9963 121.747 86.1242Z" fill="black"/>
<path d="M117.141 133.483C120.676 133.483 120.673 138.967 117.141 138.967H80.5055C76.9699 138.967 76.9772 133.483 80.5055 133.483H117.141Z" fill="black"/>
<path d="M109.166 112.796C112.702 112.796 112.694 118.281 109.166 118.281H68.4397C64.9042 118.281 64.9078 112.796 68.4397 112.796H109.166Z" fill="black"/>
<path d="M106.664 123.14C108.43 123.14 109.315 124.511 109.311 125.882H71.3684C71.3684 124.511 72.2532 123.14 74.0154 123.14H106.664Z" fill="black"/>
<path d="M71.3684 125.893H109.3C109.3 127.264 108.419 128.635 106.653 128.635H74.0154C72.2495 128.624 71.3684 127.253 71.3684 125.893Z" fill="black"/>
<path d="M108.698 73.8671C108.862 73.5381 108.956 73.179 108.976 72.812C108.976 73.2173 108.957 73.6225 108.936 74.0241L108.698 73.8671Z" fill="black"/>
<path d="M103.802 71.324C105.518 72.0053 107.158 72.8627 108.697 73.8826C108.101 75.0632 106.65 75.4872 105.433 75.1546C105.067 74.9645 104.735 74.7891 104.376 74.6136C104.091 74.3664 103.865 74.0594 103.713 73.7143C103.56 73.3693 103.486 72.9949 103.495 72.6179C103.49 72.1679 103.595 71.7234 103.802 71.324Z" fill="black"/>
<path d="M108.697 73.8675C107.159 72.8476 105.519 71.9902 103.803 71.3089C104.936 69.1743 108.832 69.5398 108.975 72.4054C108.975 72.4676 108.975 72.5297 108.975 72.5919V72.6174C108.975 72.6686 108.975 72.7198 108.975 72.771V72.8002C108.957 73.1713 108.862 73.5347 108.697 73.8675Z" fill="black"/>
<path d="M105.433 75.1408C106.65 75.4734 108.102 75.0494 108.698 73.8687L108.935 74.0259C108.884 75.1042 108.785 76.1753 108.635 77.2317C107.623 76.4534 106.553 75.7544 105.433 75.1408Z" fill="black"/>
<path d="M100.208 21.0291C101.974 17.9727 106.712 20.7366 104.943 23.7967L98.7934 34.4538C97.0276 37.5138 92.2895 34.7463 94.0407 31.6862L100.208 21.0291Z" fill="black"/>
<path d="M108.976 72.4169C108.833 69.5543 104.936 69.1887 103.803 71.3201L103.437 71.1812C103.381 70.166 103.272 69.1545 103.112 68.1505C105.133 68.8106 107.075 69.6921 108.903 70.7791C108.943 71.3274 108.969 71.8685 108.976 72.4169Z" fill="black"/>
<path d="M103.802 71.3239C103.597 71.7183 103.492 72.1568 103.495 72.6011C103.495 72.1267 103.473 71.656 103.448 71.1853L103.802 71.3239Z" fill="black"/>
<path d="M103.496 72.6038C103.486 72.9807 103.561 73.3551 103.713 73.7C103.865 74.045 104.092 74.3521 104.376 74.5992C104.07 74.4457 103.755 74.3032 103.437 74.1643C103.47 73.6453 103.492 73.1264 103.496 72.6038Z" fill="black"/>
<path d="M64.4505 80.3731C65.9594 80.3723 67.4646 80.5217 68.9439 80.8192C69.7958 80.9889 70.637 81.2087 71.4631 81.4773C74.8422 76.3946 79.8457 72.6086 85.6556 70.7384C91.4655 68.8682 97.738 69.0244 103.448 71.1814C103.473 71.6531 103.491 72.1247 103.495 72.6C103.499 73.0753 103.47 73.642 103.437 74.1612C101.814 73.4546 100.12 72.9262 98.3837 72.5854C88.9763 70.7573 79.185 74.9875 73.8323 82.863C73.1595 83.8502 71.9567 84.4973 70.7355 84.1207C65.2914 82.4425 59.4561 82.9032 54.491 85.766C52.533 86.8909 50.783 88.3441 49.3174 90.0621C48.7521 89.2925 48.2285 88.493 47.7489 87.6673C49.8765 85.362 52.4595 83.5234 55.3344 82.2678C58.2092 81.0123 61.3134 80.3671 64.4505 80.3731Z" fill="black"/>
<path d="M72.1946 78.8371C71.5914 78.6506 70.9845 78.4934 70.3666 78.3545C73.7266 74.0352 78.2015 70.7145 83.3092 68.7501C88.4168 66.7858 93.9636 66.2523 99.352 67.2071C100.635 67.4355 101.9 67.7519 103.14 68.154C103.3 69.1581 103.409 70.1697 103.465 71.1849C97.7557 69.0279 91.4834 68.8718 85.6737 70.7419C79.864 72.6121 74.8607 76.3979 71.4817 81.4804C70.6556 81.2118 69.8145 80.9921 68.9626 80.8223L69.1162 80.0911L72.1946 78.8371Z" fill="black"/>
<path d="M79.3863 43.2625C85.4046 44.5054 90.9008 47.5539 95.1417 52.0013C99.3827 56.4487 102.167 62.0835 103.122 68.154C101.889 67.7526 100.629 67.4362 99.3528 67.207C93.9647 66.2544 88.4188 66.7898 83.3123 68.7554C78.2059 70.7211 73.7324 74.0426 70.3737 78.3621C66.1348 77.3961 61.7212 77.5092 57.5373 78.6909C53.3533 79.8726 49.5328 82.0852 46.4255 85.1261C44.4197 80.6713 43.5182 75.7984 43.7976 70.9208C44.0771 66.0433 45.5291 61.3051 48.0306 57.1086C54.4436 46.5202 67.2184 40.7946 79.3863 43.2625Z" fill="#F5C54A"/>
<path d="M76.3404 14.6488V26.9547C76.3404 30.4864 70.8564 30.4827 70.8564 26.9547V14.6488C70.8564 11.1135 76.3404 11.1208 76.3404 14.6488Z" fill="black"/>
<path d="M72.1939 78.8374L69.0978 80.0949C69.5035 79.4991 69.9312 78.9179 70.3735 78.3549C70.984 78.4938 71.5908 78.651 72.1939 78.8374Z" fill="black"/>
<path d="M70.3734 78.362C69.931 78.925 69.5032 79.5064 69.0974 80.1023L68.9438 80.8335C65.1174 80.063 61.1572 80.2896 57.4436 81.4913C53.7301 82.6931 50.388 84.8298 47.7385 87.696C47.2549 86.8655 46.8132 86.0114 46.415 85.1367C49.5222 82.0923 53.344 79.8766 57.5299 78.6929C61.7159 77.5093 66.132 77.3955 70.3734 78.362Z" fill="black"/>
<path d="M53.1414 31.6862C54.9109 34.7499 50.1691 37.5101 48.3887 34.4538L42.2357 23.7966C40.4662 20.733 45.208 17.9764 46.9702 21.0291L53.1414 31.6862Z" fill="black"/>
<path d="M41.6982 103.129C41.6968 106.118 42.2842 109.077 43.427 111.839C44.5697 114.601 46.2454 117.11 48.3582 119.224C50.4711 121.338 52.9797 123.015 55.7408 124.159C58.5019 125.303 61.4613 125.892 64.45 125.892H67.097C67.097 127.274 66.2269 128.656 64.45 128.634C58.0278 128.591 51.85 126.166 47.1129 121.83C38.6015 113.998 36.5761 100.939 42.1187 90.8298C42.3015 90.4935 42.4843 90.1644 42.6927 89.839C42.8865 90.2047 43.0875 90.541 43.2959 90.8847C43.6286 91.4331 43.9796 91.9815 44.3416 92.4934C42.6038 95.769 41.6962 99.4209 41.6982 103.129Z" fill="black"/>
<path d="M47.7489 87.6819C48.2284 88.5077 48.752 89.307 49.3173 90.0766C48.0556 91.5554 47.0128 93.2076 46.2207 94.9828C45.5578 94.1834 44.9314 93.3498 44.3416 92.4822C45.2638 90.7408 46.4093 89.1271 47.7489 87.6819Z" fill="black"/>
<path d="M48.0319 57.1026C45.5304 61.2992 44.0783 66.0373 43.7989 70.9148C43.5195 75.7924 44.421 80.6654 46.4268 85.1201C44.994 86.5336 43.7369 88.1147 42.6828 89.8293C35.6373 77.2191 37.1985 61.2524 46.3391 50.0681C55.6149 38.7155 71.7789 34.255 85.5592 39.3078C92.0875 41.72 97.7719 45.9812 101.918 51.5709C106.065 57.1606 108.493 63.8368 108.908 70.7841C107.08 69.6971 105.138 68.8155 103.116 68.1553C102.161 62.0858 99.3781 56.4517 95.1386 52.0044C90.8991 47.5572 85.4045 44.5081 79.3875 43.2639C67.2197 40.7959 54.4449 46.5215 48.0319 57.1026Z" fill="black"/>
<path d="M46.4254 85.1188C46.8236 85.9934 47.2653 86.8475 47.7489 87.6779C46.4093 89.1231 45.2639 90.7367 44.3416 92.4781C43.976 91.9517 43.6287 91.4179 43.296 90.8695C43.0876 90.5259 42.8865 90.1749 42.6927 89.8239C43.7435 88.1113 44.9968 86.5316 46.4254 85.1188Z" fill="black"/>
<path d="M67.0969 125.892H64.4499C60.5271 125.891 56.6711 124.876 53.2562 122.946C49.8412 121.015 46.9834 118.234 44.9599 114.874C42.9365 111.513 41.8163 107.686 41.7079 103.765C41.5995 99.8436 42.5068 95.9608 44.3415 92.4935C44.9338 93.3612 45.5602 94.1947 46.2207 94.9942C44.322 99.1957 43.9345 103.925 45.1239 108.379C47.493 117.081 55.4852 123.051 64.4426 123.15C66.2049 123.157 67.086 124.521 67.0969 125.892Z" fill="black"/>
<path d="M35.4485 47.4119C38.5085 49.1778 35.7409 53.9159 32.6809 52.1464L22.0238 45.9934C18.9674 44.2276 21.7313 39.4931 24.7914 41.2407L35.4485 47.4119Z" fill="black"/>
<path d="M32.6807 93.0602C35.7444 91.2907 38.5047 96.0325 35.4483 97.8129L24.7912 103.955C21.7275 105.724 18.9709 100.986 22.0236 99.2204L32.6807 93.0602Z" fill="black"/>
<path d="M27.9498 69.8616C31.4815 69.8616 31.4778 75.3455 27.9498 75.3455H15.6439C12.1085 75.3455 12.1159 69.8616 15.6439 69.8616H27.9498Z" fill="black"/>
</svg>
