<svg width="150" height="150" viewBox="0 0 150 150" fill="none" xmlns="http://www.w3.org/2000/svg">
<path d="M52.8035 75.2946C54.8263 72.3457 57.4661 69.8719 60.5401 68.0449C63.6141 66.2178 67.0486 65.0811 70.6056 64.7135C72.8584 64.4874 75.1321 64.5909 77.355 65.0207C77.3915 65.0207 77.4244 65.0389 77.461 65.0426C81.1634 65.7862 84.6442 67.3743 87.6324 69.6833C90.6206 71.9923 93.0355 74.9598 94.6891 78.3548C95.1984 79.3968 95.631 80.4746 95.9834 81.5796C96.1107 82.0369 96.354 82.4535 96.6897 82.7892C97.0253 83.1248 97.442 83.3681 97.8992 83.4955C100.416 84.0388 102.776 85.1492 104.798 86.7422C106.607 88.1517 108.097 89.9289 109.168 91.9565C110.239 93.984 110.869 96.2157 111.014 98.5042C111.073 99.48 111.043 100.459 110.923 101.429C110.743 102.862 110.368 104.263 109.807 105.594C108.545 108.525 106.461 111.028 103.807 112.8C101.152 114.572 98.0413 115.537 94.8499 115.579C93.1023 115.601 92.2211 116.961 92.2028 118.321H88.2761C88.2761 116.95 87.3949 115.579 85.6253 115.579H52.99C51.2241 115.579 50.3393 116.95 50.3393 118.321H46.0688C46.0688 116.961 45.1767 115.597 43.4217 115.579C34.464 115.48 26.4715 109.509 24.1059 100.808C22.9772 96.5329 23.2831 92.0058 24.9767 87.9218C26.6703 83.8378 29.6578 80.4228 33.4805 78.2013C35.7809 76.8764 38.3277 76.0354 40.9647 75.7297C42.9241 75.5 44.9061 75.5505 46.8512 75.8796C47.8232 76.0404 48.7833 76.2664 49.725 76.556C50.9279 76.9326 52.1271 76.2854 52.8035 75.2946ZM88.1371 110.712C91.0621 110.712 91.5703 106.91 89.5996 105.637C89.1625 105.361 88.6541 105.219 88.1371 105.228H47.4106C43.8824 105.228 43.8751 110.712 47.4106 110.712H88.1371Z" fill="#DCDDDD"/>
<path d="M131.287 82.3217C128.018 89.8186 122.897 96.3609 116.403 101.333C116.614 99.077 116.458 96.8013 115.939 94.5952C118.771 91.9695 121.246 88.9838 123.302 85.7146C125.463 85.157 127.581 84.4434 129.638 83.5794L126.542 79.5577L126.337 79.0166C126.955 78.7936 127.573 78.5523 128.183 78.2854C130.68 77.2507 132.091 80.4608 131.287 82.3217Z" fill="black"/>
<path d="M126.549 79.5541L129.646 83.5756C127.586 84.4361 125.466 85.146 123.303 85.6997C124.543 83.7387 125.628 81.6839 126.549 79.5541Z" fill="black"/>
<path d="M126.347 79.013L126.552 79.5541C125.631 81.6852 124.546 83.7412 123.305 85.7034C119.82 86.604 116.243 87.1033 112.644 87.1914C111.095 84.9416 109.143 82.998 106.886 81.4589C113.475 82.1318 120.13 81.2953 126.347 79.013Z" fill="black"/>
<path d="M117.76 42.7104C119.803 42.4655 117.047 45.2695 118.264 45.6022L118.027 45.5291C117.538 45.3703 117.111 45.0624 116.806 44.6487C116.501 44.235 116.334 43.7361 116.327 43.2223C116.557 43.1309 116.787 43.0395 117.018 42.959C117.256 42.8517 117.505 42.7684 117.76 42.7104Z" fill="black"/>
<path d="M117.018 42.9514C116.787 43.0319 116.557 43.1232 116.327 43.2146C116.253 41.5403 117.613 39.7381 119.719 40.3084C123.112 41.2808 121.66 46.5669 118.257 45.5945C117.039 45.2655 119.796 42.4579 117.752 42.7028C117.5 42.7613 117.254 42.8446 117.018 42.9514Z" fill="black"/>
<path d="M123.302 85.7039C121.246 88.9733 118.771 91.959 115.939 94.5848C115.313 91.9356 114.197 89.4269 112.648 87.1884C116.244 87.1008 119.819 86.6028 123.302 85.7039Z" fill="#FFE297"/>
<path d="M116.344 101.919C115.676 107.167 113.131 111.996 109.179 115.513C105.227 119.031 100.136 120.999 94.8461 121.055C93.0656 121.081 92.1845 119.695 92.1991 118.313H94.8461C99.1486 118.312 103.322 116.845 106.679 114.154C110.036 111.463 112.376 107.709 113.313 103.509C114.368 102.822 115.398 102.091 116.402 101.316C116.38 101.521 116.366 101.722 116.344 101.919Z" fill="black"/>
<path d="M118.026 45.5107C116.791 45.1418 115.596 44.652 114.458 44.0485C114.692 43.9279 114.922 43.8073 115.163 43.683C115.529 43.5075 115.935 43.3467 116.326 43.1895C116.33 43.7059 116.496 44.2079 116.801 44.6245C117.106 45.0411 117.535 45.3511 118.026 45.5107Z" fill="black"/>
<path d="M113.551 96.625C114.37 95.9742 115.163 95.2941 115.928 94.5848C116.447 96.791 116.604 99.0668 116.392 101.323C115.391 102.091 114.361 102.822 113.303 103.517C113.603 102.165 113.755 100.785 113.756 99.4001C113.757 98.4713 113.689 97.5436 113.551 96.625Z" fill="black"/>
<path d="M113.552 96.625C113.689 97.5412 113.757 98.4664 113.757 99.3928C113.756 100.778 113.603 102.158 113.303 103.51C112.163 104.241 110.993 104.933 109.793 105.587C110.354 104.256 110.729 102.855 110.908 101.422C111.028 100.452 111.059 99.4728 111 98.497C111.882 97.9096 112.733 97.2855 113.552 96.625Z" fill="black"/>
<path d="M113.313 103.51C112.376 107.709 110.036 111.464 106.679 114.155C103.322 116.846 99.1486 118.313 94.8462 118.313H92.1992C92.2174 116.953 93.0986 115.593 94.8462 115.571C98.0374 115.53 101.148 114.565 103.803 112.793C106.457 111.021 108.541 108.518 109.803 105.586C111.002 104.943 112.172 104.251 113.313 103.51Z" fill="black"/>
<path d="M109.273 87.1553C111.561 89.8471 113.043 93.129 113.551 96.6247C112.725 97.2828 111.872 97.9093 110.992 98.504C110.846 96.2155 110.217 93.9838 109.146 91.9563C108.074 89.9288 106.585 88.1517 104.776 86.7421C106.275 86.9469 107.774 87.0846 109.273 87.1553Z" fill="black"/>
<path d="M98.2209 79.6492C101.039 80.5476 103.943 81.1528 106.885 81.4552C109.143 82.9954 111.095 84.9402 112.644 87.1914C111.521 87.2207 110.395 87.2097 109.273 87.1585C106.532 83.9227 102.782 81.7028 98.6267 80.8556C98.5024 80.4462 98.3671 80.0477 98.2209 79.6492Z" fill="black"/>
<path d="M109.274 87.1554C110.396 87.2066 111.522 87.2175 112.645 87.1883C114.194 89.4269 115.31 91.9357 115.936 94.5849C115.168 95.2943 114.375 95.9743 113.559 96.6252C113.049 93.1285 111.564 89.8464 109.274 87.1554Z" fill="black"/>
<path d="M106.443 36.0697C106.084 35.3932 105.764 34.6964 105.486 33.9826C105.297 33.591 105.153 33.1789 105.058 32.7545C105.011 32.5864 104.959 32.4219 104.912 32.2538H107.949C107.949 32.7692 107.555 33.5221 107.375 33.9826C107.098 34.6917 106.791 35.3898 106.443 36.0697Z" fill="black"/>
<path d="M96.5718 44.9329C97.2043 44.677 97.8295 44.3991 98.4364 44.0883C99.9086 44.859 101.276 45.8149 102.506 46.9328C104.101 48.396 105.426 50.1286 106.421 52.0513C105.858 53.075 105.207 54.3034 105.058 55.4039C104.93 56.3289 104.275 55.9084 106.432 55.9084C108.205 55.9084 108.085 56.2741 107.727 55.1553C107.488 54.4382 107.212 53.7341 106.9 53.0457C106.754 52.7094 106.589 52.3803 106.421 52.0513L106.637 51.6601C108.459 48.4243 111.174 45.7816 114.457 44.0481C115.596 44.6517 116.791 45.1416 118.026 45.5105L118.263 45.5837C121.66 46.5562 123.111 41.2695 119.726 40.297C120.635 40.5529 121.42 41.1285 121.938 41.9179C122.456 42.7073 122.672 43.6573 122.545 44.5929C122.285 46.5196 120.914 47.3934 119.225 47.9784C115.77 49.1813 112.988 51.3859 111.258 54.6398C110.527 55.9998 110.37 57.7328 109.353 58.9064C108.81 59.5174 108.089 59.9419 107.291 60.1197C106.493 60.2976 105.659 60.2197 104.908 59.8972C103.08 59.1221 102.838 57.5135 102.188 55.8755C101.672 54.5643 100.948 53.3446 100.045 52.2633C98.9946 51.0106 97.7309 49.9536 96.3122 49.141C95.0399 48.4098 93.5848 48.1905 92.3234 47.4958C91.5527 47.0718 90.9464 46.4015 90.6017 45.5921C90.2571 44.7828 90.1939 43.8812 90.4223 43.0317C90.8793 41.3719 92.1443 40.6662 93.6506 40.1617C96.5808 39.2437 99.1142 37.361 100.838 34.8202C102.465 32.334 102.732 27.7712 106.6 27.9211C110.22 28.0637 110.461 32.4108 112.037 34.8202C113.858 37.5081 116.582 39.4539 119.715 40.3043C117.609 39.7339 116.249 41.5364 116.322 43.2109C115.931 43.3681 115.54 43.5289 115.159 43.7044C114.918 43.8141 114.688 43.9348 114.454 44.07C111.04 42.2705 108.247 39.4842 106.44 36.0742C106.787 35.3942 107.094 34.6958 107.372 33.9866C107.551 33.5259 107.95 32.7728 107.946 32.2572H104.908C104.955 32.4254 105.006 32.5899 105.054 32.7581C105.149 33.1826 105.293 33.5948 105.482 33.9866C105.76 34.7005 106.08 35.3976 106.44 36.0742C106.209 36.5202 105.968 36.959 105.708 37.3831C104.311 39.5684 102.496 41.4558 100.367 42.9367C99.7514 43.3649 99.1077 43.7509 98.4401 44.092C97.5277 43.6125 96.5791 43.2054 95.6029 42.8745C95.284 42.7285 94.9472 42.6252 94.6012 42.5674V44.0883C94.1137 45.3265 94.1978 45.8079 94.8534 45.5325C95.3543 45.5434 96.0928 45.123 96.5718 44.9329Z" fill="black"/>
<path d="M106.421 52.0594C106.59 52.3884 106.754 52.7173 106.9 53.0536C107.212 53.7417 107.488 54.4457 107.726 55.1625C108.092 56.2846 108.205 55.9155 106.432 55.9155C104.276 55.9155 104.93 56.3358 105.058 55.4111C105.208 54.3109 105.873 53.0828 106.421 52.0594Z" fill="black"/>
<path d="M106.421 52.0582C105.427 50.1356 104.101 48.4031 102.506 46.9399C101.276 45.8221 99.9089 44.8662 98.4368 44.0956C99.1044 43.7545 99.7481 43.3685 100.363 42.9403C102.493 41.4595 104.308 39.5721 105.705 37.3869C105.972 36.9628 106.213 36.5241 106.436 36.078C108.249 39.4795 111.044 42.2565 114.457 44.048C111.175 45.7785 108.46 48.4171 106.637 51.6488L106.421 52.0582Z" fill="white"/>
<path d="M109.273 87.1547C107.774 87.084 106.282 86.9463 104.798 86.7416C102.775 85.1487 100.416 84.0384 97.8993 83.4951C97.4421 83.3677 97.0255 83.1244 96.6899 82.7888C96.3542 82.4532 96.111 82.0366 95.9836 81.5794C95.6312 80.4744 95.1987 79.3967 94.6894 78.3548C95.8483 78.8374 97.0292 79.2688 98.221 79.649C98.3673 80.0475 98.5026 80.446 98.6269 80.8518C102.782 81.699 106.532 83.9189 109.273 87.1547Z" fill="black"/>
<path d="M101.273 80.1203L99.3581 78.2087C99.8186 78.3074 100.272 78.428 100.718 78.5559C100.915 79.0713 101.12 79.5939 101.273 80.1203Z" fill="black"/>
<path d="M99.3573 78.208L101.273 80.1202C101.101 79.5937 100.907 79.0709 100.717 78.5554C102.915 79.1861 104.997 80.165 106.885 81.4546C103.942 81.1522 101.039 80.5469 98.2203 79.6485C96.476 74.8397 93.4001 70.6261 89.3515 67.4994C85.303 64.3727 80.4487 62.4618 75.3551 61.9896C74.7799 61.0756 74.2425 60.1421 73.7428 59.1891C75.274 59.2254 76.8004 59.3757 78.3092 59.6388C88.5938 61.4485 97.0467 68.9252 100.717 78.5554C100.271 78.4164 99.818 78.3067 99.3573 78.208Z" fill="black"/>
<path d="M96.1147 125.915C99.6503 125.915 99.643 131.399 96.1147 131.399H59.4759C55.9403 131.399 55.9476 125.915 59.4759 125.915H96.1147Z" fill="black"/>
<path d="M94.8498 45.5103C94.1943 45.7881 94.1102 45.3068 94.5976 44.0665V42.5459C94.9435 42.6038 95.2802 42.707 95.5991 42.853C96.575 43.1838 97.5234 43.5907 98.4355 44.0701C97.8287 44.3808 97.2037 44.6586 96.5714 44.9145C96.0925 45.1228 95.3542 45.5432 94.8498 45.5103Z" fill="black"/>
<path d="M75.3553 61.9895C80.4489 62.4616 85.3032 64.3725 89.3517 67.4993C93.4003 70.626 96.4762 74.8396 98.2205 79.6484C97.0286 79.2828 95.8477 78.8367 94.6887 78.3541C93.0352 74.9592 90.6204 71.9917 87.6323 69.6828C84.6442 67.3739 81.1635 65.7859 77.4613 65.0423C76.7118 64.0515 76.0061 63.0351 75.3553 61.9895Z" fill="black"/>
<path d="M69.9695 107.97C68.6899 107.482 67.4322 106.94 66.1964 106.343C65.4652 105.992 64.7474 105.626 64.043 105.246H80.9048C83.7854 105.675 86.7019 105.812 89.61 105.656C91.5696 106.928 91.0724 110.73 88.1475 110.73H80.5758C76.9478 110.212 73.3898 109.286 69.9695 107.97Z" fill="black"/>
<path d="M88.2746 118.313H50.3391C50.3391 116.942 51.2238 115.571 52.9897 115.571H85.6239C87.3934 115.571 88.2746 116.942 88.2746 118.313Z" fill="black"/>
<path d="M50.3391 118.314H88.2746C88.2746 119.685 87.3898 121.056 85.6239 121.056H52.9897C51.2202 121.056 50.3391 119.685 50.3391 118.314Z" fill="black"/>
<path d="M89.6096 105.637C86.7018 105.793 83.7856 105.656 80.9052 105.228H88.1364C88.657 105.217 89.1694 105.359 89.6096 105.637Z" fill="black"/>
<path d="M75.3544 61.9897C76.0051 63.0353 76.7107 64.0516 77.4601 65.0423C77.4236 65.0423 77.3907 65.0423 77.3541 65.0204C75.1315 64.5906 72.858 64.4872 70.6055 64.7133C70.0828 63.8688 69.5929 63.0097 69.1249 62.1542C70.3688 61.9796 71.6233 61.8916 72.8794 61.891C73.6983 61.8764 74.5392 61.9166 75.3544 61.9897Z" fill="black"/>
<path d="M67.8743 59.635C69.805 59.2964 71.7641 59.147 73.7238 59.189C74.2259 60.1395 74.7633 61.073 75.3361 61.9894C74.5208 61.9163 73.6945 61.8761 72.861 61.8761C71.6049 61.8767 70.3503 61.9647 69.1064 62.1393C68.6823 61.3168 68.2655 60.4795 67.8743 59.635Z" fill="black"/>
<path d="M73.7423 59.1878C71.7825 59.1458 69.8233 59.2952 67.8926 59.6338C63.1564 49.5119 62.0675 38.0633 64.8105 27.23C66.7734 25.9862 68.8307 24.8982 70.9637 23.976L71.5011 24.1771C69.4113 29.8462 68.5311 35.8899 68.917 41.9196C69.303 47.9493 70.9467 53.8314 73.7423 59.1878Z" fill="black"/>
<path d="M68.1925 19.2304C70.0716 18.4188 73.2669 19.8226 72.214 22.3269C71.9581 22.9375 71.7204 23.548 71.4828 24.1549L70.9454 23.9538L66.9239 20.8572L66.5071 19.9871C67.0701 19.7276 67.6294 19.4753 68.1925 19.2304Z" fill="black"/>
<path d="M70.9634 23.9649C68.8305 24.887 66.7733 25.9749 64.8105 27.2186C65.3647 25.0535 66.0745 22.9312 66.9346 20.8683L70.9634 23.9649Z" fill="black"/>
<path d="M69.9686 107.97C73.3886 109.28 76.9452 110.199 80.5713 110.712H47.4106C43.8752 110.712 43.8825 105.228 47.4106 105.228H64.0421C64.7514 105.62 65.4692 105.986 66.1956 106.325C67.4313 106.932 68.689 107.48 69.9686 107.97Z" fill="black"/>
<path d="M69.124 62.1396C69.5919 63.0098 70.0819 63.8689 70.6047 64.6989C67.0478 65.0664 63.6134 66.2031 60.5395 68.0301C57.4656 69.8571 54.8259 72.3308 52.8032 75.2796C52.1305 76.2704 50.9276 76.9175 49.7065 76.5409C48.7649 76.2513 47.8048 76.0254 46.8328 75.8646C46.5294 74.8993 46.2588 73.9268 46.0248 72.9397C47.5237 73.1132 49.0018 73.434 50.4377 73.8976C52.5449 70.7287 55.2997 68.0424 58.5206 66.0157C61.7415 63.9891 65.3553 62.668 69.124 62.1396Z" fill="black"/>
<path d="M66.5181 19.9982L66.9349 20.8684C66.0743 22.935 65.3643 25.0611 64.8106 27.2302C55.7388 32.9058 49.1255 41.7775 46.2773 52.0924C44.6874 57.9996 44.4103 64.1833 45.4656 70.2089C43.5905 70.0718 41.7061 70.1405 39.846 70.4137C38.3122 60.2612 40.0774 49.8844 44.8821 40.8101C49.6868 31.7359 57.2771 24.4433 66.5363 20.0055L66.5181 19.9982Z" fill="black"/>
<path d="M46.2775 52.0924C49.1284 41.7756 55.7458 32.9037 64.8217 27.2301C62.0704 38.0652 63.1529 49.5185 67.8857 59.6461C60.546 60.9505 53.9469 64.9206 49.356 70.7939C48.0763 70.4994 46.7756 70.3051 45.4658 70.2125C44.4099 64.1857 44.687 58.0007 46.2775 52.0924Z" fill="#FFE297"/>
<path d="M51.1648 71.2691L48.0687 72.5266C48.4744 71.9271 48.9021 71.3495 49.3444 70.7829C49.9549 70.9255 50.5617 71.0827 51.1648 71.2691Z" fill="black"/>
<path d="M50.4378 73.9122C49.0019 73.4486 47.5238 73.1277 46.0249 72.9543C45.8055 72.0451 45.6154 71.1274 45.4545 70.2012C46.7643 70.2938 48.065 70.4881 49.3446 70.7826C48.9022 71.3492 48.4745 71.9269 48.0686 72.5265L51.1653 71.2688C50.5621 71.0824 49.9552 70.9251 49.3373 70.7826C53.9281 64.9095 60.5269 60.9395 67.8663 59.6352C68.2575 60.4797 68.6743 61.317 69.1167 62.1396C65.3482 62.6706 61.735 63.9944 58.5153 66.0236C55.2956 68.0529 52.5426 70.7414 50.4378 73.9122Z" fill="black"/>
<path d="M43.4217 72.8047C44.2914 72.8066 45.1604 72.8566 46.0247 72.9546C46.2586 73.9417 46.5292 74.9142 46.8326 75.8794C44.8877 75.5503 42.9058 75.4998 40.9466 75.7295C40.7053 74.8338 40.4896 73.9344 40.2995 73.0241C41.3341 72.8808 42.3772 72.8075 43.4217 72.8047Z" fill="black"/>
<path d="M45.454 70.2015C45.6148 71.1252 45.8049 72.0428 46.0243 72.9544C45.1601 72.8563 44.2911 72.8063 43.4213 72.8045C42.3768 72.8072 41.3337 72.8805 40.2991 73.0238C40.1212 72.1562 39.9665 71.2836 39.8348 70.4062C41.6948 70.133 43.5791 70.0644 45.454 70.2015Z" fill="black"/>
<path d="M20.684 95.5609C20.6841 90.0675 22.6717 84.7597 26.2798 80.6173C29.8879 76.475 34.8728 73.7779 40.3142 73.024C40.5043 73.9344 40.72 74.8339 40.9614 75.7296C38.3256 76.0358 35.7801 76.8769 33.4808 78.2012C29.6629 80.4251 26.6801 83.8401 24.99 87.9223C23.3 92.0046 22.9959 96.5286 24.1245 100.8C26.4901 109.502 34.4826 115.473 43.4403 115.571C45.1952 115.59 46.0764 116.953 46.0874 118.314H43.4403C40.452 118.314 37.493 117.726 34.7321 116.583C31.9712 115.439 29.4626 113.764 27.3494 111.651C25.2362 109.538 23.56 107.03 22.4163 104.269C21.2727 101.508 20.684 98.5491 20.684 95.5609Z" fill="black"/>
<path d="M39.8351 70.4063C39.9667 71.2838 40.1215 72.1564 40.2994 73.0242C34.5912 73.8159 29.396 76.7442 25.763 81.2177C22.13 85.6913 20.33 91.3767 20.7264 97.126C21.1227 102.875 23.686 108.26 27.8985 112.193C32.111 116.125 37.6589 118.313 43.4218 118.314H46.0689C46.0689 119.696 45.2024 121.074 43.4218 121.056C37 121.012 30.823 118.586 26.0877 114.248C17.5724 106.42 15.5652 93.36 21.0897 83.2506C23.0089 79.8065 25.7005 76.8542 28.953 74.6256C32.2055 72.397 35.9304 70.9527 39.8351 70.4063Z" fill="black"/>
</svg>
